SplineFontDB: 3.0
FontName: Loma-Oblique
FullName: Loma Oblique
FamilyName: Loma
Weight: Book
Copyright: Copyright (c) NECTEC, 2003. All rights reserved.\nModified under GNU General Public License by TLWG.
Version: 0.9.17: 2012-01-06
ItalicAngle: -12
UnderlinePosition: -170
UnderlineWidth: 20
Ascent: 1638
Descent: 410
LayerCount: 2
Layer: 0 0 "Back"  1
Layer: 1 0 "Fore"  0
NeedsXUIDChange: 1
FSType: 0
OS2Version: 0
OS2_WeightWidthSlopeOnly: 0
OS2_UseTypoMetrics: 0
CreationTime: 1153662347
ModificationTime: 1325945442
PfmFamily: 33
TTFWeight: 400
TTFWidth: 5
LineGap: 0
VLineGap: 0
Panose: 2 11 5 4 2 2 2 2 2 4
OS2TypoAscent: 0
OS2TypoAOffset: 1
OS2TypoDescent: 0
OS2TypoDOffset: 1
OS2TypoLinegap: 0
OS2WinAscent: 0
OS2WinAOffset: 1
OS2WinDescent: 0
OS2WinDOffset: 1
HheadAscent: 0
HheadAOffset: 1
HheadDescent: 0
HheadDOffset: 1
OS2Vendor: 'PfEd'
Lookup: 4 0 1 "'liga' Standard Ligatures lookup 0"  {"'liga' Standard Ligatures lookup 0"  } ['liga' ('latn' <'dflt' > ) ]
Lookup: 6 0 0 "'ccmp' Thai Conditional Descender Removal"  {"'ccmp' Thai Conditional Descender Removal"  } ['ccmp' ('DFLT' <'dflt' > 'thai' <'KUY ' 'PAL ' 'THA ' 'dflt' > ) ]
Lookup: 6 0 0 "'ccmp' Thai General Composition"  {"'ccmp' Thai Below Vowel Tone Reordering"  "'ccmp' Thai General Composition"  } ['ccmp' ('DFLT' <'dflt' > 'thai' <'KUY ' 'PAL ' 'THA ' 'dflt' > ) ]
Lookup: 5 0 0 "Loma-Required Thai Descender Removal"  {"Loma-Required Thai Descender Removal"  } [' RQD' ('thai' <'PAL ' > ) ]
Lookup: 1 0 0 "Thai Descender Removal Single Substitution"  {"Thai Descender Removal Single Substitution" ("descless" ) } []
Lookup: 2 0 0 "Thai Sara Am Decomposition"  {"Thai Sara Am Decomposition"  } []
Lookup: 2 0 0 "Thai Tone Nikhahit Attachment"  {"Thai Tone Nikhahit Attachment"  } []
Lookup: 1 0 0 "Thai Sara Am Lakkhang"  {"Thai Sara Am Lakkhang"  } []
Lookup: 1 0 0 "Thai Tone Low Variant"  {"Thai Tone Low Variant" ("low" ) } []
Lookup: 1 0 0 "Thai Mark High Variant"  {"Thai Mark High Variant" ("high" ) } []

StartChar: .notdef
Encoding: 65536 -1 0
Width: 1536
Flags: W
HStem: 0 32<295 1255> 1248 32<553 1513>
DStem2: 256 0 288.198 0 0.207912 0.978148<39.4093 1282.48> 1248.2 0 1280 0 0.207912 0.978148<32.7149 1275.78>
LayerCount: 2
Fore
SplineSet
256 0 m 1
 528 1280 l 1
 1552 1280 l 1
 1280 0 l 1
 256 0 l 1
295 32 m 1
 1255 32 l 1
 1513 1248 l 1
 553 1248 l 1
 295 32 l 1
EndSplineSet
EndChar

StartChar: uni0E47.high
Encoding: 63263 63263 1
Width: 0
Flags: W
HStem: 1797.6 111.6<-216.765 -70.9169> 1797.6 131.4<-438.758 -395.118> 1876.8 136.8<-384.533 -262.431> 1917.3 38.7<-95.8715 -68.6> 2066.7 47.7<-82.335 9.94193> 2136 106.2<-368.539 14.9424>
VStem: -578 135.9<1929.67 2070.33> -158.6 55.8<1960.4 2050.52> 16 77.4<1963.79 2064.98> 75.4 127.8<2300.26 2346.6>
AnchorPoint: "AboveMark" -297 1740 mark 0
LayerCount: 2
Back
SplineSet
-35 2067 m 0x9f
 -65 2067 -94 2044 -102 2007 c 0
 -102.875 2003.12 -103.297 1999.42 -103.297 1995.91 c 0
 -103.297 1971.31 -82.625 1956 -52 1956 c 0
 -18 1956 7 1977 14 2009 c 0
 14.9327 2013.66 15.3861 2018.11 15.3861 2022.33 c 0
 15.3861 2049.72 -3.79687 2067 -35 2067 c 0x9f
-69 1917 m 1x3f
 -141.89 1917 -159.108 1957.24 -159.108 1991.04 c 0
 -159.108 1998.51 -158.267 2005.66 -157 2012 c 0
 -144 2073 -82 2114 -24 2114 c 0
 37 2114 82 2091 88 2051 c 0
 90.3723 2036.17 92.3928 2020.99 92.3928 2004.84 c 0
 92.3928 1993.75 91.4416 1982.21 89 1970 c 0
 69 1875 -9 1798 -106 1798 c 0x9f
 -273 1798 -277 1877 -347 1877 c 0x5f
 -384 1877 -389 1810 -400 1798 c 1x9f
 -527.602 1798 -578.388 1869.88 -578.388 1952.71 c 0
 -578.388 1968.55 -576.531 1984.79 -573 2001 c 0
 -553 2097 -472 2242 -167 2242 c 0
 -86 2242 20 2249 74 2347 c 1
 202 2347 l 1
 185 2266 65 2172 -23 2150 c 0
 -54 2141 -105 2136 -178 2136 c 0
 -355 2136 -423 2082 -441 1996 c 0
 -442.184 1990.08 -442.784 1983.88 -442.784 1977.75 c 0
 -442.784 1952.83 -432.868 1929 -412 1929 c 1
 -401 1965 -379 2014 -318 2014 c 0x5f
 -268 2014 -233 1949 -180 1925 c 0
 -161.176 1918.28 -131.957 1909.29 -105.104 1909.29 c 0
 -92.0142 1909.29 -79.4868 1911.43 -69 1917 c 1x3f
EndSplineSet
Fore
Refer: 190 3655 N 0.9 0 0 0.9 70 642 2
EndChar

StartChar: uni0E4D.high
Encoding: 63262 63262 2
Width: 0
VWidth: 2561
Flags: W
HStem: 1726 72<62.0254 191.013> 1954 73<76.9239 211.794>
VStem: -13 299
AnchorPoint: "AboveMark" 107 1740 mark 0
LayerCount: 2
Fore
SplineSet
169 2027 m 0
 251 2027 304 1961 286 1875 c 0
 269 1795 187 1726 105 1726 c 0
 26 1726 -32 1789 -13 1875 c 1
 4 1957 88 2027 169 2027 c 0
119 1798 m 0
 158 1798 207 1834 216 1875 c 0
 225 1921 195 1954 152 1954 c 0
 103 1954 64 1917 56 1875 c 1
 47 1834 77 1798 119 1798 c 0
EndSplineSet
EndChar

StartChar: exclam
Encoding: 33 33 5
Width: 569
Flags: W
HStem: 0 194<247 370> 1430 20G<501.743 686>
VStem: 320 93<365 416.35>
DStem2: 206 0 370 0 0.207912 0.978148<34.0975 198.285 542.558 1480.69>
LayerCount: 2
Fore
SplineSet
410 999 m 1
 506 1450 l 1
 686 1450 l 1
 590 999 l 1
 413 365 l 1
 320 365 l 1
 410 999 l 1
247 194 m 1
 411 194 l 1
 370 0 l 1
 206 0 l 1
 247 194 l 1
EndSplineSet
EndChar

StartChar: quotedbl
Encoding: 34 34 6
Width: 727
Flags: W
HStem: 947 503<414 442 747 773>
VStem: 357 570
LayerCount: 2
Fore
SplineSet
357 947 m 1
 365 1217 l 1
 414 1450 l 1
 594 1450 l 1
 545 1217 l 1
 442 947 l 1
 357 947 l 1
688 947 m 1
 698 1217 l 1
 747 1450 l 1
 927 1450 l 1
 878 1217 l 1
 773 947 l 1
 688 947 l 1
EndSplineSet
EndChar

StartChar: numbersign
Encoding: 35 35 7
Width: 1139
Flags: W
HStem: -10 21G<85 273.658 544 731.658> 385 180<141 256 504 714 962 1195> 895 180<249 468 716 927 1175 1303> 1450 20G<698.342 887 1157.34 1346>
DStem2: 85 -10 265 -10 0.387444 0.921893<69.74 430.401 692.428 982.704 1244.73 1605.39> 544 -10 723 -10 0.387973 0.921671<69.4473 430.015 692.133 982.706 1244.82 1605.39>
LayerCount: 2
Fore
SplineSet
85 -10 m 1
 256 385 l 1
 103 385 l 1
 141 565 l 1
 324 565 l 1
 468 895 l 1
 211 895 l 1
 249 1075 l 1
 536 1075 l 1
 707 1470 l 1
 887 1470 l 1
 716 1075 l 1
 995 1075 l 1
 1166 1470 l 1
 1346 1470 l 1
 1175 1075 l 1
 1341 1075 l 1
 1303 895 l 1
 1107 895 l 1
 962 565 l 1
 1233 565 l 1
 1195 385 l 1
 894 385 l 1
 723 -10 l 1
 544 -10 l 1
 714 385 l 1
 436 385 l 1
 265 -10 l 1
 85 -10 l 1
504 565 m 1
 782 565 l 1
 927 895 l 1
 648 895 l 1
 504 565 l 1
EndSplineSet
EndChar

StartChar: dollar
Encoding: 36 36 8
Width: 1139
Flags: W
HStem: -17 140<424.093 487 660 770.896> 651 159<574.207 629> 1271 138<645.258 761 933 982.092>
VStem: 153 190<204.895 417> 316 186<877.107 1133.12> 947 189<295.447 556.625> 1057 180<1050 1196.29>
DStem2: 466 -118 609 -118 0.207912 0.978148<29.7314 103.159 276.068 788.734 958.016 1419.98 1590.73 1641.8>
LayerCount: 2
Fore
SplineSet
487 -17 m 1xe4
 288 9 153 108 153 306 c 0
 153 340 157 377 165 417 c 1
 344 417 l 1
 343 403 343 390 343 377 c 0xf4
 343 237 402 142 517 123 c 1
 629 651 l 1
 485 688 316 761 316 951 c 1
 329 1225 540 1385 790 1409 c 1
 807 1488 l 1
 950 1488 l 1
 933 1409 l 1
 1113 1391 1237 1285 1237 1114 c 0
 1237 1094 1235 1072 1231 1050 c 1
 1056 1050 l 1
 1056 1055 1057 1060 1057 1065 c 0xea
 1057 1155 998 1254 904 1269 c 1
 802 790 l 1
 803 789 l 1
 984 746 1136 670 1136 485 c 1
 1124 189 885 4 631 -15 c 1
 609 -118 l 1
 466 -118 l 1
 487 -17 l 1xe4
761 1271 m 1
 634 1250 505 1146 502 991 c 1xe8
 502 892 574 838 663 810 c 1
 761 1271 l 1
947 446 m 0xe4
 947 548 875 592 768 629 c 1
 660 123 l 1
 802 153 947 275 947 446 c 0xe4
EndSplineSet
EndChar

StartChar: percent
Encoding: 37 37 9
Width: 1821
Flags: W
HStem: -53 123<1306.56 1501.59> -10 21G<456 650.364> 598 123<1406.32 1597.49> 717 123<523.744 717.788> 1366 125<616.818 813.275>
VStem: 340 155<866.746 1202.88> 840 154<1004.75 1340.45> 1124 156<94.7225 438.012> 1624 156<231.116 573.638>
DStem2: 456 -10 636 -10 0.583335 0.812232<105 1847.99>
LayerCount: 2
Fore
SplineSet
340 978 m 0x1f80
 340 1169 452 1491 743 1491 c 0
 944 1491 994 1343 994 1227 c 0
 994 989 838 717 580 717 c 0
 428 717 340 814 340 978 c 0x1f80
840 1225 m 0
 840 1342 769 1366 722 1366 c 0
 537 1366 495 1059 495 981 c 0
 495 866 565 840 611 840 c 0
 802 840 840 1155 840 1225 c 0
1534 1491 m 1
 1714 1491 l 1
 636 -10 l 1
 456 -10 l 1x4f80
 1534 1491 l 1
1124 210 m 0
 1124 408 1241 721 1529 721 c 0
 1730 721 1780 570 1780 454 c 0
 1780 216 1625 -53 1365 -53 c 0xaf80
 1173 -53 1124 91 1124 210 c 0
1624 457 m 0
 1624 577 1551 598 1507 598 c 0
 1349 600 1280 360 1280 210 c 0
 1280 95 1349 70 1395 70 c 1
 1567 77 1624 324 1624 457 c 0
EndSplineSet
EndChar

StartChar: ampersand
Encoding: 38 38 10
Width: 1366
Flags: W
HStem: -25 158<450.668 747.367> 1343 148<785.764 1016.06>
VStem: 165 201<218.343 505.897> 513 192<1024.14 1256.51> 1047 187<1085.57 1313.27>
DStem2: 875 821 684 725 0.509444 -0.860504<-399.027 -150.526 0 386.433>
LayerCount: 2
Fore
SplineSet
1234 1244 m 0
 1234 990 937 851 875 821 c 1
 1066 485 l 1
 1108 542 1146 611 1179 690 c 1
 1359 649 l 1
 1299 522 1233 417 1161 334 c 1
 1210 247 1270 172 1342 109 c 1
 1191 -35 l 1
 1129 13 1068 82 1010 172 c 1
 865 41 711 -25 548 -25 c 0
 241 -25 165 195 165 319 c 0
 165 528 318 715 615 842 c 1
 568 916 513 1016 513 1106 c 0
 513 1281 696 1491 954 1491 c 0
 1152 1491 1234 1357 1234 1244 c 0
912 1343 m 0
 800 1343 705 1248 705 1151 c 1
 704 1074 770 995 805 938 c 1
 857 964 1047 1048 1047 1213 c 0
 1047 1288 996 1343 912 1343 c 0
366 364 m 0
 366 279 408 133 583 133 c 0
 707 133 855 226 927 315 c 1
 684 725 l 1
 510 631 366 521 366 364 c 0
EndSplineSet
EndChar

StartChar: quotesingle
Encoding: 39 39 11
Width: 391
Flags: W
HStem: 947 519<402 448>
VStem: 337 270
LayerCount: 2
Fore
SplineSet
337 947 m 1
 350 1221 l 1
 402 1466 l 1
 607 1466 l 1
 555 1221 l 1
 448 947 l 1
 337 947 l 1
EndSplineSet
EndChar

StartChar: parenleft
Encoding: 40 40 12
Width: 682
Flags: W
VStem: 208 179<-96.5287 577.281>
LayerCount: 2
Fore
SplineSet
387 -431 m 1
 251 -194 208 53 208 254 c 0
 208 817 544 1229 796 1491 c 1
 925 1491 l 1
 649 1155 387 780 387 200 c 0
 387 -11 430 -221 516 -431 c 1
 387 -431 l 1
EndSplineSet
EndChar

StartChar: parenright
Encoding: 41 41 13
Width: 682
Flags: W
VStem: 577 178<511.251 1152.72>
LayerCount: 2
Fore
SplineSet
755 837 m 0
 755 286 425 -167 161 -431 c 1
 32 -431 l 1
 319 -87 577 361 577 889 c 0
 577 1159 485 1359 441 1491 c 1
 570 1491 l 1
 700 1248 755 1049 755 837 c 0
EndSplineSet
EndChar

StartChar: asterisk
Encoding: 42 42 14
Width: 797
Flags: W
HStem: 1197 142<833.456 965.514>
VStem: 638 145<1339.72 1491>
LayerCount: 2
Fore
SplineSet
318 1197 m 1
 395 1339 l 1
 493 1302 563 1269 605 1242 c 1
 618 1363 629 1446 638 1491 c 1
 783 1491 l 1
 767 1425 741 1342 707 1243 c 1
 784 1278 868 1310 964 1339 c 1
 979 1197 l 1
 888 1169 801 1150 719 1141 c 1
 752 1106 796 1043 850 952 c 1
 712 867 l 1
 685 920 655 991 621 1082 c 1
 552 988 493 916 445 867 c 1
 345 952 l 1
 443 1047 512 1110 552 1141 c 1
 469 1158 391 1176 318 1197 c 1
EndSplineSet
EndChar

StartChar: plus
Encoding: 43 43 15
Width: 1196
Flags: W
HStem: 639 168<286 649 855 1218>
DStem2: 563 237 733 237 0.207912 0.978148<35.345 411.096 618.254 990.655>
LayerCount: 2
Fore
SplineSet
563 237 m 1
 649 639 l 1
 250 639 l 1
 286 807 l 1
 685 807 l 1
 769 1206 l 1
 939 1206 l 1
 855 807 l 1
 1254 807 l 1
 1218 639 l 1
 819 639 l 1
 733 237 l 1
 563 237 l 1
EndSplineSet
EndChar

StartChar: comma
Encoding: 44 44 16
Width: 569
Flags: W
HStem: -290 495
VStem: 125 306
LayerCount: 2
Fore
SplineSet
182 0 m 1
 226 205 l 1
 431 205 l 1
 387 0 l 2
 356 -146 287 -240 158 -290 c 1
 125 -213 l 1
 209 -178 254 -120 284 0 c 1
 182 0 l 1
EndSplineSet
EndChar

StartChar: hyphen
Encoding: 45 45 17
Width: 682
Flags: W
HStem: 440 181<197 712>
VStem: 159 591
LayerCount: 2
Fore
SplineSet
159 440 m 1
 197 621 l 1
 750 621 l 1
 712 440 l 1
 159 440 l 1
EndSplineSet
EndChar

StartChar: period
Encoding: 46 46 18
Width: 569
Flags: W
HStem: 0 205<230 391>
VStem: 186 249
LayerCount: 2
Fore
SplineSet
186 0 m 1
 230 205 l 1
 435 205 l 1
 391 0 l 1
 186 0 l 1
EndSplineSet
EndChar

StartChar: slash
Encoding: 47 47 19
Width: 595
Flags: W
HStem: -10 21G<-83 112.162> 1450 20G<805.824 1000>
DStem2: -83 -10 100 -10 0.520002 0.854165<95.1603 1732.69>
LayerCount: 2
Fore
SplineSet
-83 -10 m 1
 818 1470 l 1
 1000 1470 l 1
 100 -10 l 1
 -83 -10 l 1
EndSplineSet
EndChar

StartChar: zero
Encoding: 48 48 20
Width: 1139
Flags: W
HStem: -10 150<462.531 732.77> 1309 150<686.41 968.519>
VStem: 201 185<227.43 747.591> 1047 186<697.443 1223.07>
LayerCount: 2
Fore
SplineSet
561 -10 m 1
 306 -10 201 144 201 404 c 0
 201 575 261 914 376 1133 c 0
 489 1350 655 1459 873 1459 c 0
 1113 1459 1233 1320 1233 1041 c 0
 1233 800 1143 460 1040 285 c 0
 928 96 770 -2 561 -10 c 1
593 140 m 0
 960 142 1047 864 1047 1019 c 0
 1047 1212 978 1309 839 1309 c 0
 673 1309 522 1191 424 723 c 0
 412 664 386 544 386 425 c 0
 386 235 455 140 593 140 c 0
EndSplineSet
EndChar

StartChar: one
Encoding: 49 49 21
Width: 1139
Flags: W
HStem: 0 21G<583 767.253> 1452 20G<883.5 1076>
VStem: 416 660
DStem2: 583 0 763 0 0.207912 0.978148<37.4241 1160.3 1390.66 1504.91>
LayerCount: 2
Fore
SplineSet
763 0 m 1
 583 0 l 1
 824 1135 l 1
 740 1037 576 938 416 907 c 1
 458 1104 l 1
 573 1153 677 1221 768 1306 c 0
 828 1363 871 1419 896 1472 c 1
 1076 1472 l 1
 763 0 l 1
EndSplineSet
EndChar

StartChar: two
Encoding: 50 50 22
Width: 1139
Flags: W
HStem: 0 173<349 1031> 1333 149<677.111 1003.77>
VStem: 317 185<1039 1150.16> 1080 188<980.587 1260.85>
LayerCount: 2
Fore
SplineSet
887 1482 m 0
 1189 1482 1268 1297 1268 1171 c 0
 1268 1050 1230 904 1023 705 c 0
 853 541 470 345 349 173 c 1
 1068 173 l 1
 1031 0 l 1
 62 0 l 1
 210 499 1080 708 1080 1139 c 0
 1080 1254 990 1333 851 1333 c 0
 642 1333 535 1187 502 1039 c 1
 317 1039 l 1
 369 1285 583 1482 887 1482 c 0
EndSplineSet
EndChar

StartChar: three
Encoding: 51 51 23
Width: 1139
Flags: W
HStem: -10 166<435.792 765.576> 694 158<622 725.981> 713 137<622 852.674> 1070 21G<331 538.5> 1317 165<668.462 977.035>
VStem: 168 182<242.549 427> 331 180<1070 1161.62> 958 194<348.395 645.238> 1030 186<1016.07 1263.42>
LayerCount: 2
Fore
SplineSet
168 342 m 0xbd
 168 368 170 394 177 427 c 1
 357 427 l 1
 355 408 350 392 350 371 c 0
 350 246 444 156 586 156 c 0
 812 156 958 336 958 516 c 0
 958 643 868 713 728 713 c 0xbd
 685 713 638 707 589 694 c 1
 622 852 l 1xdd
 676 850 l 2
 856 843 1030 993 1030 1158 c 0
 1030 1262 947 1317 829 1317 c 1
 677 1321 566 1222 511 1070 c 1
 331 1070 l 1
 380 1294 611 1482 860 1482 c 0
 1089 1482 1216 1342 1216 1180 c 0xba80
 1216 982 1068 847 941 794 c 1
 1147 744 1152 596 1152 537 c 0
 1152 497 1140 294 949 135 c 0
 847 51 698 -10 550 -10 c 0
 313 -10 168 147 168 342 c 0xbd
EndSplineSet
EndChar

StartChar: four
Encoding: 52 52 24
Width: 1139
Flags: W
HStem: 0 21G<662 846.265> 347 175<362 736 953 1114> 1452 20G<957.358 1155>
DStem2: 137 522 362 522 0.661517 0.74993<148.841 950.284> 662 0 842 0 0.207912 0.978148<37.4241 354.803 571.095 1141.87>
LayerCount: 2
Fore
SplineSet
662 0 m 1
 736 347 l 1
 100 347 l 1
 137 522 l 1
 975 1472 l 1
 1155 1472 l 1
 953 522 l 1
 1151 522 l 1
 1114 347 l 1
 916 347 l 1
 842 0 l 1
 662 0 l 1
773 522 m 1
 899 1117 l 1
 362 522 l 1
 773 522 l 1
EndSplineSet
EndChar

StartChar: five
Encoding: 53 53 25
Width: 1139
Flags: W
HStem: -10 164<437.483 763.413> 817 170<579.25 893.255> 1292 180<698 1263>
VStem: 169 192<229.894 415> 982 196<405.218 729.798>
DStem2: 267 708 540 920 0.370762 0.928728<48.1589 125.164 298.108 702.175>
LayerCount: 2
Fore
SplineSet
554 -10 m 0
 246 -10 169 186 169 348 c 0
 169 370 170 392 173 415 c 1
 362 415 l 1
 361 405 361 395 361 385 c 0
 361 234 438 154 589 154 c 0
 851 154 982 405 982 589 c 0
 982 735 885 817 727 817 c 0
 628 817 536 773 452 686 c 1
 267 708 l 1
 572 1472 l 1
 1301 1472 l 1
 1263 1292 l 1
 698 1292 l 1
 540 920 l 1
 604 965 696 987 811 987 c 0
 1048 987 1178 830 1178 632 c 0
 1178 329 929 -10 554 -10 c 0
EndSplineSet
EndChar

StartChar: six
Encoding: 54 54 26
Width: 1139
Flags: W
HStem: -10 165<478.38 772.105> 807 170<590.273 890.272> 1305 177<701.478 1013.82>
VStem: 193 206<235.782 590.026> 974 188<387.043 721.776> 1074 188<1103 1240.83>
LayerCount: 2
Fore
SplineSet
1262 1182 m 0xf4
 1262 1142 1256 1119 1253 1103 c 1
 1074 1103 l 1xf4
 1073 1266 973 1305 869 1305 c 0
 660 1305 521 1151 450 842 c 1
 548 939 661 977 802 977 c 0
 1018 977 1162 822 1162 605 c 0xf8
 1162 339 944 -10 584 -10 c 0
 271 -10 193 204 193 425 c 0
 193 506 204 599 226 701 c 0
 332 1200 560 1482 918 1482 c 0
 1138 1482 1262 1342 1262 1182 c 0xf4
748 807 m 0
 508 807 399 564 399 390 c 0
 399 293 442 155 616 155 c 0
 856 155 974 397 974 577 c 0xf8
 974 715 893 807 748 807 c 0
EndSplineSet
EndChar

StartChar: seven
Encoding: 55 55 27
Width: 1139
Flags: W
HStem: 0 21G<293 562> 1292 180<410 1070>
VStem: 293 218<0 156.644>
LayerCount: 2
Fore
SplineSet
372 1292 m 1
 410 1472 l 1
 1359 1472 l 1
 1321 1292 l 1
 993 980 613 475 511 0 c 1
 293 0 l 1
 344 235 464 494 651 776 c 0
 785 979 925 1151 1070 1292 c 1
 372 1292 l 1
EndSplineSet
EndChar

StartChar: eight
Encoding: 56 56 28
Width: 1139
Flags: W
HStem: -10 157<444.738 774.955> 699 181<614.939 886.435> 1326 156<685.49 986.42>
VStem: 164 189<239.607 526.504> 368 187<935.456 1197.11> 965 187<332.038 623.192> 1044 188<1013.39 1267.49>
LayerCount: 2
Fore
SplineSet
176 439 m 1xfc
 231 693 417 777 533 805 c 1
 423 849 368 923 368 1027 c 0
 368 1233 551 1482 878 1482 c 0
 1107 1482 1232 1351 1232 1185 c 0xfa
 1232 1067 1183 902 972 816 c 1
 944 805 l 1
 1107 748 1156 638 1152 524 c 0
 1140 208 899 -10 564 -10 c 0
 299 -10 164 145 164 333 c 0
 164 386 176 428 176 439 c 1xfc
1044 1154 m 0
 1044 1260 964 1326 847 1326 c 0
 692 1326 555 1216 555 1051 c 0
 555 943 634 880 754 880 c 0
 931 880 1044 1018 1044 1154 c 0
711 699 m 0
 430 699 353 485 353 368 c 0
 353 249 436 147 599 147 c 0
 836 147 965 339 965 500 c 0xfc
 965 631 863 699 711 699 c 0
EndSplineSet
EndChar

StartChar: nine
Encoding: 57 57 29
Width: 1139
Flags: W
HStem: -10 177<457.607 769.128> 495 170<580.728 881.993> 1317 165<699.945 992.598>
VStem: 209 187<231.172 369> 309 188<750.224 1084.45> 1072 205<882.157 1236.35>
LayerCount: 2
Fore
SplineSet
209 290 m 0xf4
 209 330 215 353 217 369 c 1
 396 369 l 1xf4
 399 205 500 167 601 167 c 0
 810 167 950 321 1021 630 c 1
 927 537 814 495 669 495 c 0
 453 495 309 650 309 867 c 0xec
 309 1148 540 1482 887 1482 c 0
 1200 1482 1277 1267 1277 1049 c 0
 1277 967 1267 874 1245 771 c 0
 1139 272 911 -10 553 -10 c 0
 333 -10 209 130 209 290 c 0xf4
723 665 m 0
 962 665 1072 907 1072 1082 c 0
 1072 1179 1029 1317 855 1317 c 0
 628 1317 497 1088 497 895 c 0xec
 497 757 578 665 723 665 c 0
EndSplineSet
EndChar

StartChar: colon
Encoding: 58 58 30
Width: 569
Flags: W
HStem: 0 205<229 390> 857 205<411 572>
VStem: 185 431
DStem2: 185 0 390 0 0.207912 0.978148<42.6219 209.668 918.734 1085.78>
LayerCount: 2
Fore
SplineSet
367 857 m 1
 411 1062 l 1
 616 1062 l 1
 572 857 l 1
 367 857 l 1
185 0 m 1
 229 205 l 1
 434 205 l 1
 390 0 l 1
 185 0 l 1
EndSplineSet
EndChar

StartChar: semicolon
Encoding: 59 59 31
Width: 569
Flags: W
HStem: 857 205<408 569>
VStem: 125 488
DStem2: 120.359 -290 325.359 -290 0.207912 0.978148<317.953 506.147 1215.21 1382.26>
LayerCount: 2
Fore
SplineSet
364 857 m 1
 408 1062 l 1
 613 1062 l 1
 569 857 l 1
 364 857 l 1
182 0 m 1
 226 205 l 1
 431 205 l 1
 387 0 l 2
 354 -149 282 -241 158 -290 c 1
 125 -213 l 1
 213 -178 259 -107 284 0 c 1
 182 0 l 1
EndSplineSet
EndChar

StartChar: less
Encoding: 60 60 32
Width: 1196
Flags: W
DStem2: 467 724 248 641 0.905028 -0.425353<0 771.017> 284 809 467 724 0.932434 0.36134<139.922 1034.55>
LayerCount: 2
Fore
SplineSet
248 641 m 1
 284 809 l 1
 1342 1219 l 1
 1304 1040 l 1
 467 724 l 1
 1169 405 l 1
 1131 226 l 1
 248 641 l 1
EndSplineSet
EndChar

StartChar: equal
Encoding: 61 61 33
Width: 1196
Flags: W
HStem: 417 168<238 1171> 862 168<333 1265>
LayerCount: 2
Fore
SplineSet
1265 862 m 1
 297 862 l 1
 333 1030 l 1
 1301 1030 l 1
 1265 862 l 1
1171 417 m 1
 203 417 l 1
 238 585 l 1
 1206 585 l 1
 1171 417 l 1
EndSplineSet
EndChar

StartChar: greater
Encoding: 62 62 34
Width: 1196
Flags: W
DStem2: 198 405 160 226 0.931061 0.364863<0 895.69> 371 1219 333 1040 0.907177 -0.420749<40.8414 810.636>
LayerCount: 2
Fore
SplineSet
1219 641 m 1
 160 226 l 1
 198 405 l 1
 1035 724 l 1
 333 1040 l 1
 371 1219 l 1
 1255 809 l 1
 1219 641 l 1
EndSplineSet
EndChar

StartChar: question
Encoding: 63 63 35
Width: 1139
Flags: W
HStem: 0 205<505 666> 1341 163<684.16 1006.1>
VStem: 549 173<361 420.733> 1090 190<1001.05 1260.96>
LayerCount: 2
Fore
SplineSet
885 1504 m 0
 1162 1504 1280 1333 1280 1180 c 0
 1280 775 810 772 722 361 c 1
 549 361 l 1
 567 436 l 1
 674 829 1090 850 1090 1137 c 0
 1090 1220 1037 1341 853 1341 c 1
 638 1339 542 1167 497 1046 c 1
 312 1046 l 1
 381 1300 598 1504 885 1504 c 0
461 0 m 1
 505 205 l 1
 710 205 l 1
 666 0 l 1
 461 0 l 1
EndSplineSet
EndChar

StartChar: at
Encoding: 64 64 36
Width: 2079
Flags: W
HStem: -431 157<736.88 1380.76> -33 194<1330.54 1542.16> -3 164<814.672 1065.59> 925 159<1072.48 1344.35> 1338 155<1107.76 1645.06>
VStem: 185 164<59.9471 538.936> 584 183<210.482 554.628> 1966 159<628.044 1047.8>
LayerCount: 2
Fore
SplineSet
1347 -33 m 0xdf
 1262 -33 1185 -9 1185 88 c 0
 1185 98 1185 109 1187 121 c 1
 1098 38 986 -3 853 -3 c 0xbf
 638 -3 584 193 584 322 c 0
 584 705 945 1084 1241 1084 c 0
 1383 1084 1474 1035 1512 938 c 1
 1576 1079 l 1
 1755 1079 l 1
 1461 379 l 2
 1392 215 1404 229 1398 212 c 1
 1399 200 1410 163 1457 163 c 0
 1632 163 1966 506 1966 854 c 0
 1966 1144 1730 1338 1377 1338 c 0
 748 1338 349 770 349 283 c 0
 349 -105 645 -274 1062 -274 c 0
 1522 -274 1752 -65 1828 19 c 1
 2009 19 l 1
 1829 -239 1470 -431 1031 -431 c 0
 541 -431 185 -220 185 240 c 0
 185 810 659 1493 1419 1493 c 0
 1854 1493 2125 1248 2125 881 c 0
 2125 422 1688 -33 1347 -33 c 0xdf
767 352 m 0
 767 239 821 161 925 161 c 0
 1183 161 1392 523 1392 747 c 0
 1392 860 1332 925 1221 925 c 0
 968 925 767 570 767 352 c 0
EndSplineSet
EndChar

StartChar: A
Encoding: 65 65 37
Width: 1366
Flags: W
HStem: 0 21G<-2 215.272 1144.71 1368> 471 182<574 1042> 1430 20G<855.014 1080.03>
DStem2: -2 0 203 0 0.514061 0.857754<105.382 657.948 856.212 1536.03> 1076 1450 922 1237 0.197416 -0.98032<178.406 774.603> 1368 0 1048 471 0.197416 -0.98032<-524.904 -43.2341>
LayerCount: 2
Fore
SplineSet
867 1450 m 1
 1076 1450 l 1
 1368 0 l 1
 1149 0 l 1
 1048 471 l 1
 492 471 l 1
 203 0 l 1
 -2 0 l 1
 867 1450 l 1
1042 653 m 1
 922 1237 l 1
 574 653 l 1
 1042 653 l 1
EndSplineSet
EndChar

StartChar: B
Encoding: 66 66 38
Width: 1366
Flags: W
HStem: 0 173<381 981.219> 669 173<523 1073.74> 1277 173<615 1169.57>
VStem: 1152 203<318.705 600.238> 1226 197<982.318 1227.03>
DStem2: 164 0 344.228 0 0.207912 0.978148<214.336 721.328 898.241 1342.86>
LayerCount: 2
Fore
SplineSet
1145 772 m 1xe8
 1307 722 1355 607 1355 502 c 0xf0
 1355 210 1115 0 709 0 c 2
 164 0 l 1
 472 1450 l 1
 1008 1450 l 2
 1260 1450 1423 1365 1423 1152 c 0
 1423 1000 1322 851 1145 772 c 1xe8
523 842 m 1
 840 842 l 2
 1015 842 1226 875 1226 1115 c 0xe8
 1226 1270 1095 1277 908 1277 c 2
 615 1277 l 1
 523 842 l 1
1152 482 m 0xf0
 1152 640 1010 669 825 669 c 2
 486 669 l 1
 381 173 l 1
 746 173 l 2
 1105 173 1152 365 1152 482 c 0xf0
EndSplineSet
EndChar

StartChar: C
Encoding: 67 67 39
Width: 1479
Flags: W
HStem: -10 180<620.388 1043.5> 1297 180<849.415 1273.11>
VStem: 239 201<360.151 822.931> 1312 188<407.755 480> 1408 188<1050 1175.03>
LayerCount: 2
Fore
SplineSet
824 170 m 0xe8
 1064 170 1256 303 1312 480 c 1
 1500 480 l 1xf0
 1311 75 1001 -10 789 -10 c 0
 501 -10 239 102 239 547 c 0
 239 1001 572 1477 1108 1477 c 0
 1498 1477 1584 1213 1596 1050 c 1
 1408 1050 l 1
 1393 1215 1265 1297 1066 1297 c 0
 636 1297 440 891 440 581 c 0
 440 252 641 170 824 170 c 0xe8
EndSplineSet
EndChar

StartChar: D
Encoding: 68 68 40
Width: 1479
Flags: W
HStem: 0 173<387 958.859> 1277 173<621 1180.33>
VStem: 1360 206<654.395 1110.56>
DStem2: 168 0 350.228 0 0.207912 0.978148<214.752 1343.28>
LayerCount: 2
Fore
SplineSet
981 1450 m 2
 1425 1450 1566 1265 1566 986 c 0
 1566 745 1479 0 697 0 c 2
 168 0 l 1
 476 1450 l 1
 981 1450 l 2
1360 916 m 0
 1360 1205 1165 1277 941 1277 c 2
 621 1277 l 1
 387 173 l 1
 712 173 l 2
 1130 173 1360 500 1360 916 c 0
EndSplineSet
EndChar

StartChar: E
Encoding: 69 69 41
Width: 1366
Flags: W
HStem: 0 179<379 1222> 646 180<517 1158> 1268 182<611 1492>
DStem2: 162 0 340.952 0 0.207912 0.978148<220.205 697.583 881.759 1333.64>
LayerCount: 2
Fore
SplineSet
162 0 m 1
 470 1450 l 1
 1530 1450 l 1
 1492 1268 l 1
 611 1268 l 1
 517 826 l 1
 1197 826 l 1
 1158 646 l 1
 478 646 l 1
 379 179 l 1
 1260 179 l 1
 1222 0 l 1
 162 0 l 1
EndSplineSet
EndChar

StartChar: F
Encoding: 70 70 42
Width: 1251
Flags: W
HStem: 0 21G<168 351.243> 641 179<521 1145> 1271 179<617 1427>
DStem2: 168 0 347 0 0.207912 0.978148<37.2162 692.485 875.474 1336.58>
LayerCount: 2
Fore
SplineSet
168 0 m 1
 476 1450 l 1
 1465 1450 l 1
 1427 1271 l 1
 617 1271 l 1
 521 820 l 1
 1183 820 l 1
 1145 641 l 1
 483 641 l 1
 347 0 l 1
 168 0 l 1
EndSplineSet
EndChar

StartChar: G
Encoding: 71 71 43
Width: 1479
Flags: W
HStem: -10 180<621.936 1043.42> 504 180<1050 1319> 1297 180<849.415 1272.46>
VStem: 239 201<358.823 822.931> 1408 188<1050 1176.05>
LayerCount: 2
Fore
SplineSet
440 581 m 0
 440 383 517 170 824 170 c 0
 1044 170 1276 304 1319 504 c 1
 1012 504 l 1
 1050 684 l 1
 1549 684 l 1
 1479 256 1245 -10 789 -10 c 0
 501 -10 239 102 239 547 c 0
 239 1001 572 1477 1108 1477 c 0
 1498 1477 1584 1213 1596 1050 c 1
 1408 1050 l 1
 1399 1159 1332 1297 1066 1297 c 0
 636 1297 440 891 440 581 c 0
EndSplineSet
EndChar

StartChar: H
Encoding: 72 72 44
Width: 1479
Flags: W
HStem: 0 21G<164 348.251 1134 1318.25> 668 180<524 1276> 1430 20G<467.752 652 1437.75 1622>
DStem2: 164 0 344 0 0.207912 0.978148<37.4241 720.35 904.317 1482.35> 1134 0 1314 0 0.207912 0.978148<37.4241 682.926 866.893 1482.35>
LayerCount: 2
Fore
SplineSet
164 0 m 1
 472 1450 l 1
 652 1450 l 1
 524 848 l 1
 1314 848 l 1
 1442 1450 l 1
 1622 1450 l 1
 1314 0 l 1
 1134 0 l 1
 1276 668 l 1
 486 668 l 1
 344 0 l 1
 164 0 l 1
EndSplineSet
EndChar

StartChar: I
Encoding: 73 73 45
Width: 650
Flags: W
HStem: 0 160<59 269 449 625> 1290 160<333 509 689 899>
DStem2: 234.991 0 414.991 0 0.207912 0.978148<200.999 1318.78>
LayerCount: 2
Fore
SplineSet
659 160 m 1
 625 0 l 1
 25 0 l 1
 59 160 l 1
 269 160 l 1
 509 1290 l 1
 299 1290 l 1
 333 1450 l 1
 933 1450 l 1
 899 1290 l 1
 689 1290 l 1
 449 160 l 1
 659 160 l 1
EndSplineSet
EndChar

StartChar: J
Encoding: 74 74 46
Width: 1024
Flags: W
HStem: -10 180<368.504 656.491> 1280 170<716 957>
VStem: 137 188<215.002 452.701>
DStem2: 682.76 -10 862.949 -10 0.207912 0.978148<250.09 1318.83>
LayerCount: 2
Fore
SplineSet
325 334 m 0
 325 203 413 170 498 170 c 0
 684 170 744 279 785 471 c 2
 957 1280 l 1
 680 1280 l 1
 716 1450 l 1
 1173 1450 l 1
 962 456 l 2
 889 112 709 -10 461 -10 c 0
 273 -10 137 71 137 270 c 0
 137 331 148 395 161 455 c 1
 341 455 l 1
 335 417 325 378 325 334 c 0
EndSplineSet
EndChar

StartChar: K
Encoding: 75 75 47
Width: 1366
Flags: W
HStem: 0 21G<150 334.267 1098.31 1346> 1430 20G<453.752 638 1353.44 1624>
DStem2: 150 0 330 0 0.207912 0.978148<37.4241 588.555 839.991 1482.35> 497 785 621 670 0.7913 0.611428<0 27.8069 237.569 1105.32>
LayerCount: 2
Fore
SplineSet
150 0 m 1
 458 1450 l 1
 638 1450 l 1
 497 785 l 1
 1380 1450 l 1
 1624 1450 l 1
 781 806 l 1
 1346 0 l 1
 1113 0 l 1
 621 670 l 1
 445 539 l 1
 330 0 l 1
 150 0 l 1
EndSplineSet
EndChar

StartChar: L
Encoding: 76 76 48
Width: 1139
Flags: W
HStem: 0 170<366 1060> 1430 20G<453.752 638>
DStem2: 150 0 329.865 0 0.207912 0.978148<211.194 1482.35>
LayerCount: 2
Fore
SplineSet
150 0 m 1
 458 1450 l 1
 638 1450 l 1
 366 170 l 1
 1096 170 l 1
 1060 0 l 1
 150 0 l 1
EndSplineSet
EndChar

StartChar: M
Encoding: 77 77 49
Width: 1706
Flags: W
HStem: 0 21G<152 336.253 702.494 1008.01 1370 1554.25> 1430 20G<455.752 643.629 1665.87 1858>
DStem2: 152 0 332 0 0.207912 0.978148<37.4241 1022.98> 640 1450 537 964 0.178557 -0.98393<459.798 1338.51> 879 133 996 0 0.51869 0.854962<0 1071.48> 1370 0 1550 0 0.207912 0.978148<37.4241 985.556>
LayerCount: 2
Fore
SplineSet
152 0 m 1
 460 1450 l 1
 640 1450 l 1
 879 133 l 1
 1678 1450 l 1
 1858 1450 l 1
 1550 0 l 1
 1370 0 l 1
 1575 964 l 1
 996 0 l 1
 706 0 l 1
 537 964 l 1
 332 0 l 1
 152 0 l 1
EndSplineSet
EndChar

StartChar: N
Encoding: 78 78 50
Width: 1479
Flags: W
HStem: 0 21G<156 340.243 1121.25 1315.25> 1430 20G<459.752 653.762 1434.75 1619>
DStem2: 156 0 336 0 0.207912 0.978148<37.4241 1198.71> 644 1450 577 1136 0.43833 -0.898814<252.86 1262.99> 1131.04 0 1311 0 0.207912 0.978148<322.037 1482.34>
LayerCount: 2
Fore
SplineSet
156 0 m 1
 464 1450 l 1
 644 1450 l 1
 1198 315 l 1
 1439 1450 l 1
 1619 1450 l 1
 1311 0 l 1
 1131 0 l 1
 577 1136 l 1
 336 0 l 1
 156 0 l 1
EndSplineSet
EndChar

StartChar: O
Encoding: 79 79 51
Width: 1593
Flags: W
HStem: -10 180<619.018 1061.68> 1298 180<842.962 1284.93>
VStem: 236 201<357.575 808.422> 1472 202<654.535 1112.21>
LayerCount: 2
Fore
SplineSet
798 -10 m 0
 416 -10 236 236 236 532 c 0
 236 748 333 1069 558 1271 c 1
 714 1407 900 1476 1115 1478 c 1
 1475 1478 1674 1264 1674 939 c 0
 1674 470 1339 -10 798 -10 c 0
1472 910 m 0
 1472 1151 1336 1298 1078 1298 c 0
 731 1298 533 1074 455 711 c 0
 443 653 437 599 437 549 c 0
 437 382 516 170 835 170 c 0
 1345 170 1472 683 1472 910 c 0
EndSplineSet
EndChar

StartChar: P
Encoding: 80 80 52
Width: 1366
Flags: W
HStem: 0 21G<158 342.241> 580 173<498 1117.17> 1277 173<609 1237.77>
VStem: 1302 204<920.538 1217.21>
DStem2: 158 0 338 0 0.207912 0.978148<37.4241 630.323 807.235 1342.86>
LayerCount: 2
Fore
SplineSet
158 0 m 1
 466 1450 l 1
 1019 1450 l 1
 1359 1460 1506 1360 1506 1124 c 0
 1506 955 1405 580 851 580 c 2
 461 580 l 1
 338 0 l 1
 158 0 l 1
498 753 m 1
 891 753 l 2
 1155 753 1302 880 1302 1088 c 0
 1302 1210 1255 1277 998 1277 c 2
 609 1277 l 1
 498 753 l 1
EndSplineSet
EndChar

StartChar: Q
Encoding: 81 81 53
Width: 1659
Flags: W
HStem: -14 189<777.997 1054.17 1361.05 1567.48> 297 178<842.858 1075.26> 1298 180<842.962 1284.93>
VStem: 236 201<353.99 808.422> 1472 202<641.991 1112.21>
LayerCount: 2
Fore
SplineSet
996 475 m 1
 1161 473 1244 390 1269 354 c 1
 1380 458 1466 685 1472 910 c 1
 1472 1151 1336 1298 1078 1298 c 0
 731 1298 533 1074 455 711 c 0
 443 652 437 598 437 548 c 0
 437 391 497 292 592 230 c 1
 669 392 849 475 996 475 c 1
1674 939 m 0
 1674 732 1583 350 1360 204 c 1
 1373 185 1395 176 1427 175 c 1
 1473 175 1536 196 1581 228 c 1
 1678 90 l 1
 1589 21 1495 -14 1396 -14 c 0
 1303 -14 1216 19 1175 88 c 1
 1051 20 958 -10 798 -10 c 0
 416 -10 236 236 236 532 c 0
 236 748 333 1069 558 1271 c 1
 714 1407 900 1476 1115 1478 c 1
 1475 1478 1674 1264 1674 939 c 0
1098 226 m 1
 1068 273 1026 297 971 297 c 0
 924 297 826 276 775 174 c 1
 791 169 811 167 838 167 c 0
 961 169 1057 198 1098 226 c 1
EndSplineSet
EndChar

StartChar: R
Encoding: 82 82 54
Width: 1400
Flags: W
HStem: 0 21G<158 342.241 1097.14 1387> 580 173<498 821> 1277 173<609 1231.32>
VStem: 1302 204<924.157 1218.16>
DStem2: 158 0 338 0 0.207912 0.978148<37.4241 630.323 807.235 1342.86>
LayerCount: 2
Fore
SplineSet
821 580 m 1
 461 580 l 1
 338 0 l 1
 158 0 l 1
 466 1450 l 1
 1019 1450 l 2
 1400 1450 1506 1340 1506 1124 c 0
 1506 890 1320 625 1051 596 c 1
 1387 0 l 1
 1107 0 l 1
 821 580 l 1
498 753 m 1
 891 753 l 2
 1160 753 1302 875 1302 1088 c 0
 1302 1210 1255 1277 998 1277 c 2
 609 1277 l 1
 498 753 l 1
EndSplineSet
EndChar

StartChar: S
Encoding: 83 83 55
Width: 1366
Flags: W
HStem: -10 174<525.725 973.59> 1300 171<716.568 1139.37>
VStem: 187 193<294.762 502> 365 195<947.395 1164.31> 1165 196<331.276 553.18> 1248 191<1019 1195.5>
LayerCount: 2
Fore
SplineSet
715 -10 m 0xd8
 262 -10 187 227 187 385 c 0
 187 422 191 460 199 502 c 1
 382 502 l 1
 381 487 380 471 380 457 c 0
 380 222 567 164 743 164 c 0
 980 164 1165 281 1165 456 c 1xe8
 1161 627 929 626 781 666 c 1
 500 737 365 813 365 987 c 0
 365 1221 589 1471 977 1471 c 0
 1268 1471 1439 1324 1439 1106 c 0
 1439 1075 1434 1047 1432 1019 c 1
 1246 1019 l 1
 1247 1031 1248 1042 1248 1053 c 0xd4
 1248 1215 1129 1300 948 1300 c 0
 645 1300 560 1143 560 1039 c 0
 560 966 599 904 866 856 c 1
 1160 786 1361 736 1361 522 c 0
 1361 242 1092 -10 715 -10 c 0xd8
EndSplineSet
EndChar

StartChar: T
Encoding: 84 84 56
Width: 1251
Flags: W
HStem: 0 21G<538 722.25> 1280 170<356 810 990 1482>
DStem2: 538 0 718 0 0.207912 0.978148<37.4241 1308.58>
LayerCount: 2
Fore
SplineSet
538 0 m 1
 810 1280 l 1
 320 1280 l 1
 356 1450 l 1
 1518 1450 l 1
 1482 1280 l 1
 990 1280 l 1
 718 0 l 1
 538 0 l 1
EndSplineSet
EndChar

StartChar: U
Encoding: 85 85 57
Width: 1479
Flags: W
HStem: -10 180<566.93 1009.09> 1430 20G<464.764 649 1437.76 1622>
VStem: 260 188<280.594 664.023>
DStem2: 159.355 -10 339.142 -10 0.207912 0.978148<502.904 1492.47> 1132.14 -10 1312.35 -10 0.207912 0.978148<347.02 1492.52>
LayerCount: 2
Fore
SplineSet
448 441 m 0
 448 337 484 170 773 170 c 0
 1158 170 1225 429 1255 568 c 2
 1442 1450 l 1
 1622 1450 l 1
 1435 567 l 2
 1353 182 1121 -10 739 -10 c 0
 420 -10 260 121 260 381 c 0
 260 418 262 476 282 567 c 2
 469 1450 l 1
 649 1450 l 1
 462 568 l 2
 452 522 448 479 448 441 c 0
EndSplineSet
EndChar

StartChar: V
Encoding: 86 86 58
Width: 1366
Flags: W
HStem: 0 21G<573.414 788.166> 1430 20G<317 530.57 1447.63 1658>
DStem2: 527 1450 317 1450 0.176495 -0.984301<0 1189.5> 736 279 776 0 0.519685 0.854358<0 1376.71>
LayerCount: 2
Fore
SplineSet
577 0 m 1
 317 1450 l 1
 527 1450 l 1
 736 279 l 1
 1460 1450 l 1
 1658 1450 l 1
 776 0 l 1
 577 0 l 1
EndSplineSet
EndChar

StartChar: W
Encoding: 87 87 59
Width: 1933
Flags: W
HStem: 0 21G<412.883 622.222 1308.29 1517.61> 1430 20G<333 533.208 1131.7 1397.81 1996.3 2205>
DStem2: 532 1450 333 1450 0.0557751 -0.998443<0 1061.92> 596 390 612 0 0.455111 0.890435<0 973.977> 1396 1450 1210 1170 0.0851596 -0.996367<263.143 1064.32> 1492 390 1508 0 0.433236 0.90128<0 1178.04>
LayerCount: 2
Fore
SplineSet
414 0 m 1
 333 1450 l 1
 532 1450 l 1
 596 390 l 1
 1142 1450 l 1
 1396 1450 l 1
 1492 390 l 1
 2006 1450 l 1
 2205 1450 l 1
 1508 0 l 1
 1310 0 l 1
 1210 1170 l 1
 612 0 l 1
 414 0 l 1
EndSplineSet
EndChar

StartChar: X
Encoding: 88 88 60
Width: 1366
Flags: W
HStem: 0 21G<9 257.662 1112.82 1353> 1430 20G<384 623.453 1372.09 1621>
DStem2: 9 0 239 0 0.689929 0.723877<158.684 997.06 1249.04 2003.1> 614 1450 384 1450 0.454082 -0.89096<0 605.853 835.188 1523.02>
LayerCount: 2
Fore
SplineSet
9 0 m 1
 725 756 l 1
 384 1450 l 1
 614 1450 l 1
 873 902 l 1
 1391 1450 l 1
 1621 1450 l 1
 959 756 l 1
 1353 0 l 1
 1123 0 l 1
 811 613 l 1
 239 0 l 1
 9 0 l 1
EndSplineSet
EndChar

StartChar: Y
Encoding: 89 89 61
Width: 1366
Flags: W
HStem: 0 21G<571 769.251> 1431 20G<314 554.671 1409.01 1658>
DStem2: 571 0 765 0 0.207912 0.978148<40.3349 634.874> 862 855 897 621 0.675805 0.73708<0 821.806>
LayerCount: 2
Fore
SplineSet
571 0 m 1
 703 621 l 1
 314 1451 l 1
 544 1451 l 1
 862 855 l 1
 1428 1451 l 1
 1658 1451 l 1
 897 621 l 1
 765 0 l 1
 571 0 l 1
EndSplineSet
EndChar

StartChar: Z
Encoding: 90 90 62
Width: 1251
Flags: W
HStem: 0 180<363 1200> 1270 180<353 1215>
DStem2: 81 187 363 180 0.723182 0.690658<199.103 1568.07>
LayerCount: 2
Fore
SplineSet
41 0 m 1
 81 187 l 1
 1215 1270 l 1
 315 1270 l 1
 353 1450 l 1
 1521 1450 l 1
 1483 1270 l 1
 363 180 l 1
 1238 180 l 1
 1200 0 l 1
 41 0 l 1
EndSplineSet
EndChar

StartChar: bracketleft
Encoding: 91 91 63
Width: 569
Flags: W
HStem: -407 149<264 449> 1317 149<599 816>
DStem2: 52 -407 232.329 -407 0.207912 0.978148<189.821 1800.05>
LayerCount: 2
Fore
SplineSet
52 -407 m 1
 451 1466 l 1
 848 1466 l 1
 816 1317 l 1
 599 1317 l 1
 264 -258 l 1
 481 -258 l 1
 449 -407 l 1
 52 -407 l 1
EndSplineSet
EndChar

StartChar: backslash
Encoding: 92 92 64
Width: 569
Flags: W
VStem: 317 247
DStem2: 462 1491 317 1491 0.0677857 -0.9977<0 1509.67>
LayerCount: 2
Fore
SplineSet
420 -25 m 1
 317 1491 l 1
 462 1491 l 1
 564 -25 l 1
 420 -25 l 1
EndSplineSet
EndChar

StartChar: bracketright
Encoding: 93 93 65
Width: 569
Flags: W
HStem: -407 149<-16 201> 1317 149<351 536>
DStem2: 169.329 -407 349 -407 0.207912 0.978148<152.329 1762.56>
LayerCount: 2
Fore
SplineSet
349 -407 m 1
 -48 -407 l 1
 -16 -258 l 1
 201 -258 l 1
 536 1317 l 1
 319 1317 l 1
 351 1466 l 1
 748 1466 l 1
 349 -407 l 1
EndSplineSet
EndChar

StartChar: asciicircum
Encoding: 94 94 66
Width: 961
Flags: W
DStem2: 201 690 386 690 0.546714 0.837319<101.142 801.666>
LayerCount: 2
Fore
SplineSet
386 690 m 1
 201 690 l 1
 724 1491 l 1
 869 1491 l 1
 1054 690 l 1
 873 690 l 1
 753 1287 l 1
 386 690 l 1
EndSplineSet
EndChar

StartChar: underscore
Encoding: 95 95 67
Width: 1139
Flags: W
HStem: -407 130<-90 1075>
LayerCount: 2
Fore
SplineSet
-118 -407 m 1
 -90 -277 l 1
 1103 -277 l 1
 1075 -407 l 1
 -118 -407 l 1
EndSplineSet
EndChar

StartChar: grave
Encoding: 96 96 68
Width: 682
Flags: W
HStem: 1194 280<574 643>
VStem: 402 317
LayerCount: 2
Fore
SplineSet
719 1194 m 1
 574 1194 l 1
 402 1474 l 1
 643 1474 l 1
 719 1194 l 1
EndSplineSet
EndChar

StartChar: a
Encoding: 97 97 69
Width: 1139
Flags: W
HStem: -24 141<362.575 661.875> 0 21G<860.5 1052> 937 149<566.226 928.452>
VStem: 126 197<153.493 365.677> 853 180<1.45495 129.715> 976 191<672.298 890.305>
DStem2: 807.606 -24 990.311 -24 0.207912 0.978148<277.455 569.444 690.378 831.014>
LayerCount: 2
Fore
SplineSet
757 937 m 0xb4
 570 937 498 865 437 735 c 1
 266 759 l 1
 350 975 531 1086 815 1086 c 0
 1115 1086 1165 967 1167 851 c 1xb4
 1166 820 1158 765 1141 685 c 2
 1090 445 l 2
 1045 236 1033 145 1033 118 c 0
 1033 77 1039 38 1052 0 c 1
 864 0 l 1
 857 24 853 52 853 82 c 0x78
 853 98 854 114 856 131 c 1
 732 42 602 -24 432 -24 c 0
 179 -24 126 116 126 210 c 0
 126 360 232 527 456 585 c 1
 582 616 792 621 956 674 c 1
 959 686 976 745 976 792 c 0
 976 850 950 937 757 937 c 0xb4
323 248 m 0
 323 196 352 117 505 117 c 0
 657 117 781 192 845 287 c 0
 873 328 895 388 912 467 c 2
 926 533 l 1
 696 444 470 489 370 370 c 1
 329 325 323 272 323 248 c 0
EndSplineSet
EndChar

StartChar: b
Encoding: 98 98 70
Width: 1139
Flags: W
HStem: -10 159<485.679 774.015> 921 165<651.887 924.047> 1446 20G<441.744 626>
VStem: 1012 177<444.621 834.038>
DStem2: 131.874 -10 298.874 -10 0.207912 0.978148<44.9447 166.542 1011.62 1509.06>
LayerCount: 2
Fore
SplineSet
594 -10 m 0
 466 -10 377 36 326 119 c 1
 301 0 l 1
 134 0 l 1
 446 1466 l 1
 626 1466 l 1
 514 943 l 1
 611 1038 718 1086 836 1086 c 0
 1119 1086 1189 865 1189 705 c 0
 1189 385 972 -10 594 -10 c 0
785 921 m 0
 588 921 410 672 410 394 c 0
 410 249 479 149 613 149 c 1
 892 152 1012 461 1012 670 c 0
 1012 824 934 921 785 921 c 0
EndSplineSet
EndChar

StartChar: c
Encoding: 99 99 71
Width: 1024
Flags: W
HStem: -10 170<446.362 774.402> 916 170<584.574 904.109>
VStem: 176 188<247.76 632.945> 914 177<297.111 403> 978 182<696 844.724>
LayerCount: 2
Fore
SplineSet
595 160 m 1xe8
 852 162 899 344 914 403 c 1
 1091 403 l 1xf0
 1016 96 780 -10 561 -10 c 0
 320 -10 176 149 176 380 c 0
 176 560 256 812 432 958 c 0
 535 1043 656 1086 795 1086 c 0
 1107 1086 1160 905 1160 784 c 0
 1160 756 1155 714 1151 696 c 1
 976 696 l 1
 977 706 978 716 978 725 c 0
 978 836 891 916 766 916 c 0
 576 916 450 805 390 583 c 0
 377 532 364 460 364 407 c 0
 364 252 445 160 595 160 c 1xe8
EndSplineSet
EndChar

StartChar: d
Encoding: 100 100 72
Width: 1139
Flags: W
HStem: -10 154<434.852 707.884> 917 169<575.836 863.405> 1446 20G<1119.75 1303>
VStem: 166 186<227.467 626.636>
DStem2: 821.874 -10 988.874 -10 0.207912 0.978148<44.9447 134.963 987.208 1506.56>
LayerCount: 2
Fore
SplineSet
750 1086 m 0
 910 1086 977 1027 1016 958 c 1
 1124 1466 l 1
 1303 1466 l 1
 991 0 l 1
 824 0 l 1
 850 122 l 1
 771 34 663 -10 525 -10 c 0
 277 -10 166 168 166 376 c 0
 166 694 382 1086 750 1086 c 0
739 917 m 0
 429 917 352 536 352 391 c 0
 352 238 428 144 575 144 c 0
 731 144 943 348 943 657 c 0
 943 806 873 917 739 917 c 0
EndSplineSet
EndChar

StartChar: e
Encoding: 101 101 73
Width: 1139
Flags: W
HStem: -10 162<443.984 802.201> 485 164<409 1002.93> 914 172<587.049 930.325>
VStem: 168 192<235.305 482.762> 1003 181<650.037 843.603>
LayerCount: 2
Fore
SplineSet
360 384 m 0
 360 267 410 152 614 152 c 1
 764 150 873 218 933 333 c 1
 1119 333 l 1
 1035 129 840 -10 579 -10 c 0
 250 -10 168 186 168 363 c 0
 168 621 335 1086 802 1086 c 0
 1108 1086 1184 881 1184 699 c 0
 1184 625 1173 548 1156 485 c 1
 370 485 l 1
 363 448 360 415 360 384 c 0
1003 702 m 0
 1003 842 922 914 767 914 c 0
 603 914 454 810 409 649 c 1
 1000 649 l 1
 1002 668 1003 685 1003 702 c 0
EndSplineSet
EndChar

StartChar: f
Encoding: 102 102 74
Width: 569
Flags: W
HStem: 0 21G<178 361.252> 922 140<245 374 583 732> 1343 172<671.628 925.604>
DStem2: 178 0 357 0 0.207912 0.978148<37.2162 942.603 1123 1379.11>
LayerCount: 2
Fore
SplineSet
778 1343 m 0
 700 1343 632 1294 604 1160 c 2
 583 1062 l 1
 762 1062 l 1
 732 922 l 1
 553 922 l 1
 357 0 l 1
 178 0 l 1
 374 922 l 1
 215 922 l 1
 245 1062 l 1
 404 1062 l 1
 428 1175 l 2
 486 1447 677 1515 809 1515 c 0
 860 1515 909 1506 956 1488 c 1
 920 1316 l 1
 864 1336 824 1343 778 1343 c 0
EndSplineSet
EndChar

StartChar: g
Encoding: 103 103 75
Width: 1139
Flags: W
HStem: -435 167<304.333 651.062> 0 175<426.879 713.895> 917 169<570.949 880.792> 1042 20G<1057.68 1228>
VStem: 78 178<-217.658 -74> 162 189<252.022 632.523>
DStem2: 726.055 -435 909.93 -435 0.207912 0.978148<302.683 586.873 1444.11 1534.13>
LayerCount: 2
Fore
SplineSet
162 381 m 0xd4
 162 714 394 1086 757 1086 c 0xe4
 898 1086 993 1049 1043 974 c 1
 1062 1062 l 1
 1228 1062 l 1
 1033 144 l 2
 944 -271 790 -435 430 -435 c 0
 224 -435 78 -336 78 -153 c 0
 78 -128 81 -102 86 -74 c 1
 261 -74 l 1
 256 -123 l 1xd8
 256 -239 373 -268 464 -268 c 0
 694 -268 793 -126 847 134 c 0
 848 136 848 136 849 139 c 1
 750 46 642 0 525 0 c 0
 235 0 162 221 162 381 c 0xd4
734 917 m 0
 428 917 351 555 351 407 c 0
 351 287 397 175 579 175 c 1
 801 159 954 412 954 682 c 0
 954 830 881 917 734 917 c 0
EndSplineSet
EndChar

StartChar: h
Encoding: 104 104 76
Width: 1139
Flags: W
HStem: 0 21G<135 319.248 820 1004.25> 882 213<636.913 915.963> 1446 20G<442.744 627>
VStem: 963 193<611.153 834.523>
DStem2: 135 0 315 0 0.207912 0.978148<37.4241 816.996 1029.06 1498.83> 820 0 1000 0 0.207912 0.978148<37.4241 726.888>
LayerCount: 2
Fore
SplineSet
833 1095 m 0
 1092 1095 1156 934 1156 795 c 0
 1156 757 1152 717 1143 673 c 2
 1000 0 l 1
 820 0 l 1
 953 624 l 2
 960 657 963 687 963 714 c 0
 963 826 903 882 783 882 c 0
 590 882 477 753 428 532 c 1
 315 0 l 1
 135 0 l 1
 447 1466 l 1
 627 1466 l 1
 521 970 l 1
 607 1058 729 1095 833 1095 c 0
EndSplineSet
EndChar

StartChar: i
Encoding: 105 105 77
Width: 455
Flags: W
HStem: 0 21G<136 320.256> 1042 20G<357.744 542> 1259 207<448 584>
VStem: 136 492
DStem2: 136 0 316 0 0.207912 0.978148<37.4241 1085.78 1324.63 1498.83>
LayerCount: 2
Fore
SplineSet
404 1259 m 1
 448 1466 l 1
 628 1466 l 1
 584 1259 l 1
 404 1259 l 1
136 0 m 1
 362 1062 l 1
 542 1062 l 1
 316 0 l 1
 136 0 l 1
EndSplineSet
EndChar

StartChar: j
Encoding: 106 106 78
Width: 455
Flags: W
HStem: -428 161<-153.834 49.3813> 1042 20G<355.753 540> 1257 209<446 581>
DStem2: 43.5038 -428 223.354 -428 0.207912 0.978148<187.745 1523.24 1759.93 1936.3>
LayerCount: 2
Fore
SplineSet
401 1257 m 1
 446 1466 l 1
 626 1466 l 1
 581 1257 l 1
 401 1257 l 1
-182 -412 m 1
 -149 -259 l 1
 -115 -264 -87 -267 -64 -267 c 0
 48 -267 91 -199 123 -54 c 1
 360 1062 l 1
 540 1062 l 1
 302 -58 l 2
 231 -390 62 -428 -52 -428 c 0
 -92 -428 -135 -423 -182 -412 c 1
EndSplineSet
EndChar

StartChar: k
Encoding: 107 107 79
Width: 1024
Flags: W
HStem: 0 21G<136 320.228 785.308 1016> 1042 20G<944.018 1201> 1446 20G<443.744 628>
DStem2: 136 0 316 0 0.207912 0.978148<37.4241 467.728 681.517 1498.83> 450 630 558 543 0.77886 0.627198<0 29.5507 227.116 674.399> 711 668 558 543 0.415341 -0.909666<50.161 642.13>
LayerCount: 2
Fore
SplineSet
136 0 m 1
 448 1466 l 1
 628 1466 l 1
 450 630 l 1
 968 1062 l 1
 1201 1062 l 1
 711 668 l 1
 1016 0 l 1
 794 0 l 1
 558 543 l 1
 405 421 l 1
 316 0 l 1
 136 0 l 1
EndSplineSet
EndChar

StartChar: l
Encoding: 108 108 80
Width: 455
Flags: W
HStem: 0 21G<131 315.256> 1446 20G<438.744 623>
VStem: 131 492
DStem2: 131 0 311 0 0.207912 0.978148<37.4241 1498.83>
LayerCount: 2
Fore
SplineSet
131 0 m 1
 443 1466 l 1
 623 1466 l 1
 311 0 l 1
 131 0 l 1
EndSplineSet
EndChar

StartChar: m
Encoding: 109 109 81
Width: 1706
Flags: W
HStem: 0 21G<135 319.247 766 950.246 1395 1578.25> 930 156<659.027 897.001 1288.38 1522.41> 1042 20G<356.744 522>
VStem: 1555 189<594.07 895.493>
DStem2: 135 0 315 0 0.207912 0.978148<37.4241 872.835 966.857 1085.78> 766 0 946 0 0.207912 0.978148<37.4241 798.476> 1395 0 1574 0 0.207912 0.978148<37.2162 811.419>
LayerCount: 2
Fore
SplineSet
924 784 m 0xd0
 924 885 879 930 776 930 c 0xd0
 576 930 466 766 432 551 c 1
 315 0 l 1
 135 0 l 1
 361 1062 l 1
 522 1062 l 1xb0
 490 913 l 1
 563 999 690 1086 849 1086 c 0
 919 1086 1085 1074 1109 900 c 1
 1220 1024 1342 1086 1477 1086 c 0
 1640 1086 1744 1014 1744 850 c 0
 1744 814 1739 774 1729 729 c 2
 1574 0 l 1
 1395 0 l 1
 1537 669 l 2
 1549 723 1555 766 1555 797 c 0
 1555 903 1466 930 1404 930 c 0
 1336 930 1139 909 1077 617 c 2
 946 0 l 1
 766 0 l 1
 913 690 l 2
 920 725 924 757 924 784 c 0xd0
EndSplineSet
EndChar

StartChar: n
Encoding: 110 110 82
Width: 1139
Flags: W
HStem: 0 21G<135 319.248 820 1004.25> 882 213<636.913 915.963> 1044 20G<356.752 541>
VStem: 963 193<611.153 834.523>
DStem2: 135 0 315 0 0.207912 0.978148<37.4241 816.996 1029.06 1087.74> 820 0 1000 0 0.207912 0.978148<37.4241 726.888>
LayerCount: 2
Fore
SplineSet
833 1095 m 0xd0
 1092 1095 1156 934 1156 795 c 0
 1156 757 1152 717 1143 673 c 2
 1000 0 l 1
 820 0 l 1
 953 624 l 2
 960 657 963 687 963 714 c 0
 963 826 903 882 783 882 c 0xd0
 590 882 477 753 428 532 c 1
 315 0 l 1
 135 0 l 1
 361 1064 l 1
 541 1064 l 1xb0
 521 970 l 1
 607 1058 729 1095 833 1095 c 0xd0
EndSplineSet
EndChar

StartChar: o
Encoding: 111 111 83
Width: 1139
Flags: W
HStem: -11 158<438.507 771.842> 928 158<591.962 916.672>
VStem: 162 188<237.393 621.873> 1008 189<443.636 833.518>
LayerCount: 2
Fore
SplineSet
162 365 m 0
 162 609 310 1086 797 1086 c 0
 1117 1086 1197 867 1197 699 c 0
 1197 485 1073 -11 564 -11 c 0
 242 -11 162 187 162 365 c 0
763 928 m 0
 433 928 350 545 350 395 c 0
 350 232 438 147 597 147 c 0
 926 147 1008 516 1008 670 c 0
 1008 830 922 928 763 928 c 0
EndSplineSet
EndChar

StartChar: p
Encoding: 112 112 84
Width: 1139
Flags: W
HStem: -10 165<488.319 766.342> 927 159<620.317 912.696>
VStem: 1000 175<444.239 833.44>
DStem2: 39 -390 219 -390 0.207912 0.978148<37.4241 572.073 1411.75 1498.83>
LayerCount: 2
Fore
SplineSet
1175 702 m 0
 1175 357 947 -10 591 -10 c 0
 473 -10 386 38 330 133 c 1
 219 -390 l 1
 39 -390 l 1
 351 1076 l 1
 518 1076 l 1
 492 957 l 1
 510 975 621 1086 815 1086 c 0
 1103 1086 1175 867 1175 702 c 0
766 927 m 0
 514 927 401 599 401 421 c 0
 401 271 481 155 610 155 c 0
 890 155 1000 477 1000 669 c 0
 1000 828 920 927 766 927 c 0
EndSplineSet
EndChar

StartChar: q
Encoding: 113 113 85
Width: 1139
Flags: W
HStem: -10 165<446.937 719.443> 927 159<599.026 884.55>
VStem: 181 178<241.537 622.355>
DStem2: 745 -390 925 -390 0.207912 0.978148<37.4241 534.649 1379.73 1501.54>
LayerCount: 2
Fore
SplineSet
777 1086 m 0
 951 1086 1023 996 1044 957 c 1
 1070 1076 l 1
 1237 1076 l 1
 925 -390 l 1
 745 -390 l 1
 856 133 l 1
 760 38 653 -10 535 -10 c 0
 252 -10 181 209 181 370 c 0
 181 693 400 1086 777 1086 c 0
586 155 m 0
 785 155 961 409 961 681 c 0
 961 824 894 927 758 927 c 0
 512 927 359 656 359 406 c 0
 359 253 437 155 586 155 c 0
EndSplineSet
EndChar

StartChar: r
Encoding: 114 114 86
Width: 682
Flags: W
HStem: 0 21G<133 317.245> 900 177<597.62 853.637> 1042 20G<354.744 521>
DStem2: 133 0 313 0 0.207912 0.978148<37.4241 861.502 1001.78 1061.02 1062.02 1085.78>
LayerCount: 2
Fore
SplineSet
496 947 m 1xa0
 558 1031 675 1077 762 1077 c 0
 827 1077 883 1061 929 1028 c 1
 831 861 l 1
 793 887 752 900 709 900 c 0xc0
 560 900 474 756 431 556 c 2
 313 0 l 1
 133 0 l 1
 359 1062 l 1
 521 1062 l 1
 496 947 l 1xa0
EndSplineSet
EndChar

StartChar: s
Encoding: 115 115 87
Width: 1024
Flags: W
HStem: -11 162<378.072 731.121> 924 162<515.325 853.486>
VStem: 134 182<209.709 358> 253 191<687.745 859.735> 827 195<237.591 408.949> 891 181<764 884.817>
LayerCount: 2
Fore
SplineSet
573 473 m 0xe8
 419 501 253 538 253 721 c 0
 253 934 462 1086 715 1086 c 0
 1021 1086 1072 927 1072 821 c 0
 1072 803 1072 780 1067 764 c 1
 891 764 l 1
 891 769 891 774 891 779 c 0
 891 869 838 924 729 924 c 0
 504 924 444 837 444 767 c 0xd4
 444 686 491 676 654 644 c 0
 909 594 1022 546 1022 400 c 0
 1022 154 786 -11 515 -11 c 0
 190 -11 134 170 134 291 c 0
 134 313 136 335 139 358 c 1
 317 358 l 1
 316 350 316 342 316 335 c 0
 316 224 376 151 548 151 c 0
 704 151 827 231 827 331 c 0
 827 431 705 449 573 473 c 0xe8
EndSplineSet
EndChar

StartChar: t
Encoding: 116 116 88
Width: 569
Flags: W
HStem: -13 166<401.301 553.424> 922 140<244 364 573 693>
VStem: 211 187<83.5 407.102>
DStem2: 165.132 -13 344.257 -13 0.207912 0.978148<269.379 955.915 1136.31 1478.41>
LayerCount: 2
Fore
SplineSet
398 212 m 0
 398 168 442 153 482 153 c 0
 499 153 525 156 562 161 c 1
 554 2 l 1
 504 -8 455 -13 408 -13 c 0
 293 -13 211 19 211 148 c 0
 211 187 219 241 234 311 c 2
 364 922 l 1
 214 922 l 1
 244 1062 l 1
 394 1062 l 1
 473 1433 l 1
 652 1433 l 1
 573 1062 l 1
 723 1062 l 1
 693 922 l 1
 543 922 l 1
 411 301 l 2
 402 261 398 231 398 212 c 0
EndSplineSet
EndChar

StartChar: u
Encoding: 117 117 89
Width: 1139
Flags: W
HStem: -10 211<431.682 752.485> 1065 20G<330.75 515 1015.74 1200>
VStem: 179 194<260.413 473.847>
DStem2: 102.301 -10 281.886 -10 0.207912 0.978148<440.818 1119.45> 786.874 -10 966.874 -10 0.207912 0.978148<47.6475 75.7356 293.454 1119.54>
LayerCount: 2
Fore
SplineSet
373 382 m 0
 373 265 448 201 577 201 c 0
 747 201 850 286 886 456 c 2
 1020 1085 l 1
 1200 1085 l 1
 969 0 l 1
 789 0 l 1
 803 64 l 1
 750 17 665 -10 546 -10 c 0
 248 -10 179 144 179 296 c 0
 179 332 183 371 192 412 c 2
 335 1085 l 1
 515 1085 l 1
 382 461 l 2
 376 433 373 406 373 382 c 0
EndSplineSet
EndChar

StartChar: v
Encoding: 118 118 90
Width: 1024
Flags: W
HStem: 0 21G<425.667 610.808> 1042 20G<252 445.405 1024.42 1226>
DStem2: 442 1062 252 1062 0.164399 -0.986394<0 804.404> 577 269 599 0 0.508401 0.86112<0 916.225>
LayerCount: 2
Fore
SplineSet
429 0 m 1
 252 1062 l 1
 442 1062 l 1
 577 269 l 1
 1036 1062 l 1
 1226 1062 l 1
 599 0 l 1
 429 0 l 1
EndSplineSet
EndChar

StartChar: w
Encoding: 119 119 91
Width: 1479
Flags: W
HStem: 0 21G<329.136 528.669 973.641 1172.91> 1042 20G<232 419.422 864.245 1059.54 1504.37 1689>
DStem2: 418 1062 232 1062 0.0928179 -0.995683<0 817.861> 476 246 519 0 0.43838 0.89879<0 705.219> 1058 1062 914 817 0.0744562 -0.997224<233.598 818.426> 1121 246 1163 0 0.443835 0.896108<0 905.652>
LayerCount: 2
Fore
SplineSet
331 0 m 1
 232 1062 l 1
 418 1062 l 1
 476 246 l 1
 874 1062 l 1
 1058 1062 l 1
 1121 246 l 1
 1514 1062 l 1
 1689 1062 l 1
 1163 0 l 1
 975 0 l 1
 957 265 l 1
 930 623 916 807 914 817 c 1
 519 0 l 1
 331 0 l 1
EndSplineSet
EndChar

StartChar: x
Encoding: 120 120 92
Width: 1024
Flags: W
HStem: 0 21G<15 250.232 778.74 1009> 1042 20G<270 503.261 973.25 1207>
DStem2: 15 0 233 0 0.677042 0.735945<147.595 147.595 938.636 1443.04> 726 562 594 419 0.43839 -0.898785<70.6587 532.297>
LayerCount: 2
Fore
SplineSet
15 0 m 1
 513 552 l 1
 270 1062 l 1
 495 1062 l 1
 647 694 l 1
 992 1062 l 1
 1207 1062 l 1
 726 562 l 1
 1009 0 l 1
 788 0 l 1
 594 419 l 1
 233 0 l 1
 15 0 l 1
EndSplineSet
EndChar

StartChar: y
Encoding: 121 121 93
Width: 1024
Flags: W
HStem: -422 168<55.9653 314.994> 1042 20G<259 455.671 1040.76 1232>
VStem: 259 194<975.822 1062>
DStem2: 568 201 602 -1 0.509847 0.860265<0 987.454>
LayerCount: 2
Fore
SplineSet
40 -409 m 1
 56 -240 l 1
 88 -249 123 -254 160 -254 c 0
 371 -254 413 -86 436 -2 c 1
 259 1062 l 1
 453 1062 l 1
 568 201 l 1
 1052 1062 l 1
 1232 1062 l 1
 602 -1 l 1
 510 -339 315 -422 149 -422 c 0
 109 -422 68 -421 40 -409 c 1
EndSplineSet
EndChar

StartChar: z
Encoding: 122 122 94
Width: 1024
Flags: W
HStem: 0 155<295 980> 916 146<286 911>
DStem2: 73 155 295 155 0.744253 0.667897<165.224 1131.95>
LayerCount: 2
Fore
SplineSet
40 0 m 1
 73 155 l 1
 911 916 l 1
 255 916 l 1
 286 1062 l 1
 1174 1062 l 1
 1143 916 l 1
 295 155 l 1
 1013 155 l 1
 980 0 l 1
 40 0 l 1
EndSplineSet
EndChar

StartChar: braceleft
Encoding: 123 123 95
Width: 684
Flags: W
HStem: -431 157<413.089 544> 449 163<187 257.653> 1334 157<751.755 920>
VStem: 232 171<-260.778 60.9329> 310 168<8.25166 408.68>
LayerCount: 2
Fore
SplineSet
310 288 m 0xe8
 310 417 226 448 152 449 c 1
 187 612 l 1
 604 620 350 1365 771 1481 c 0
 797 1488 840 1491 897 1491 c 2
 953 1491 l 1
 920 1334 l 1
 889 1334 l 2
 729 1334 702 1268 673 1129 c 0
 587 723 553 625 337 530 c 1
 460 472 478 380 478 300 c 0xe8
 478 142 403 -89 403 -179 c 0
 403 -251 437 -274 547 -274 c 2
 578 -274 l 1
 544 -431 l 1
 488 -431 l 2
 430 -431 315 -437 260 -340 c 0
 242 -310 232 -273 232 -229 c 0xf0
 232 -101 310 172 310 288 c 0xe8
EndSplineSet
EndChar

StartChar: bar
Encoding: 124 124 96
Width: 532
Flags: W
VStem: 96 566
DStem2: 96 -431 253 -431 0.207912 0.978148<32.6421 1965.04>
LayerCount: 2
Fore
SplineSet
96 -431 m 1
 505 1491 l 1
 662 1491 l 1
 253 -431 l 1
 96 -431 l 1
EndSplineSet
EndChar

StartChar: braceright
Encoding: 125 125 97
Width: 684
Flags: W
HStem: -431 157<-11 167.559> 449 163<643.16 721> 1334 157<364 495.406>
VStem: 430 168<653.036 1052.7> 505 172<1003.94 1320.45>
LayerCount: 2
Fore
SplineSet
598 767 m 0xf0
 598 701 627 615 756 612 c 1
 721 449 l 1
 514 445 475 253 432 63 c 1
 385 -153 357 -358 138 -420 c 0
 111 -427 68 -431 11 -431 c 2
 -45 -431 l 1
 -11 -274 l 1
 20 -274 l 2
 179 -274 205 -210 236 -68 c 1
 297 224 327 436 572 530 c 1
 448 597 430 685 430 763 c 0xf0
 430 914 505 1150 505 1241 c 0
 505 1312 471 1334 362 1334 c 2
 331 1334 l 1
 364 1491 l 1
 420 1491 l 2
 487 1491 593 1494 649 1401 c 1
 667 1369 677 1331 677 1284 c 0xe8
 677 1168 598 890 598 767 c 0xf0
EndSplineSet
EndChar

StartChar: asciitilde
Encoding: 126 126 98
Width: 1196
Flags: W
HStem: 559 189<857.725 1145.34> 693 189<357.503 660.591>
LayerCount: 2
Fore
SplineSet
952 559 m 0x80
 755 559 656 693 495 693 c 0
 422 693 355 676 205 557 c 1
 249 762 l 1
 337 842 437 882 552 882 c 0x40
 746 882 875 748 1011 748 c 0
 1121 748 1243 836 1298 885 c 1
 1253 673 l 1
 1162 602 1072 559 952 559 c 0x80
EndSplineSet
EndChar

StartChar: exclamdown
Encoding: 161 161 100
Width: 680
Flags: W
HStem: 0 21G<228 455.689> 1059 20G<480.236 651> 1278 211<554 714>
VStem: 485 166<1018.81 1079>
DStem2: 238.353 0 442.353 0 0.207912 0.978148<44.4198 975.397 1348.97 1522.09>
LayerCount: 2
Fore
SplineSet
714 1278 m 1
 510 1278 l 1
 554 1489 l 1
 758 1489 l 1
 714 1278 l 1
452 0 m 1
 228 0 l 1
 485 1079 l 1
 651 1079 l 1
 452 0 l 1
EndSplineSet
EndChar

StartChar: cent
Encoding: 162 162 101
Width: 1118
Flags: W
HStem: 1 140<497.91 557 701 858.225> 977 139<908 1016.56> 1455 20G<866.722 985>
VStem: 213 194<235.009 652.351>
DStem2: 480 -361 594 -361 0.207912 0.978148<23.7019 371.077 536.979 1361.73 1533.71 1877.17>
LayerCount: 2
Fore
SplineSet
701 141 m 1
 841 153 977 248 1025 281 c 1
 1035 281 l 1
 993 83 l 1
 811 7 728 4 671 1 c 1
 594 -361 l 1
 480 -361 l 1
 557 2 l 1
 338 29 213 157 213 388 c 0
 213 698 401 1070 794 1115 c 1
 871 1475 l 1
 985 1475 l 1
 908 1116 l 1
 1024 1112 1124 1078 1195 1037 c 1
 1153 837 l 1
 1143 837 l 1
 1062 918 986 961 879 977 c 1
 701 141 l 1
763 971 m 1
 484 922 407 558 407 403 c 0
 407 258 475 166 588 146 c 1
 763 971 l 1
EndSplineSet
EndChar

StartChar: sterling
Encoding: 163 163 102
Width: 1118
Flags: W
HStem: 0 207<133 233.125> 0 171<297 1031> 613 138<290 421 643 977> 1264 206<1191.62 1270> 1351 167<855.662 1191.15>
DStem2: 290.703 0 482.669 0 0.207912 0.978148<406.75 626.695 807.836 1321.79>
LayerCount: 2
Fore
SplineSet
1260 1264 m 1x30
 1163 1341 1060 1351 1014 1351 c 0
 828 1351 741 1215 707 1052 c 2
 643 751 l 1
 1007 751 l 1
 977 613 l 1
 613 613 l 1
 600 552 l 2
 565 383 440 256 300 182 c 1
 297 171 l 1
 1067 171 l 1
 1031 0 l 1
 89 0 l 1x68
 133 207 l 1
 282 248 366 355 421 613 c 1
 260 613 l 1
 290 751 l 1
 451 751 l 1
 519 1071 l 2
 571 1318 763 1518 1031 1518 c 0xa8
 1096 1518 1155 1518 1313 1470 c 1
 1270 1264 l 1
 1260 1264 l 1x30
EndSplineSet
EndChar

StartChar: currency
Encoding: 164 164 103
Width: 1118
Flags: W
HStem: 326 138<547.42 786.665> 858 138<613.241 853.117>
VStem: 359 144<507.705 749.755> 897 147<572.318 815.508>
DStem2: 123 273 205 164 0.771268 0.636511<0 346.92 1038.92 1388.7> 418 1157 288 1051 0.61927 -0.785178<2.72372 280.421 850.292 1126.51>
LayerCount: 2
Fore
SplineSet
1044 729 m 0
 1044 632 994 541 946 486 c 1
 1115 272 l 1
 986 166 l 1
 817 378 l 1
 752 343 704 326 629 326 c 0
 564 326 503 351 466 379 c 1
 205 164 l 1
 123 273 l 1
 380 486 l 1
 366 520 359 563 359 595 c 0
 359 702 411 781 455 835 c 1
 288 1051 l 1
 418 1157 l 1
 587 944 l 1
 652 981 721 996 772 996 c 0
 846 996 904 967 937 945 c 1
 1194 1157 l 1
 1281 1052 l 1
 1021 836 l 1
 1038 796 1044 761 1044 729 c 0
659 464 m 0
 776 464 897 576 897 705 c 0
 897 788 837 858 742 858 c 0
 625 858 503 745 503 619 c 0
 503 536 562 464 659 464 c 0
EndSplineSet
EndChar

StartChar: yen
Encoding: 165 165 104
Width: 1118
Flags: W
HStem: 0 21G<465 657.273> 440 138<248 559 774 1087>
DStem2: 582 1489 372 1489 0.271817 -0.962349<0 658.16> 465 0 653 0 0.207912 0.978148<39.0874 449.929 629.614 672.166> 741 850 795 678 0.581712 0.813394<0 771.641>
LayerCount: 2
Fore
SplineSet
1375 1489 m 1
 795 678 l 1
 774 578 l 1
 1116 578 l 1
 1087 440 l 1
 747 440 l 1
 653 0 l 1
 465 0 l 1
 559 440 l 1
 219 440 l 1
 248 578 l 1
 590 578 l 1
 607 657 l 1
 372 1489 l 1
 582 1489 l 1
 741 850 l 1
 1174 1489 l 1
 1375 1489 l 1
EndSplineSet
EndChar

StartChar: brokenbar
Encoding: 166 166 105
Width: 783
Flags: W
VStem: 225 581
DStem2: 225 -392 392 -392 0.207912 0.978148<34.7213 815.699 1210.32 1991.51>
LayerCount: 2
Fore
SplineSet
636 758 m 1
 469 758 l 1
 639 1556 l 1
 806 1556 l 1
 636 758 l 1
392 -392 m 1
 225 -392 l 1
 394 406 l 1
 561 406 l 1
 392 -392 l 1
EndSplineSet
EndChar

StartChar: section
Encoding: 167 167 106
Width: 1118
Flags: W
HStem: -385 165<241.807 659.951> -327 194<144 242.488> 1268 194<1115.33 1216> 1355 164<699.972 1119.22>
VStem: 223 202<419.418 629.904> 384 200<1033.39 1247.4> 774 201<-106.434 103.713> 934 201<501.511 711.965>
DStem2: 570 369 501 192 0.949835 -0.312751<-150.899 205.383>
LayerCount: 2
Fore
SplineSet
734 315 m 1x09
 802 351 934 455 934 610 c 0
 934 722 844 751 716 788 c 1
 624 819 l 1
 509 758 425 641 425 522 c 0
 425 442 469 402 570 369 c 2
 734 315 l 1x09
975 67 m 0x12
 975 -105 828 -385 408 -385 c 0x92
 286 -385 187 -361 102 -327 c 1
 144 -133 l 1
 154 -133 l 1x42
 214 -169 328 -220 462 -220 c 0
 619 -220 774 -151 774 14 c 0
 774 51 766 111 627 154 c 1
 501 192 l 2
 349 238 223 297 223 455 c 0x8a
 223 616 329 764 500 858 c 1
 502 865 l 1
 460 891 384 948 384 1072 c 0
 384 1251 534 1519 951 1519 c 0x94
 1012 1519 1114 1517 1257 1462 c 1
 1216 1268 l 1
 1206 1268 l 1x24
 1123 1314 1029 1355 895 1355 c 0
 773 1355 584 1309 584 1124 c 0
 584 897 1135 1010 1135 680 c 0x15
 1135 519 1033 370 858 277 c 1
 856 270 l 1
 923 230 975 173 975 67 c 0x12
EndSplineSet
EndChar

StartChar: dieresis
Encoding: 168 168 107
Width: 1118
Flags: W
HStem: 1304 195<572 731 985 1144>
VStem: 530 656
LayerCount: 2
Fore
SplineSet
1144 1304 m 1
 943 1304 l 1
 985 1499 l 1
 1186 1499 l 1
 1144 1304 l 1
731 1304 m 1
 530 1304 l 1
 572 1499 l 1
 773 1499 l 1
 731 1304 l 1
EndSplineSet
EndChar

StartChar: copyright
Encoding: 169 169 108
Width: 1902
Flags: W
HStem: -210 110<686.808 1192.4> 180 147<910.427 1236.41> 996 147<1037.17 1361.05> 1409 110<984.458 1499>
VStem: 204 120<259.47 741.956> 654 188<398.35 756.226> 1859 117<577.23 1050.61>
LayerCount: 2
Fore
SplineSet
1976 845 m 0
 1976 735 1952 355 1571 44 c 1
 1367 -126 1145 -210 906 -210 c 0
 667 -210 481 -126 349 44 c 1
 252 166 204 306 204 465 c 0
 204 578 228 953 609 1266 c 1
 813 1435 1035 1519 1274 1519 c 0
 1513 1519 1699 1435 1831 1266 c 1
 1928 1144 1976 1004 1976 845 c 0
931 -100 m 0
 1414 -100 1859 342 1859 823 c 0
 1859 961 1817 1083 1735 1188 c 0
 1619 1336 1458 1409 1251 1409 c 0
 1044 1409 853 1336 675 1188 c 1
 343 916 324 582 324 488 c 0
 324 350 365 227 448 121 c 0
 563 -26 724 -100 931 -100 c 0
1056 327 m 0
 1194 327 1329 418 1350 434 c 1
 1366 434 l 1
 1328 255 l 1
 1180 194 1115 180 1020 180 c 0
 795 180 654 293 654 513 c 0
 654 762 812 1143 1225 1143 c 0
 1335 1143 1430 1110 1501 1070 c 1
 1463 889 l 1
 1447 889 l 1
 1397 941 1301 996 1198 996 c 0
 913 996 842 680 842 544 c 0
 842 439 885 327 1056 327 c 0
EndSplineSet
EndChar

StartChar: ordfeminine
Encoding: 170 170 109
Width: 1010
Flags: W
HStem: 541 155<482.542 725.12> 1045 139<616.085 930> 1365 154<533.919 946.265>
VStem: 284 177<721.044 934.071> 970 169<1184 1333.28>
DStem2: 822.686 541 988.686 541 0.207912 0.978148<60.0719 118.728 223.464 515.298 645.764 726.812>
LayerCount: 2
Fore
SplineSet
806 1519 m 0
 1052 1519 1139 1427 1139 1290 c 0
 1139 1261 1135 1229 1128 1194 c 2
 994 566 l 1
 828 566 l 1
 848 657 l 1
 788 599 635 541 519 541 c 0
 362 541 284 647 284 767 c 0
 284 857 323 1029 516 1112 c 0
 596 1147 711 1172 960 1184 c 1
 964 1204 970 1227 970 1254 c 0
 970 1343 897 1365 772 1365 c 0
 714 1365 655 1360 481 1304 c 1
 466 1304 l 1
 502 1474 l 1
 531 1482 684 1519 806 1519 c 0
461 808 m 0
 461 725 523 696 609 696 c 0
 652 696 736 701 878 802 c 1
 930 1045 l 1
 696 1028 461 1020 461 808 c 0
EndSplineSet
EndChar

StartChar: guillemotleft
Encoding: 171 171 110
Width: 1174
Flags: W
HStem: 1122 20G<828.809 851.714>
DStem2: 421 652 232 608 0.681206 -0.732092<0 397.798> 251 697 421 652 0.805558 0.592518<110.281 601.066> 865 652 685 610 0.689612 -0.724179<0 376.31> 703 695 865 652 0.809827 0.586669<105.965 569.811>
LayerCount: 2
Fore
SplineSet
1084 191 m 1
 685 610 l 1
 703 695 l 1
 1280 1113 l 1
 1240 925 l 1
 865 652 l 1
 1124 379 l 1
 1084 191 l 1
647 162 m 1
 232 608 l 1
 251 697 l 1
 856 1142 l 1
 814 946 l 1
 421 652 l 1
 689 358 l 1
 647 162 l 1
EndSplineSet
EndChar

StartChar: logicalnot
Encoding: 172 172 111
Width: 1490
Flags: W
HStem: 602 160<319 1280>
DStem2: 1164 57 1335 57 0.207912 0.978148<35.5529 557.208>
LayerCount: 2
Fore
SplineSet
1335 57 m 1
 1164 57 l 1
 1280 602 l 1
 285 602 l 1
 319 762 l 1
 1485 762 l 1
 1335 57 l 1
EndSplineSet
EndChar

StartChar: registered
Encoding: 174 174 113
Width: 1902
Flags: W
HStem: -210 110<686.808 1192.4> 570 126<963 1059> 1005 125<1029 1289.62> 1409 110<984.458 1499>
VStem: 204 120<259.47 741.956> 1309 188<784.901 986.999> 1859 117<577.23 1050.61>
DStem2: 605.663 -210 770.663 -210 0.207912 0.978148<468.8 831.636 960.496 1276.47> 1233 615 1059 570 0.546459 -0.837486<0 353.574>
LayerCount: 2
Fore
SplineSet
1976 845 m 0
 1976 735 1952 355 1571 44 c 1
 1367 -126 1145 -210 906 -210 c 0
 667 -210 481 -126 349 44 c 1
 252 166 204 306 204 465 c 0
 204 578 228 953 609 1266 c 1
 813 1435 1035 1519 1274 1519 c 0
 1513 1519 1699 1435 1831 1266 c 1
 1928 1144 1976 1004 1976 845 c 0
931 -100 m 0
 1414 -100 1859 342 1859 823 c 0
 1859 961 1817 1083 1735 1188 c 0
 1619 1336 1458 1409 1251 1409 c 0
 1044 1409 853 1336 675 1188 c 1
 343 916 324 582 324 488 c 0
 324 350 365 227 448 121 c 0
 563 -26 724 -100 931 -100 c 0
1497 946 m 0
 1497 814 1420 685 1233 615 c 1
 1494 215 l 1
 1267 215 l 1
 1059 570 l 1
 936 570 l 1
 861 215 l 1
 696 215 l 1
 890 1130 l 1
 1169 1130 l 2
 1390 1130 1497 1080 1497 946 c 0
1061 696 m 2
 1286 696 1309 852 1309 906 c 0
 1309 990 1245 1005 1144 1005 c 2
 1029 1005 l 1
 963 696 l 1
 1061 696 l 2
EndSplineSet
EndChar

StartChar: macron
Encoding: 175 175 114
Width: 1118
Flags: W
HStem: 1659 130<364 1487>
LayerCount: 2
Fore
SplineSet
1487 1659 m 1
 337 1659 l 1
 364 1789 l 1
 1514 1789 l 1
 1487 1659 l 1
EndSplineSet
EndChar

StartChar: degree
Encoding: 176 176 115
Width: 964
Flags: W
HStem: 755 152<551.33 816.235> 1363 152<629.256 895.403>
VStem: 332 161<966.326 1224.41> 953 161<1045.21 1306.01>
LayerCount: 2
Fore
SplineSet
1114 1222 m 0
 1114 982 899 755 642 755 c 0
 434 755 332 903 332 1048 c 0
 332 1286 546 1515 804 1515 c 0
 1010 1515 1114 1371 1114 1222 c 0
675 907 m 0
 828 907 953 1046 953 1189 c 0
 953 1265 905 1363 772 1363 c 0
 616 1363 493 1223 493 1083 c 0
 493 988 561 907 675 907 c 0
EndSplineSet
EndChar

StartChar: plusminus
Encoding: 177 177 116
Width: 1490
Flags: W
HStem: 159 158<229 729 895 1362> 739 158<353 819 1019 1485>
DStem2: 695.416 159 861.416 159 0.207912 0.978148<196.043 593.02 789.15 1270.85>
LayerCount: 2
Fore
SplineSet
1362 159 m 1
 196 159 l 1
 229 317 l 1
 729 317 l 1
 819 739 l 1
 319 739 l 1
 353 897 l 1
 853 897 l 1
 960 1402 l 1
 1126 1402 l 1
 1019 897 l 1
 1519 897 l 1
 1485 739 l 1
 985 739 l 1
 895 317 l 1
 1395 317 l 1
 1362 159 l 1
EndSplineSet
EndChar

StartChar: uni00B2
Encoding: 178 178 117
Width: 1010
Flags: W
HStem: 566 144<524 986> 1371 148<568.191 863.699>
VStem: 884 190<1134.83 1348.48>
DStem2: 338 718 666 802 0.83205 0.5547<150.324 609.134>
LayerCount: 2
Fore
SplineSet
804 1519 m 0
 1028 1519 1074 1391 1074 1305 c 0
 1074 1087 865 931 666 802 c 2
 524 710 l 1
 1017 710 l 1
 986 566 l 1
 305 566 l 1
 338 718 l 1
 509 832 l 1
 654 927 775 1035 817 1088 c 0
 867 1151 884 1234 884 1265 c 0
 884 1340 826 1371 748 1371 c 0
 638 1371 516 1305 478 1279 c 1
 463 1279 l 1
 501 1458 l 1
 584 1490 697 1519 804 1519 c 0
EndSplineSet
EndChar

StartChar: uni00B3
Encoding: 179 179 118
Width: 1010
Flags: W
HStem: 542 139<433.752 771.828> 600 175<349 421.85> 968 139<569 826.747> 1380 139<583.665 891.989>
VStem: 845 174<751.268 944.502> 910 181<1185.48 1358.95>
LayerCount: 2
Fore
SplineSet
1019 881 m 0xb8
 1019 751 909 542 589 542 c 0xb8
 484 542 388 562 312 600 c 1
 349 775 l 1
 366 775 l 1x78
 397 740 489 681 616 681 c 0
 752 681 845 754 845 864 c 0xb8
 845 926 810 968 680 968 c 2
 540 968 l 1
 569 1107 l 1
 694 1107 l 2
 860 1107 910 1211 910 1281 c 0
 910 1340 869 1380 765 1380 c 0
 670 1380 546 1326 489 1283 c 1
 472 1283 l 1
 509 1458 l 1
 596 1491 702 1519 815 1519 c 0
 1038 1519 1091 1401 1091 1325 c 0xb4
 1091 1219 1015 1102 864 1055 c 1
 863 1047 l 1
 934 1031 1019 981 1019 881 c 0xb8
EndSplineSet
EndChar

StartChar: acute
Encoding: 180 180 119
Width: 1118
Flags: W
HStem: 1302 374
VStem: 726 501
LayerCount: 2
Fore
SplineSet
1227 1676 m 1
 875 1302 l 1
 726 1302 l 1
 984 1676 l 1
 1227 1676 l 1
EndSplineSet
EndChar

StartChar: mu
Encoding: 181 181 120
Width: 1163
Flags: W
HStem: -17 181<446.288 748.358> 0 21G<855 1031.24>
DStem2: 48 -412 236 -412 0.207912 0.978148<39.0874 577.857 705.92 1563.16> 767.427 -412 939.427 -412 0.207912 0.978148<456.965 539.867 662.825 1559.74>
LayerCount: 2
Fore
SplineSet
382 275 m 1x80
 452 165 575 164 613 164 c 0x80
 727 164 813 200 897 275 c 1
 1076 1117 l 1
 1264 1117 l 1
 1027 0 l 1
 855 0 l 1x40
 880 116 l 1
 874 116 l 1
 734 -4 652 -17 574 -17 c 0
 470 -17 421 12 348 115 c 1
 236 -412 l 1
 48 -412 l 1
 373 1117 l 1
 561 1117 l 1
 382 275 l 1x80
EndSplineSet
EndChar

StartChar: paragraph
Encoding: 182 182 121
Width: 1118
Flags: W
HStem: 1359 130<944 1131>
DStem2: 438 -363 578 -363 0.207912 0.978148<29.1076 977.315> 765 -363 905 -363 0.207912 0.978148<29.1076 1760.47>
LayerCount: 2
Fore
SplineSet
267 934 m 0
 267 1132 389 1489 876 1489 c 2
 1298 1489 l 1
 905 -363 l 1
 765 -363 l 1
 1131 1359 l 1
 944 1359 l 1
 578 -363 l 1
 438 -363 l 1
 641 593 l 1
 402 598 267 735 267 934 c 0
EndSplineSet
EndChar

StartChar: periodcentered
Encoding: 183 183 122
Width: 724
Flags: W
HStem: 832 285<480 659>
VStem: 420 299
LayerCount: 2
Fore
SplineSet
659 832 m 1
 420 832 l 1
 480 1117 l 1
 719 1117 l 1
 659 832 l 1
EndSplineSet
EndChar

StartChar: cedilla
Encoding: 184 184 123
Width: 1118
Flags: W
HStem: -423 150<235.8 529.981> -399 160<238 375.15>
VStem: 614 157<-171.546 20>
LayerCount: 2
Fore
SplineSet
382 -273 m 0xa0
 568 -273 585 -167 614 20 c 1
 771 20 l 1
 747 -272 584 -423 376 -423 c 0xa0
 359 -423 269 -420 204 -399 c 1
 238 -239 l 1
 247 -239 l 1x60
 284 -256 328 -273 382 -273 c 0xa0
EndSplineSet
EndChar

StartChar: uni0E01
Encoding: 3585 3585 124
Width: 1240
Flags: W
HStem: 0 21G<188 352.266 922 1086.26> 1001 148<644.383 988.684>
VStem: 1074 168<543.805 917.338>
DStem2: 188 0 348 0 0.207912 0.978148<33.2659 584.417> 922 0 1082 0 0.207912 0.978148<33.2659 778.369>
LayerCount: 2
Fore
SplineSet
1225 671 m 2
 1082 0 l 1
 922 0 l 1
 1061 655 l 2
 1070 695 1074 732 1074 765 c 0
 1074 920 985 1001 837 1001 c 0
 699 1001 578 944 471 823 c 1
 550 802 602 748 626 661 c 1
 521 596 453 496 425 361 c 2
 348 0 l 1
 188 0 l 1
 265 361 l 2
 293 492 357 595 458 669 c 1
 425 738 367 778 286 790 c 1
 433 1026 628 1149 868 1149 c 0
 1121 1149 1242 1027 1242 818 c 0
 1242 773 1236 724 1225 671 c 2
EndSplineSet
EndChar

StartChar: uni0E02
Encoding: 3586 3586 125
Width: 1400
Flags: W
HStem: 0 148<738 1088> 545 113<383.92 532.348> 823 102<520 548.736> 1001 148<547.673 805.104>
VStem: 255 126<661.124 804.911> 552 112<676.35 820.23> 853 158<760.933 954.686>
DStem2: 547 0 706.542 0 0.207912 0.978148<184.477 727.395> 1056.54 0 1217 0 0.207912 0.978148<151.306 1164.52>
LayerCount: 2
Fore
SplineSet
488 823 m 0
 393 823 381 744 381 716 c 0
 381 681 402 658 447 658 c 0
 531 658 552 729 552 762 c 0
 552 799 529 823 488 823 c 0
255 708 m 0
 255 905 425 1149 704 1149 c 0
 842 1149 1011 1094 1011 881 c 0
 1011 848 1007 812 998 771 c 1
 904 718 846 654 829 575 c 2
 738 148 l 1
 1088 148 l 1
 1299 1139 l 1
 1459 1139 l 1
 1217 0 l 1
 547 0 l 1
 669 575 l 2
 687 658 752 730 847 783 c 1
 851 801 853 820 853 840 c 0
 853 919 813 1001 669 1001 c 0
 602 1001 552 973 520 925 c 1
 612 925 664 880 664 806 c 0
 664 652 559 545 414 545 c 0
 308 545 255 603 255 708 c 0
EndSplineSet
EndChar

StartChar: uni0E03
Encoding: 3587 3587 126
Width: 1450
Flags: W
HStem: 0 148<815 1165> 507 116<387.95 529.994> 790 104<446.898 548.65> 1130 9G<462 604 876.358 956.5 1371.74 1536>
VStem: 253 133<625.659 771.309> 551 112<644.235 787.55> 932 159<791.51 961.361>
DStem2: 624 0 783.542 0 0.207912 0.978148<184.477 742.378> 1133.54 0 1294 0 0.207912 0.978148<151.306 1164.52>
LayerCount: 2
Fore
SplineSet
490 790 m 0
 404 790 386 716 386 682 c 0
 386 646 409 623 454 623 c 0
 512 623 551 685 551 731 c 0
 551 764 531 790 490 790 c 0
663 776 m 0
 663 701 614 507 411 507 c 0
 312 507 253 562 253 661 c 0
 253 754 320 1041 604 1150 c 1
 604 1149 650 1113 740 1041 c 1
 907 1150 l 1
 1006 1133 1091 1008 1091 872 c 0
 1091 842 1086 808 1077 783 c 1
 979 721 923 656 909 587 c 2
 815 148 l 1
 1165 148 l 1
 1376 1139 l 1
 1536 1139 l 1
 1294 0 l 1
 624 0 l 1
 749 587 l 2
 766 670 824 738 926 798 c 1
 930 816 932 832 932 848 c 0
 932 901 912 945 871 979 c 1
 871 978 816 946 706 881 c 1
 568 979 l 1
 533 958 507 927 489 886 c 1
 506 892 521 894 537 894 c 0
 615 894 663 853 663 776 c 0
EndSplineSet
EndChar

StartChar: uni0E04
Encoding: 3588 3588 127
Width: 1370
Flags: W
HStem: 0 21G<245 492.5 1035 1199.24> 342 118<771.051 917.526> 625 121<788.724 937.367> 1001 148<692.653 1079.82>
VStem: 284 149<257.766 693.26> 939 105<479.482 622.372> 1184 166<523.445 900.352>
DStem2: 1035 0 1195 0 0.207912 0.978148<33.2659 764.099>
LayerCount: 2
Fore
SplineSet
284 453 m 0
 284 978 593 1149 920 1149 c 0
 1205 1149 1350 1027 1350 799 c 0
 1350 754 1344 704 1333 651 c 2
 1195 0 l 1
 1035 0 l 1
 1173 650 l 2
 1181 686 1184 719 1184 751 c 0
 1184 905 1091 1001 894 1001 c 0
 655 1001 507 863 461 646 c 0
 441 551 433 447 433 334 c 0
 433 308 433 282 434 256 c 1
 592 700 810 746 879 746 c 0
 1007 746 1044 681 1044 608 c 0
 1044 485 952 342 807 342 c 0
 746 342 693 372 679 424 c 1
 604 319 530 177 455 0 c 1
 245 0 l 1
 268 108 l 2
 283 180 287 243 287 304 c 0
 287 353 284 402 284 453 c 0
876 625 m 0
 790 625 769 555 769 522 c 0
 769 484 792 460 835 460 c 0
 900 460 939 514 939 565 c 0
 939 599 919 625 876 625 c 0
EndSplineSet
EndChar

StartChar: uni0E05
Encoding: 3589 3589 128
Width: 1370
Flags: W
HStem: 0 21G<235 482.5 1025 1189.27> 342 118<761.087 910.087> 625 121<780.323 926.402> 1129 20G<625 770.793 1054.6 1171.5>
VStem: 929 105<477.682 622.547> 1177 166<536.656 912.415>
DStem2: 1025 0 1185 0 0.207912 0.978148<33.2659 779.393>
LayerCount: 2
Fore
SplineSet
1034 606 m 0
 1034 481 939 342 797 342 c 0
 736 342 683 371 669 424 c 1
 594 319 520 177 445 0 c 1
 235 0 l 1
 258 108 l 2
 289 255 256 484 298 683 c 0
 352 938 504 1094 746 1149 c 1
 896 1028 l 1
 1086 1149 l 1
 1257 1103 1343 990 1343 812 c 0
 1343 766 1337 716 1326 661 c 2
 1185 0 l 1
 1025 0 l 1
 1165 660 l 2
 1173 698 1177 734 1177 766 c 0
 1177 872 1132 944 1042 981 c 1
 866 868 l 1
 728 981 l 1
 490 902 423 687 423 329 c 0
 423 305 423 280 424 256 c 1
 583 703 803 746 871 746 c 0
 977 746 1034 695 1034 606 c 0
866 625 m 0
 811 625 759 581 759 523 c 0
 759 485 783 460 825 460 c 0
 894 460 929 515 929 564 c 0
 929 600 907 625 866 625 c 0
EndSplineSet
EndChar

StartChar: uni0E06
Encoding: 3590 3590 129
Width: 1520
Flags: W
HStem: -10 119<582.758 674.153> 328 118<630.793 714> 508 112<394.421 540.128> 789 99<464.5 557.928> 1129 10G<476.5 640.185 887.074 978 1442.75 1607>
VStem: 266 126<622.577 767.776> 473 108<110.843 278.511> 561 113<640.379 785.843> 939 159<783.804 967.322>
DStem2: 641.59 -10 793.223 -10 0.207912 0.978148<115.061 290.178 459.828 774.28> 882 409 847 243 0.827399 -0.561614<64.269 432.681> 1202.59 -10 1362.87 -10 0.207912 0.978148<179.932 1174.71>
LayerCount: 2
Fore
SplineSet
496 789 m 0xfd80
 433 789 392 741 392 685 c 0
 392 649 410 620 456 620 c 0
 540 620 561 702 561 729 c 0
 561 760 542 789 496 789 c 0xfd80
674 755 m 0
 674 685 627 508 433 508 c 0
 324 508 266 571 266 679 c 0
 266 798 338 1041 615 1149 c 1
 751 1041 l 1
 918 1149 l 1
 1038 1089 1098 998 1098 876 c 0
 1098 847 1095 816 1088 783 c 1
 992 728 936 663 920 587 c 2
 882 409 l 1
 1240 166 l 1
 1447 1139 l 1
 1607 1139 l 1
 1365 0 l 1
 1205 0 l 1
 847 243 l 1
 826 146 l 2
 804 42 738 -10 630 -10 c 0
 533 -10 473 57 473 157 c 0xfe80
 473 290 576 446 730 446 c 1
 760 587 l 2
 777 668 835 743 933 814 c 1
 937 831 939 848 939 863 c 0
 939 912 919 951 882 979 c 1
 717 881 l 1
 579 979 l 1
 546 961 520 930 500 886 c 1
 511 887 521 888 531 888 c 0
 611 888 674 840 674 755 c 0
714 328 m 1
 646 328 581 246 581 169 c 0
 581 129 601 109 623 109 c 0
 646 109 671 128 679 166 c 2
 714 328 l 1
EndSplineSet
EndChar

StartChar: uni0E07
Encoding: 3591 3591 130
Width: 1000
Flags: W
HStem: -10 149<474.559 704.326> 741 113<740.238 858.257> 1021 129<756.331 904.478>
VStem: 285 161<172.203 601.728> 298 164<310.272 640> 631 106<857.838 1002.29> 906 147<878.202 1016.46>
DStem2: 693.059 -10 853.059 -10 0.207912 0.978148<170.675 797.456>
LayerCount: 2
Fore
SplineSet
631 874 m 0xf6
 631 1017 737 1150 895 1150 c 0
 998 1150 1053 1087 1053 975 c 0
 1053 947 1049 915 1042 881 c 2
 913 272 l 2
 873 85 752 -10 551 -10 c 0
 374 -10 285 82 285 266 c 2
 285 272 l 1xf6
 298 719 l 1
 462 640 l 1xee
 446 272 l 1
 450 187 494 139 583 139 c 0
 678 139 735 188 753 272 c 2
 859 770 l 1
 839 751 806 741 763 741 c 0
 678 741 631 790 631 874 c 0xf6
840 1021 m 0
 773 1021 737 968 737 921 c 0
 737 884 761 854 802 854 c 0
 870 854 906 920 906 962 c 0
 906 998 879 1021 840 1021 c 0
EndSplineSet
EndChar

StartChar: uni0E08
Encoding: 3592 3592 131
Width: 1200
Flags: W
HStem: -10 148<692.338 880.565> 345 110<435.234 547.566> 623 130<450.272 597.616> 1001 148<589.251 943.53>
VStem: 323 109<456.03 604.448> 518 165<149.577 372.023> 601 147<475.202 618.546> 1028 169<587.148 918.747>
DStem2: 865.571 -10 1025.57 -10 0.207912 0.978148<167.549 811.366>
LayerCount: 2
Fore
SplineSet
323 488 m 0xfd
 323 599 406 753 586 753 c 0
 694 753 748 701 748 598 c 0xfb
 748 573 745 544 738 512 c 2
 689 283 l 2
 685 264 683 246 683 231 c 0
 683 170 714 138 777 138 c 0
 857 138 908 187 927 279 c 2
 1020 715 l 2
 1025 740 1028 764 1028 786 c 0
 1028 917 940 1001 786 1001 c 0
 637 1001 496 944 365 843 c 1
 290 912 l 1
 459 1067 635 1149 817 1149 c 0
 1062 1149 1197 1043 1197 849 c 0
 1197 815 1193 779 1185 740 c 2
 1087 279 l 2
 1046 87 933 -10 746 -10 c 0
 594 -10 518 56 518 187 c 0
 518 215 522 248 529 283 c 2
 548 373 l 1
 533 357 505 345 466 345 c 0
 383 345 323 398 323 488 c 0xfd
535 623 m 0
 473 623 432 574 432 521 c 0
 432 485 452 455 488 455 c 0
 588 455 601 543 601 563 c 0
 601 597 577 623 535 623 c 0
EndSplineSet
EndChar

StartChar: uni0E09
Encoding: 3593 3593 132
Width: 1395
Flags: W
HStem: -10 113<1076.51 1220.96> 328 118<1199 1235.98> 362 111<370.062 481.383> 641 130<382.584 531.399> 1001 148<659.925 1021.93>
VStem: 260 106<474.296 623.554> 535 143<494.639 638.077> 981 145<107.067 219.225> 1105 168<584.859 924.122> 1245 113<119.175 315.994>
DStem2: 596 176 559 0 0.88151 0.472165<0 374.04> 942.624 -10 1092.72 -10 0.207912 0.978148<186.011 242.295 499.339 816.199>
AnchorPoint: "AboveBase" 1344 1227 basechar 0
LayerCount: 2
Fore
SplineSet
1358 280 m 0xde40
 1358 178 1306 -10 1101 -10 c 0
 1027 -10 981 31 981 129 c 0xdf40
 981 157 985 189 993 227 c 1
 559 0 l 1
 399 0 l 1
 482 391 l 1
 459 369 437 362 401 362 c 0
 306 362 260 418 260 506 c 0
 260 654 359 771 520 771 c 0
 626 771 678 713 678 604 c 0
 678 574 674 540 666 502 c 2
 596 176 l 1
 1031 409 l 1
 1096 715 l 2
 1102 742 1105 768 1105 791 c 0
 1105 921 1019 1001 847 1001 c 0
 714 1001 578 945 441 843 c 1
 366 912 l 1
 536 1069 707 1149 878 1149 c 0
 1137 1149 1273 1043 1273 849 c 0xbe80
 1273 815 1269 779 1261 740 c 2
 1199 446 l 1
 1304 434 1358 379 1358 280 c 0xde40
1165 103 m 0
 1214 103 1245 187 1245 242 c 0
 1245 292 1218 319 1165 328 c 1
 1128 156 l 2
 1127 150 1126 145 1126 141 c 0
 1126 116 1141 103 1165 103 c 0
469 641 m 0
 386 641 366 572 366 539 c 0
 366 503 387 473 422 473 c 0xbe
 522 473 535 562 535 581 c 0
 535 618 507 641 469 641 c 0
EndSplineSet
EndChar

StartChar: uni0E0A
Encoding: 3594 3594 133
Width: 1390
Flags: W
HStem: 0 148<773 1079> 545 113<420.92 570.228> 823 102<557 585.476> 1001 148<588.667 823.818>
VStem: 292 126<661.124 807.053> 589 112<677.561 819.756> 1173 165<404.125 706.117> 1384 166<1072.64 1188>
DStem2: 582 0 741.542 0 0.207912 0.978148<184.477 733.435> 1047.54 0 1208 0 0.207912 0.978148<151.306 611.674>
LayerCount: 2
Fore
SplineSet
292 708 m 0
 292 890 441 1149 741 1149 c 0
 892 1149 997 1072 1037 921 c 1
 1245 972 1361 1052 1384 1163 c 1
 1390 1188 l 1
 1556 1188 l 1
 1550 1161 l 1
 1520 1020 1390 905 1197 858 c 1
 1284 818 1338 725 1338 635 c 0
 1338 619 1336 604 1333 589 c 2
 1208 0 l 1
 582 0 l 1
 704 575 l 2
 721 655 779 726 879 789 c 1
 879 917 819 1001 725 1001 c 0
 658 1001 588 968 557 925 c 1
 648 925 701 885 701 808 c 0
 701 656 600 545 451 545 c 0
 345 545 292 603 292 708 c 0
864 572 m 2
 773 148 l 1
 1079 148 l 1
 1171 578 l 2
 1172 585 1173 592 1173 599 c 0
 1173 663 1120 741 1033 768 c 1
 938 715 880 650 864 572 c 2
525 823 m 0
 430 823 418 744 418 716 c 0
 418 681 439 658 484 658 c 0
 568 658 589 729 589 762 c 0
 589 799 566 823 525 823 c 0
EndSplineSet
EndChar

StartChar: uni0E0B
Encoding: 3595 3595 134
Width: 1390
Flags: W
HStem: 0 148<778 1084> 507 116<349.584 497.512> 790 104<423.398 516.455> 1130 20G<432 575 845.725 923.5>
VStem: 219 128<627.892 766.018> 519 111<643.068 786.873> 1179 165<527.214 708.908> 1388 166<1070.1 1188>
DStem2: 587 0 746.542 0 0.207912 0.978148<184.477 718.788> 1052.54 0 1213 0 0.207912 0.978148<151.306 620.593>
LayerCount: 2
Fore
SplineSet
458 790 m 0
 389 790 347 735 347 685 c 0
 347 648 375 623 422 623 c 0
 480 623 519 685 519 731 c 0
 519 764 499 790 458 790 c 0
630 771 m 0
 630 698 580 507 379 507 c 0
 287 507 219 577 219 677 c 0
 219 761 289 1041 575 1150 c 1
 575 1149 621 1113 711 1041 c 1
 876 1150 l 1
 971 1116 1026 1039 1041 921 c 1
 1245 957 1362 1040 1388 1163 c 1
 1394 1188 l 1
 1560 1188 l 1
 1554 1164 l 1
 1525 1024 1394 908 1201 861 c 1
 1289 821 1344 728 1344 637 c 0
 1344 622 1342 607 1339 592 c 2
 1213 0 l 1
 587 0 l 1
 709 575 l 2
 724 646 783 713 883 776 c 1
 889 807 893 834 893 858 c 0
 893 907 878 945 840 979 c 1
 677 881 l 1
 536 979 l 1
 501 958 475 927 457 886 c 1
 474 892 489 894 505 894 c 0
 580 894 630 849 630 771 c 0
1176 581 m 2
 1178 590 1179 599 1179 608 c 0
 1179 678 1123 744 1037 771 c 1
 942 718 886 653 869 575 c 2
 778 148 l 1
 1084 148 l 1
 1176 581 l 2
EndSplineSet
EndChar

StartChar: uni0E0C
Encoding: 3596 3596 135
Width: 1750
Flags: W
HStem: -11 116<375.991 518.03 872.129 964.249> 273 124<430.101 538.598> 328 118<911.712 1004> 1001 148<643.11 1001.47>
VStem: 234 138<107.824 254.177> 541 115<126.929 308.599> 760 110<110.474 286.709> 1079 167<548.727 927.3>
DStem2: 932.102 -11 1083.01 -11 0.207912 0.978148<116.342 291.05 460.7 800.645> 1172 409 1137 243 0.827399 -0.561614<64.269 428.72> 1492.25 -11 1652.66 -11 0.207912 0.978148<191.178 1175.76>
LayerCount: 2
Fore
SplineSet
1065 657 m 2xbf
 1074 701 1079 742 1079 778 c 0
 1079 922 1003 1001 841 1001 c 0
 695 1001 573 940 475 825 c 1
 551 808 602 754 630 663 c 1
 523 592 458 505 437 403 c 1
 429 369 l 1
 449 387 476 397 511 397 c 0xdf
 613 397 656 347 656 270 c 0
 656 83 533 -11 392 -11 c 0
 286 -11 234 48 234 157 c 0
 234 187 238 221 246 258 c 2
 277 403 l 2
 299 508 361 598 463 671 c 1
 448 730 391 770 290 792 c 1
 446 1030 640 1149 872 1149 c 0
 1118 1149 1246 1039 1246 825 c 0
 1246 779 1240 728 1228 673 c 2
 1172 409 l 1
 1532 176 l 1
 1737 1139 l 1
 1897 1139 l 1
 1655 0 l 1
 1495 0 l 1
 1137 243 l 1
 1116 146 l 2
 1096 52 1024 -10 924 -10 c 0
 818 -10 760 41 760 138 c 0
 760 204 793 427 1020 446 c 1
 1065 657 l 2xbf
1004 328 m 1xbf
 897 328 870 213 870 161 c 0
 870 127 883 109 909 109 c 0
 941 109 962 130 971 172 c 2
 1004 328 l 1xbf
475 273 m 0xdf
 423 273 372 231 372 171 c 0
 372 135 393 105 427 105 c 0
 528 105 541 192 541 212 c 0
 541 245 519 273 475 273 c 0xdf
EndSplineSet
EndChar

StartChar: uni0E0D
Encoding: 3597 3597 136
Width: 1745
Flags: W
HStem: -466 118<1097.06 1311.42> -143 82<966.66 1098> -11 116<343.223 484.554> 0 148<1084 1494> 273 124<398.214 506.562> 1001 148<611.11 965.454>
VStem: 202 137<107.79 254.88> 509 113<128.124 269.799> 844 106<-284.708 -155.551> 1046 168<552.148 919.579> 1100 91<-275.885 -145.04> 1485 116<-156.018 -65>
DStem2: 793.949 -466 953.49 -466 0.207912 0.978148<660.888 1258.85> 1363.49 -466 1523.95 -466 0.207912 0.978148<627.717 1640.93>
LayerCount: 2
Fore
SplineSet
622 265 m 0xdfd0
 622 169 570 -11 360 -11 c 0xefd0
 254 -11 202 48 202 157 c 0
 202 187 206 221 214 258 c 2
 245 403 l 2
 267 508 329 598 431 671 c 1
 416 730 359 770 258 792 c 1
 414 1030 608 1149 840 1149 c 0
 1087 1149 1214 1039 1214 825 c 0
 1214 779 1208 729 1196 673 c 2
 1084 148 l 1
 1494 148 l 1
 1705 1139 l 1
 1865 1139 l 1
 1623 0 l 1
 893 0 l 1
 1033 657 l 2
 1042 698 1046 735 1046 769 c 0
 1046 919 962 1001 809 1001 c 0
 663 1001 541 940 443 825 c 1
 519 808 570 754 598 663 c 1
 491 592 426 505 405 403 c 1
 397 369 l 1
 417 387 444 397 479 397 c 0
 579 397 622 348 622 265 c 0xdfd0
443 273 m 0
 376 273 339 221 339 168 c 0
 339 133 358 105 395 105 c 0
 486 105 509 186 509 215 c 0
 509 251 483 273 443 273 c 0
844 -279 m 0
 844 -221 887 -61 1058 -61 c 0
 1140 -61 1191 -110 1191 -180 c 0xcfb0
 1191 -206 1181 -298 1094 -345 c 1
 1112 -347 1130 -348 1147 -348 c 0
 1303 -348 1416 -253 1485 -65 c 1
 1601 -65 l 1
 1538 -322 1363 -466 1107 -466 c 0
 941 -466 844 -378 844 -279 c 0
1043 -143 m 0
 974 -143 950 -195 950 -235 c 0
 950 -266 969 -287 1011 -287 c 0
 1082 -287 1100 -226 1100 -197 c 0
 1100 -163 1075 -143 1043 -143 c 0
EndSplineSet
Substitution2: "Thai Descender Removal Single Substitution" uni0E0D.descless
EndChar

StartChar: uni0E0E
Encoding: 3598 3598 137
Width: 1375
Flags: W
HStem: -413 125<426.092 606.58> -112 104<487.763 701.207> -10 122<225.514 366.713> 280 119<239.921 388.683> 1002 148<792.324 1134.76>
VStem: 111 110<113.776 260.172> 279 146<-336.5 -172.486> 1217 167<552.531 920.984>
DStem2: 242.568 -413 402.341 -413 0.207912 0.978148<800.493 1023.16> 976.638 -413 1136.36 -413 0.207912 0.978148<208.557 1203.65>
AnchorPoint: "BelowBase" 1224 -453 basechar 0
LayerCount: 2
Fore
SplineSet
279 -299 m 0xbf
 279 -129 499 -8 645 -8 c 0xdf
 690 -8 731 -18 767 -34 c 1
 897 140 l 1
 995 105 l 1
 866 -76 l 1
 923 -103 975 -148 1020 -209 c 1
 1204 658 l 2
 1212 698 1217 735 1217 768 c 0
 1217 917 1134 1002 980 1002 c 0
 849 1002 727 943 615 826 c 1
 694 801 746 747 769 664 c 1
 662 591 597 505 576 404 c 2
 545 259 l 2
 508 84 418 -10 283 -10 c 0
 173 -10 111 39 111 136 c 0
 111 276 211 399 331 399 c 0
 368 399 394 389 409 370 c 1
 416 404 l 2
 440 516 502 603 602 672 c 1
 577 731 520 771 430 793 c 1
 584 1031 778 1150 1011 1150 c 0
 1248 1150 1384 1036 1384 818 c 0
 1384 774 1378 726 1367 674 c 2
 1137 -410 l 1
 977 -410 l 1
 933 -319 873 -248 797 -196 c 1
 697 -339 578 -413 442 -413 c 0
 334 -413 279 -374 279 -299 c 0xbf
610 -112 m 0
 540 -112 425 -176 425 -244 c 0
 425 -275 456 -288 486 -288 c 0
 555 -288 661 -224 702 -147 c 1
 675 -123 644 -112 610 -112 c 0
325 280 m 0
 273 280 221 239 221 181 c 0
 221 143 245 112 277 112 c 0xbf
 370 112 390 191 390 223 c 0
 390 256 370 280 325 280 c 0
EndSplineSet
EndChar

StartChar: uni0E0F
Encoding: 3599 3599 138
Width: 1375
Flags: W
HStem: -413 125<276.134 466.684> -121 112<339.936 556.064> -10 122<226.737 368.759> 280 120<240.812 390.53> 1002 148<792.63 1130.39>
VStem: 117 106<114.806 261.992> 137 138<-336.5 -181.312> 1216 168<552.531 919.297>
DStem2: 242.568 -413 402.341 -413 0.207912 0.978148<800.493 1021.92> 622 -34 721 -76 0.580387 0.814341<15.7667 217.146> 976.638 -413 1136.36 -413 0.207912 0.978148<208.557 1201.44>
AnchorPoint: "BelowBase" 1224 -453 basechar 0
LayerCount: 2
Fore
SplineSet
137 -300 m 0xbb
 137 -146 323 -9 513 -9 c 0xdb
 558 -9 594 -18 622 -34 c 1
 752 140 l 1
 850 105 l 1
 721 -76 l 1
 748 -97 768 -124 779 -156 c 1
 920 -38 l 1
 1020 -209 l 1
 1204 658 l 2
 1212 696 1216 732 1216 766 c 0
 1216 910 1139 1002 980 1002 c 0
 846 1002 724 941 615 826 c 1
 705 795 757 741 769 664 c 1
 664 601 599 514 576 404 c 2
 545 259 l 2
 508 83 420 -10 285 -10 c 0
 175 -10 117 42 117 144 c 0xbd
 117 313 241 400 316 400 c 0
 362 400 394 393 409 370 c 1
 416 404 l 2
 440 518 503 607 602 672 c 1
 568 743 510 783 430 793 c 1
 589 1030 782 1150 1011 1150 c 0
 1257 1150 1384 1038 1384 824 c 0
 1384 778 1379 728 1367 674 c 2
 1137 -410 l 1
 977 -410 l 1
 874 -252 l 1
 735 -362 l 1
 715 -287 685 -234 646 -203 c 1
 578 -328 432 -413 297 -413 c 0
 188 -413 137 -373 137 -300 c 0xbb
472 -121 m 0
 360 -121 275 -204 275 -256 c 0
 275 -285 312 -288 336 -288 c 0
 427 -288 529 -211 557 -147 c 1
 533 -130 505 -121 472 -121 c 0
327 280 m 0
 260 280 223 230 223 176 c 0
 223 140 240 112 279 112 c 0xbd
 377 112 392 198 392 224 c 0
 392 258 371 280 327 280 c 0
EndSplineSet
EndChar

StartChar: uni0E10
Encoding: 3600 3600 139
Width: 1130
Flags: W
HStem: -532 71<64.3009 243.703> -413 129<524.97 645.789> -347 75<95.0022 307.139> -276 62<637.214 715.61> -102 68<647.059 750.814> -10 148<580.688 769.35> 290 113<306.576 422.726> 571 126<324.58 473.486> 917 148<1013.59 1189.34> 1001 148<597.863 974.439>
VStem: -28 91<-459.788 -374.086> 198 106<405.82 553.858> 406 165<149.577 379.528> 475 144<423.317 568.603> 562 74<-213.274 -112.677> 662 150<-530 -463.316> 753 132<-209.609 -102.595> 871 172<384.742 614.909>
DStem2: 658.851 -532 812.32 -532 0.207912 0.978148<207.535 275.982 712.775 1098.32>
LayerCount: 2
Fore
SplineSet
198 424 m 0x8f7840
 198 510 249 697 453 697 c 0
 562 697 619 636 619 524 c 0x8f74
 619 495 616 463 608 428 c 2
 577 283 l 2
 573 264 571 246 571 231 c 0
 571 170 602 138 666 138 c 0
 746 138 797 188 816 279 c 2
 869 529 l 2
 870 535 871 541 871 546 c 0
 871 630 725 690 242 762 c 1
 380 1020 564 1149 793 1149 c 0x8f7840
 1003 1149 1052 1065 1187 1065 c 0
 1207 1065 1227 1067 1245 1072 c 1
 1174 924 l 1
 1160 922 1144 917 1129 917 c 0x8fb840
 989 917 967 1001 763 1001 c 0
 699 1001 589 989 509 872 c 1
 837 802 1043 746 1043 608 c 0
 1043 597 1042 586 1039 574 c 2
 976 279 l 2
 935 86 821 -10 635 -10 c 0
 482 -10 406 56 406 187 c 0
 406 216 410 248 417 283 c 2
 424 317 l 1
 410 303 387 290 355 290 c 0
 255 290 198 334 198 424 c 0x8f7840
408 571 m 0
 325 571 304 502 304 465 c 0
 304 431 321 403 361 403 c 0
 457 403 475 486 475 516 c 0
 475 552 451 571 408 571 c 0
-28 -443 m 0
 -28 -368 63 -272 211 -272 c 0xaf31
 254 -272 302 -280 356 -294 c 1
 426 -208 l 1
 509 -230 l 1
 433 -324 l 1
 458 -335 473 -349 480 -368 c 1
 537 -312 581 -284 614 -284 c 0
 655 -284 684 -299 702 -329 c 1
 716 -262 l 1
 704 -271 685 -276 659 -276 c 0
 598 -276 562 -240 562 -184 c 0
 562 -124 600 -34 736 -34 c 0
 835 -34 885 -77 885 -162 c 0xdf3280
 885 -180 883 -201 878 -223 c 2
 812 -530 l 1
 662 -530 l 1
 657 -455 628 -413 586 -413 c 0xdf31
 539 -413 493 -453 448 -529 c 1
 437 -463 414 -422 380 -406 c 1
 298 -490 207 -532 107 -532 c 0
 29 -532 -28 -496 -28 -443 c 0
684 -214 m 0x9f3280
 730 -214 753 -174 753 -146 c 0
 753 -124 740 -102 709 -102 c 0
 670 -102 636 -133 636 -173 c 0
 636 -198 651 -214 684 -214 c 0x9f3280
204 -347 m 0xaf30
 90 -347 63 -426 63 -438 c 0
 63 -449 97 -461 123 -461 c 0
 196 -461 282 -418 309 -362 c 1
 270 -352 235 -347 204 -347 c 0xaf30
EndSplineSet
Substitution2: "Thai Descender Removal Single Substitution" uni0E10.descless
EndChar

StartChar: uni0E11
Encoding: 3601 3601 140
Width: 1700
Flags: W
HStem: 0 21G<636 852.326 1374 1538.25> 508 112<394.421 540.128> 789 99<466 557.928> 975 174<1461.54 1629.5>
VStem: 266 126<623.933 769.61> 561 113<640.379 785.843> 932 161<770.199 972.12> 1568 170<754.656 1041>
DStem2: 636 0 796.098 0 0.207912 0.978148<302.162 747.074> 852 263 839 0 0.554488 0.832192<0 967.748> 1374 0 1534 0 0.207912 0.978148<33.2659 948.621>
LayerCount: 2
Fore
SplineSet
496 789 m 0
 436 789 392 744 392 685 c 0
 392 650 410 620 456 620 c 0
 540 620 561 702 561 729 c 0
 561 760 542 789 496 789 c 0
674 755 m 0
 674 685 627 508 433 508 c 0
 324 508 266 568 266 678 c 0
 266 825 360 1050 615 1149 c 1
 751 1041 l 1
 918 1149 l 1
 1034 1086 1093 986 1093 849 c 0
 1093 828 1092 806 1089 783 c 1
 994 727 935 656 921 587 c 2
 852 263 l 1
 1345 1003 l 1
 1407 1100 1485 1149 1582 1149 c 0
 1677 1149 1738 1092 1738 990 c 0
 1738 970 1735 947 1730 923 c 2
 1534 0 l 1
 1374 0 l 1
 1565 900 l 2
 1567 911 1568 920 1568 929 c 0
 1568 958 1555 975 1530 975 c 0
 1503 975 1475 954 1442 905 c 2
 839 0 l 1
 636 0 l 1
 761 587 l 2
 778 668 831 736 927 796 c 1
 930 814 932 830 932 847 c 0
 932 900 915 944 882 979 c 1
 717 881 l 1
 579 979 l 1
 546 961 520 930 500 886 c 1
 511 887 521 888 531 888 c 0
 611 888 674 840 674 755 c 0
EndSplineSet
EndChar

StartChar: uni0E12
Encoding: 3602 3602 141
Width: 1850
Flags: W
HStem: -10 113<938.788 1022.02> 357 97<573.111 674.5> 622 123<585.679 734.703> 1129 10G<489 747.138 1026.03 1145 1767.75 1932>
VStem: 249 162<198.245 768.842> 467 102<455.813 603.914> 738 124<476.915 619.548> 827 110<103.265 288.073> 1156 159<557.031 922.228>
DStem2: 990.59 -10 1151.22 -10 0.207912 0.978148<108.615 292.05 461.699 826.704> 1240 409 1205 243 0.792897 -0.609356<73.4017 408.628> 1527.87 -10 1687.87 -10 0.207912 0.978148<173.798 1174.65>
LayerCount: 2
Fore
SplineSet
862 607 m 0xfe80
 862 486 782 245 389 0 c 1
 204 0 l 1
 227 108 l 1
 246 203 249 287 249 368 c 0
 249 396 248 423 248 451 c 0
 248 644 255 1014 723 1149 c 1
 863 1033 l 1
 1060 1149 l 1
 1230 1109 1315 1003 1315 829 c 0
 1315 783 1309 732 1297 677 c 2
 1240 409 l 1
 1564 160 l 1
 1772 1139 l 1
 1932 1139 l 1
 1690 0 l 1
 1528 0 l 1
 1205 243 l 1
 1184 146 l 2
 1163 49 1098 -10 992 -10 c 0
 883 -10 827 38 827 133 c 0xfd80
 827 257 897 401 1088 446 c 1
 1149 734 l 2
 1154 758 1156 780 1156 801 c 0
 1156 889 1112 948 1024 979 c 1
 826 863 l 1
 687 979 l 1
 553 933 460 831 431 697 c 0
 420 643 411 557 411 453 c 0
 411 402 413 347 418 290 c 1
 415 197 l 1
 500 231 568 287 620 365 c 1
 606 360 590 357 576 357 c 0
 530 357 467 387 467 481 c 0
 467 627 579 745 711 745 c 0
 809 745 862 699 862 607 c 0xfe80
1063 328 m 1
 951 328 937 182 937 152 c 0
 937 122 947 103 976 103 c 0
 1000 103 1018 116 1028 166 c 2
 1063 328 l 1
672 622 m 0
 590 622 569 553 569 522 c 0
 569 485 594 454 625 454 c 0
 724 454 738 541 738 562 c 0xfe80
 738 597 714 622 672 622 c 0
EndSplineSet
EndChar

StartChar: uni0E13
Encoding: 3603 3603 142
Width: 1900
Flags: W
HStem: -11 114<373.897 519.95 1597.5 1736.73> 271 124<434.623 537.522> 328 118<1715 1756.99> 1001 148<650.367 1003.16>
VStem: 238 134<105.973 251.087> 541 112<123.824 267.605> 1082 167<552.422 925.268> 1494 159<109.825 241.104> 1763 113<123.73 320.921>
DStem2: 925.662 -11 1085.76 -11 0.207912 0.978148<231.621 798.742> 1127 183 1083 0 0.870109 0.492859<0 364.564> 1458.01 -11 1617.89 -11 0.207912 0.978148<188.655 259.674 500.445 1175.6>
AnchorPoint: "AboveBase" 1860 1227 basechar 0
LayerCount: 2
Fore
SplineSet
1876 289 m 0xbf80
 1876 183 1828 -9 1637 -9 c 0
 1542 -9 1494 37 1494 127 c 0
 1494 161 1505 209 1512 243 c 1
 1083 0 l 1
 928 0 l 1
 1068 657 l 2
 1077 700 1082 739 1082 774 c 0
 1082 917 1008 1001 844 1001 c 0
 697 1001 574 940 478 825 c 1
 546 810 598 756 633 663 c 1
 527 594 463 508 441 403 c 1
 433 369 l 1
 458 386 485 395 514 395 c 0xdf80
 599 395 653 345 653 259 c 0
 653 86 545 -11 404 -11 c 0
 293 -11 238 45 238 156 c 0
 238 186 242 220 250 258 c 2
 281 403 l 2
 305 518 367 607 467 671 c 1
 426 738 369 779 294 792 c 1
 456 1030 648 1149 875 1149 c 0
 1123 1149 1249 1037 1249 824 c 0
 1249 779 1243 728 1231 673 c 2
 1127 183 l 1
 1547 409 l 1
 1702 1139 l 1
 1862 1139 l 1
 1715 446 l 1
 1822 442 1876 390 1876 289 c 0xbf80
1683 109 m 0
 1738 109 1763 198 1763 248 c 0
 1763 295 1741 323 1690 328 c 1xbf80
 1657 173 l 2
 1654 160 1653 149 1653 140 c 0
 1653 120 1661 109 1683 109 c 0
477 271 m 0xdf80
 422 271 372 228 372 165 c 0
 372 130 389 103 429 103 c 0
 529 103 541 191 541 207 c 0
 541 238 520 271 477 271 c 0xdf80
EndSplineSet
EndChar

StartChar: uni0E14
Encoding: 3604 3604 143
Width: 1330
Flags: W
HStem: 0 21G<222 605 1011 1175.26> 362 102<589.265 694> 632 113<603.543 753.701> 1001 148<665.696 1061.59>
VStem: 487 99<466.349 616.322> 756 124<485.331 628.759> 1164 163<528.547 905.329>
DStem2: 1011 0 1171 0 0.207912 0.978148<33.2659 777.83>
LayerCount: 2
Fore
SplineSet
880 611 m 0
 880 489 803 227 407 0 c 1
 222 0 l 1
 245 108 l 2
 273 242 257 550 282 669 c 0
 345 964 548 1149 904 1149 c 0
 1187 1149 1327 1032 1327 805 c 0
 1327 758 1322 707 1310 652 c 2
 1171 0 l 1
 1011 0 l 1
 1154 675 l 2
 1161 706 1164 736 1164 764 c 0
 1164 909 1072 1001 877 1001 c 0
 590 1001 431 812 431 536 c 0
 431 482 435 421 435 319 c 0
 435 284 434 244 433 197 c 1
 502 218 571 274 638 365 c 1
 638 365 622 362 613 362 c 16
 570 362 487 408 487 500 c 0
 487 565 535 745 729 745 c 0
 830 745 880 700 880 611 c 0
689 632 m 0
 606 632 586 562 586 528 c 0
 586 494 603 464 642 464 c 0
 746 464 756 551 756 581 c 0
 756 613 738 632 689 632 c 0
EndSplineSet
EndChar

StartChar: uni0E15
Encoding: 3605 3605 144
Width: 1330
Flags: W
HStem: 0 21G<232 614 1021 1185.25> 357 97<597.955 705.5> 622 123<615.736 764.744> 1129 20G<440 775.138 1054.03 1173>
VStem: 496 100<456.378 602.8> 767 123<477.09 619.995> 1185 158<561.305 922.42>
DStem2: 1021 0 1181 0 0.207912 0.978148<33.2659 817.607>
LayerCount: 2
Fore
SplineSet
890 608 m 0
 890 487 811 246 417 0 c 1
 232 0 l 1
 255 108 l 2
 322 425 129 970 751 1149 c 1
 891 1033 l 1
 1088 1149 l 1
 1258 1109 1343 1003 1343 829 c 0
 1343 783 1337 732 1325 677 c 2
 1181 0 l 1
 1021 0 l 1
 1177 734 l 2
 1182 758 1185 781 1185 802 c 0
 1185 890 1140 948 1052 979 c 1
 854 863 l 1
 715 979 l 1
 470 896 439 688 439 453 c 0
 439 352 447 290 447 267 c 0
 447 234 443 197 443 197 c 1
 528 231 596 287 648 365 c 1
 634 360 619 357 605 357 c 0
 537 357 496 418 496 491 c 0
 496 582 566 745 739 745 c 0
 845 745 890 692 890 608 c 0
700 622 m 0
 636 622 596 573 596 513 c 0
 596 480 612 454 653 454 c 0
 758 454 767 546 767 572 c 0
 767 607 746 622 700 622 c 0
EndSplineSet
EndChar

StartChar: uni0E16
Encoding: 3606 3606 145
Width: 1240
Flags: W
HStem: -11 116<375.252 523.409> 273 124<431.876 540.454> 1001 148<645.11 999.3>
VStem: 237 136<107.859 254.741> 543 114<126.233 309.114> 1080 167<545.445 923.167>
DStem2: 924.662 -11 1084.66 -11 0.207912 0.978148<44.5116 795.646>
LayerCount: 2
Fore
SplineSet
657 267 m 0
 657 176 604 -11 394 -11 c 0
 293 -11 237 51 237 163 c 0
 237 191 241 223 248 258 c 2
 279 403 l 2
 301 508 363 598 465 671 c 1
 450 730 393 770 292 792 c 1
 448 1030 642 1149 874 1149 c 0
 1117 1149 1247 1038 1247 822 c 0
 1247 777 1242 727 1230 673 c 2
 1087 0 l 1
 927 0 l 1
 1067 657 l 2
 1076 699 1080 737 1080 771 c 0
 1080 920 999 1001 843 1001 c 0
 697 1001 575 940 477 825 c 1
 553 808 604 754 632 663 c 1
 525 592 460 505 439 403 c 1
 431 369 l 1
 451 387 478 397 513 397 c 0
 614 397 657 348 657 267 c 0
477 273 m 0
 414 273 373 225 373 167 c 0
 373 133 391 105 429 105 c 0
 536 105 543 197 543 213 c 0
 543 250 515 273 477 273 c 0
EndSplineSet
EndChar

StartChar: uni0E17
Encoding: 3607 3607 146
Width: 1350
Flags: W
HStem: 0 21G<317 531.348 1054 1218.25> 743 116<373.638 479.214> 975 174<1141.54 1313> 1026 124<389.845 540.713>
VStem: 258 113<861.808 1007.47> 542 132<879.917 1024.17> 1249 170<761.867 1046>
DStem2: 317 0 477.098 0 0.207912 0.978148<302.162 787.271> 533 263 518 0 0.555124 0.831767<0 967.322> 1054 0 1214 0 0.207912 0.978148<33.2659 951.762>
LayerCount: 2
Fore
SplineSet
258 884 m 0xee
 258 1047 379 1150 518 1150 c 0xde
 614 1150 674 1085 674 969 c 0
 674 942 671 913 664 881 c 2
 533 263 l 1
 1025 1003 l 1
 1087 1100 1165 1149 1262 1149 c 0
 1364 1149 1419 1095 1419 997 c 0
 1419 975 1416 950 1410 923 c 2
 1214 0 l 1
 1054 0 l 1
 1245 900 l 2
 1248 912 1249 923 1249 932 c 0
 1249 960 1237 975 1210 975 c 0
 1183 975 1155 954 1122 905 c 2
 518 0 l 1
 317 0 l 1
 481 770 l 1
 467 756 443 743 411 743 c 0
 309 743 258 792 258 884 c 0xee
475 1026 m 0
 392 1026 371 956 371 918 c 0
 371 883 390 859 431 859 c 0
 522 859 542 940 542 974 c 0
 542 1008 520 1026 475 1026 c 0
EndSplineSet
EndChar

StartChar: uni0E18
Encoding: 3608 3608 147
Width: 1250
Flags: W
HStem: 0 148<440 894> 909 148<1080.89 1237> 1000 148<661.844 995.527>
VStem: 969 173<346.578 601.333>
DStem2: 249 0 408.542 0 0.207912 0.978148<184.477 664.488> 572 871 305 761 0.973417 -0.229039<0 451.364> 862.542 0 1024 0 0.207912 0.978148<151.306 528.219>
LayerCount: 2
Fore
SplineSet
965 480 m 2xb0
 968 493 969 505 969 518 c 0
 969 559 955 596 921 604 c 1
 754 657 549 710 305 761 c 1
 430 1020 608 1148 856 1148 c 0xb0
 1044 1148 1141 1057 1206 1057 c 0
 1239 1057 1277 1062 1308 1071 c 1
 1237 923 l 1
 1214 918 1185 909 1157 909 c 0xd0
 1053 909 953 1000 838 1000 c 0
 721 1000 635 962 572 871 c 1
 749 832 1008 753 1008 753 c 2
 1101 728 1142 671 1142 588 c 0
 1142 566 1139 543 1134 518 c 2
 1024 0 l 1
 249 0 l 1
 387 650 l 1
 547 650 l 1
 440 148 l 1
 894 148 l 1
 965 480 l 2xb0
EndSplineSet
EndChar

StartChar: uni0E19
Encoding: 3609 3609 148
Width: 1400
Flags: W
HStem: -10 113<1117.5 1260.06> 741 115<411.8 526.591> 1024 125<427.676 576.264>
VStem: 302 108<858.814 1008.22> 579 144<877.972 1021.9> 1023 152<103.653 241.244> 1284 121<118.204 321.483>
DStem2: 361.874 -10 521.89 -10 0.207912 0.978148<221.38 796.308> 561 174 519 0 0.905017 0.425375<0 459.234> 982.223 -10 1141.8 -10 0.207912 0.978148<182.326 258.652 529.036 1174.58>
AnchorPoint: "AboveBase" 1384 1227 basechar 0
LayerCount: 2
Fore
SplineSet
302 885 m 0
 302 974 355 1149 565 1149 c 0
 668 1149 723 1089 723 978 c 0
 723 949 719 916 711 880 c 2
 561 174 l 1
 1069 402 l 1
 1226 1139 l 1
 1386 1139 l 1
 1245 475 l 1
 1352 468 1405 410 1405 302 c 0
 1405 273 1402 241 1394 205 c 0
 1362 56 1276 -10 1141 -10 c 0
 1060 -10 1023 41 1023 133 c 0
 1023 165 1027 202 1036 243 c 1
 519 0 l 1
 364 0 l 1
 527 769 l 1
 511 753 484 741 446 741 c 0
 361 741 302 795 302 885 c 0
1205 103 m 0
 1259 103 1284 191 1284 236 c 0
 1284 296 1246 328 1214 328 c 1
 1179 165 l 2
 1177 154 1175 144 1175 135 c 0
 1175 115 1183 103 1205 103 c 0
514 1024 m 0
 430 1024 410 957 410 919 c 0
 410 884 427 856 466 856 c 0
 562 856 579 938 579 968 c 0
 579 1001 558 1024 514 1024 c 0
EndSplineSet
EndChar

StartChar: uni0E1A
Encoding: 3610 3610 149
Width: 1300
Flags: W
HStem: 0 148<519 1024> 743 112<343.5 491.397> 1023 127<398.676 545.115>
VStem: 271 108<856.908 1004.79> 548 140<877.638 1020.54>
DStem2: 328 0 487.542 0 0.207912 0.978148<184.477 787.271> 992.542 0 1153 0 0.207912 0.978148<151.306 1164.52>
LayerCount: 2
Fore
SplineSet
271 891 m 0
 271 1064 411 1150 529 1150 c 0
 633 1150 688 1097 688 986 c 0
 688 955 683 920 675 881 c 2
 519 148 l 1
 1024 148 l 1
 1235 1139 l 1
 1395 1139 l 1
 1153 0 l 1
 328 0 l 1
 492 770 l 1
 468 749 432 743 381 743 c 0
 306 743 271 810 271 891 c 0
482 1023 m 0
 420 1023 379 976 379 919 c 0
 379 884 397 855 435 855 c 0
 535 855 548 943 548 966 c 0
 548 1001 525 1023 482 1023 c 0
EndSplineSet
EndChar

StartChar: uni0E1B
Encoding: 3611 3611 150
Width: 1300
Flags: W
HStem: 0 148<545 1050> 743 112<369.5 517.397> 1023 127<424.676 571.115> 1460 20G<1329.74 1494>
VStem: 297 108<856.908 1004.79> 574 140<877.638 1020.54>
DStem2: 354 0 513.542 0 0.207912 0.978148<184.477 787.271> 1018.54 0 1179 0 0.207912 0.978148<151.306 1513.25>
AnchorPoint: "AboveBase" 1181 1227 basechar 0
LayerCount: 2
Fore
SplineSet
297 891 m 0
 297 1064 437 1150 555 1150 c 0
 659 1150 714 1097 714 986 c 0
 714 955 709 920 701 881 c 2
 545 148 l 1
 1050 148 l 1
 1334 1480 l 1
 1494 1480 l 1
 1179 0 l 1
 354 0 l 1
 518 770 l 1
 494 749 458 743 407 743 c 0
 332 743 297 810 297 891 c 0
508 1023 m 0
 446 1023 405 976 405 919 c 0
 405 884 423 855 461 855 c 0
 561 855 574 943 574 966 c 0
 574 1001 551 1023 508 1023 c 0
EndSplineSet
EndChar

StartChar: uni0E1C
Encoding: 3612 3612 151
Width: 1200
Flags: W
HStem: 0 21G<134 313.163 870.296 1044.25> 741 109<474.445 617.474> 1018 132<491.316 636.954>
VStem: 640 113<872.4 1013.84>
DStem2: 134 0 293.513 0 0.207912 0.978148<251.945 820.537> 339 214 294 0 0.691828 0.722062<0 376.625> 880.151 0 1040 0 0.207912 0.978148<215.714 1164.39>
LayerCount: 2
Fore
SplineSet
753 994 m 0
 753 830 624 741 536 741 c 0
 499 741 473 751 458 770 c 1
 339 214 l 1
 703 627 l 1
 751 627 l 1
 925 211 l 1
 1122 1139 l 1
 1282 1139 l 1
 1040 0 l 1
 880 0 l 1
 683 406 l 1
 294 0 l 1
 134 0 l 1
 321 881 l 2
 357 1048 456 1150 581 1150 c 0
 696 1150 753 1091 753 994 c 0
574 1018 m 0
 528 1018 471 976 471 919 c 0
 471 881 494 850 527 850 c 0
 621 850 640 929 640 961 c 0
 640 994 619 1018 574 1018 c 0
EndSplineSet
EndChar

StartChar: uni0E1D
Encoding: 3613 3613 152
Width: 1200
Flags: W
HStem: 0 21G<153 332.163 889.296 1063.26> 741 109<493.445 636.474> 1018 132<510.316 655.954> 1460 20G<1209.74 1374>
VStem: 659 113<872.4 1013.84>
DStem2: 153 0 312.513 0 0.207912 0.978148<251.945 820.537> 358 214 313 0 0.691828 0.722062<0 376.625> 899.151 0 1059 0 0.207912 0.978148<215.714 1513.12>
AnchorPoint: "AboveBase" 1060 1227 basechar 0
LayerCount: 2
Fore
SplineSet
772 994 m 0
 772 830 643 741 555 741 c 0
 518 741 492 751 477 770 c 1
 358 214 l 1
 722 627 l 1
 770 627 l 1
 944 211 l 1
 1214 1480 l 1
 1374 1480 l 1
 1059 0 l 1
 899 0 l 1
 702 406 l 1
 313 0 l 1
 153 0 l 1
 340 881 l 2
 376 1048 475 1150 600 1150 c 0
 715 1150 772 1091 772 994 c 0
593 1018 m 0
 547 1018 490 976 490 919 c 0
 490 881 513 850 546 850 c 0
 640 850 659 929 659 961 c 0
 659 994 638 1018 593 1018 c 0
EndSplineSet
EndChar

StartChar: uni0E1E
Encoding: 3614 3614 153
Width: 1350
Flags: W
HStem: 0 21G<300 500.543 1013.56 1210.25> 740 117<356.282 462.275> 1025 124<375.024 520.569> 1063 20G<940.39 1001.48>
VStem: 239 114<858.81 1006> 523 136<878.915 1020.39>
DStem2: 300 0 460.098 0 0.207912 0.978148<302.162 786.085> 516 263 490 0 0.46863 0.883395<0 671.137> 999 1083 917 810 0.122996 -0.992407<260.841 829.297> 1045.74 0 1206 0 0.207912 0.978148<265.809 1164.48>
LayerCount: 2
Fore
SplineSet
239 880 m 0xdc
 239 974 291 1149 501 1149 c 0xec
 604 1149 659 1091 659 979 c 0
 659 950 655 917 647 880 c 2
 516 263 l 1
 951 1083 l 1
 999 1083 l 1
 1101 260 l 1
 1288 1139 l 1
 1448 1139 l 1
 1206 0 l 1
 1016 0 l 1
 917 810 l 1
 490 0 l 1
 300 0 l 1
 463 769 l 1
 440 750 410 740 373 740 c 0
 289 740 239 790 239 880 c 0xdc
457 1025 m 0
 399 1025 353 978 353 919 c 0
 353 885 371 857 409 857 c 0
 508 857 523 944 523 965 c 0
 523 1003 495 1025 457 1025 c 0
EndSplineSet
EndChar

StartChar: uni0E1F
Encoding: 3615 3615 154
Width: 1450
Flags: W
HStem: 0 21G<381 581.543 1094.56 1291.26> 740 117<437.282 543.275> 1025 124<456.024 601.569> 1063 20G<1021.39 1082.48> 1460 20G<1437.74 1602>
VStem: 320 114<858.81 1006> 604 136<878.915 1020.39>
DStem2: 381 0 541.098 0 0.207912 0.978148<302.162 786.085> 597 263 571 0 0.46863 0.883395<0 671.137> 1080 1083 998 810 0.122996 -0.992407<260.841 829.297> 1126.74 0 1287 0 0.207912 0.978148<265.809 1513.21>
AnchorPoint: "AboveBase" 1292 1227 basechar 0
LayerCount: 2
Fore
SplineSet
320 880 m 0xde
 320 974 372 1149 582 1149 c 0xee
 685 1149 740 1091 740 979 c 0
 740 950 736 917 728 880 c 2
 597 263 l 1
 1032 1083 l 1
 1080 1083 l 1
 1182 260 l 1
 1442 1480 l 1
 1602 1480 l 1
 1287 0 l 1
 1097 0 l 1
 998 810 l 1
 571 0 l 1
 381 0 l 1
 544 769 l 1
 521 750 491 740 454 740 c 0
 370 740 320 790 320 880 c 0xde
538 1025 m 0
 480 1025 434 978 434 919 c 0
 434 885 452 857 490 857 c 0
 589 857 604 944 604 965 c 0
 604 1003 576 1025 538 1025 c 0
EndSplineSet
EndChar

StartChar: uni0E20
Encoding: 3616 3616 155
Width: 1350
Flags: W
HStem: -10 122<219.935 361.908> 280 119<233.161 382.683> 1002 148<786.324 1130.69>
VStem: 106 109<113.424 259.941> 1211 168<551.406 919.592>
DStem2: 322.229 -10 482.002 -10 0.207912 0.978148<388.489 607.256> 1055.87 -10 1215.87 -10 0.207912 0.978148<43.4893 792.668>
LayerCount: 2
Fore
SplineSet
106 143 m 0
 106 256 189 399 325 399 c 0
 362 399 388 389 403 370 c 1
 410 404 l 2
 433 513 496 603 596 672 c 1
 571 731 514 771 424 793 c 1
 578 1031 772 1150 1005 1150 c 0
 1251 1150 1379 1039 1379 825 c 0
 1379 779 1373 729 1361 674 c 2
 1218 0 l 1
 1058 0 l 1
 1198 658 l 2
 1206 698 1211 735 1211 769 c 0
 1211 918 1129 1002 974 1002 c 0
 843 1002 721 943 609 826 c 1
 688 801 740 747 763 664 c 1
 656 591 591 505 570 404 c 2
 539 259 l 2
 502 84 399 -10 279 -10 c 0
 168 -10 106 49 106 143 c 0
319 280 m 0
 257 280 215 232 215 180 c 0
 215 143 237 112 271 112 c 0
 372 112 384 200 384 223 c 0
 384 256 364 280 319 280 c 0
EndSplineSet
EndChar

StartChar: uni0E21
Encoding: 3617 3617 156
Width: 1350
Flags: W
HStem: -10 123<317.718 403.871> 328 118<356.914 441> 739 116<425.441 534.176> 1023 127<440.171 589.846>
VStem: 206 110<113.188 287.92> 313 109<858.198 1003.2> 592 139<878.392 1020.03>
DStem2: 368.89 -10 529.223 -10 0.207912 0.978148<117.946 291.987 461.637 797.491> 618 409 583 243 0.852089 -0.523396<57.0607 477.649> 989.078 -10 1148.87 -10 0.207912 0.978148<172.776 1174.61>
LayerCount: 2
Fore
SplineSet
206 135 m 0xfa
 206 225 256 446 466 446 c 1
 535 770 l 1
 517 751 490 739 457 739 c 0
 368 739 313 794 313 890 c 0xf6
 313 1030 406 1150 563 1150 c 0
 675 1150 731 1095 731 985 c 0
 731 955 726 920 718 881 c 2
 618 409 l 1
 1025 159 l 1
 1233 1139 l 1
 1393 1139 l 1
 1151 0 l 1
 990 0 l 1
 583 243 l 1
 562 146 l 2
 540 43 462 -10 370 -10 c 0
 263 -10 206 39 206 135 c 0xfa
441 328 m 1
 333 328 316 193 316 163 c 0xfa
 316 132 328 113 356 113 c 0
 387 113 399 133 408 174 c 2
 441 328 l 1
525 1023 m 0
 458 1023 422 970 422 924 c 0xf6
 422 886 445 855 478 855 c 0
 569 855 592 932 592 970 c 0
 592 1003 572 1023 525 1023 c 0
EndSplineSet
EndChar

StartChar: uni0E22
Encoding: 3618 3618 157
Width: 1200
Flags: W
HStem: 0 148<390 898> 505 113<537.85 745> 743 112<554.81 699.341> 1023 126<572.658 718.489>
VStem: 345 168<648.674 766.867> 721 111<875.898 1019.96>
DStem2: 199 0 358.542 0 0.207912 0.978148<184.477 503.047> 866.542 0 1027 0 0.207912 0.978148<151.306 1164.52>
LayerCount: 2
Fore
SplineSet
513 733 m 0
 513 616 642 618 769 618 c 1
 745 505 l 1
 543 505 460 473 433 347 c 2
 390 148 l 1
 898 148 l 1
 1109 1139 l 1
 1269 1139 l 1
 1027 0 l 1
 199 0 l 1
 273 349 l 2
 293 444 358 515 469 562 c 1
 386 579 345 654 345 753 c 0
 345 869 409 1149 662 1149 c 0
 768 1149 832 1099 832 996 c 0
 832 909 788 743 613 743 c 0
 562 743 530 753 517 770 c 1
 514 757 513 745 513 733 c 0
655 1023 m 0
 593 1023 552 976 552 919 c 0
 552 884 570 855 608 855 c 0
 708 855 721 942 721 966 c 0
 721 1001 698 1023 655 1023 c 0
EndSplineSet
EndChar

StartChar: uni0E23
Encoding: 3619 3619 158
Width: 1100
Flags: W
HStem: -10 119<643.366 786.314> 277 106<655.77 802.093> 915 148<1015.13 1206.16> 1001 148<622.434 960.089>
VStem: 523 116<112.019 259.726> 838 171<380.547 643.142>
LayerCount: 2
Fore
SplineSet
523 126 m 0xdc
 523 191 563 383 722 383 c 0
 757 383 784 379 800 363 c 1
 835 529 l 2
 837 537 838 546 838 554 c 0
 838 594 819 638 768 656 c 0
 667 692 500 727 266 762 c 1
 390 1020 574 1149 817 1149 c 0xdc
 991 1149 1056 1063 1188 1063 c 0
 1214 1063 1241 1066 1269 1072 c 1
 1198 924 l 1
 1180 917 1159 915 1135 915 c 0xec
 969 915 945 1001 774 1001 c 0
 681 1001 594 959 533 872 c 1
 831 810 1009 750 1009 612 c 0
 1009 600 1008 587 1005 574 c 2
 948 304 l 1
 899 77 836 -10 681 -10 c 0
 577 -10 523 36 523 126 c 0xdc
742 277 m 0
 660 277 639 210 639 177 c 0
 639 140 664 109 694 109 c 0
 789 109 807 189 807 216 c 0
 807 247 788 277 742 277 c 0
EndSplineSet
EndChar

StartChar: uni0E24
Encoding: 3620 3620 159
Width: 1240
Flags: W
HStem: -11 116<373.252 521.409> 273 124<429.876 538.454> 1001 148<643.11 997.3>
VStem: 235 136<107.859 254.741> 541 114<126.233 309.114> 1078 167<542.477 923.167>
DStem2: 844 -380 1004 -380 0.207912 0.978148<33.2659 1172.94>
LayerCount: 2
Fore
SplineSet
655 267 m 0
 655 176 602 -11 392 -11 c 0
 291 -11 235 51 235 163 c 0
 235 191 239 223 246 258 c 2
 277 403 l 2
 299 508 361 598 463 671 c 1
 448 730 391 770 290 792 c 1
 446 1030 640 1149 872 1149 c 0
 1115 1149 1245 1038 1245 822 c 0
 1245 777 1240 727 1228 673 c 2
 1004 -380 l 1
 844 -380 l 1
 1065 657 l 2
 1074 699 1078 737 1078 771 c 0
 1078 920 997 1001 841 1001 c 0
 695 1001 573 940 475 825 c 1
 551 808 602 754 630 663 c 1
 523 592 458 505 437 403 c 1
 429 369 l 1
 449 387 476 397 511 397 c 0
 612 397 655 348 655 267 c 0
475 273 m 0
 412 273 371 225 371 167 c 0
 371 133 389 105 427 105 c 0
 534 105 541 197 541 213 c 0
 541 250 513 273 475 273 c 0
EndSplineSet
EndChar

StartChar: uni0E25
Encoding: 3621 3621 160
Width: 1255
Flags: W
HStem: -11 115<412.987 559.462> 272 127<460.137 577.581> 604 140<578.561 897.829> 1001 148<621.976 991.022>
VStem: 265 145<106.405 254.507> 580 106<125.029 314> 1084 165<611.688 915.026>
DStem2: 921.662 -11 1081.66 -11 0.207912 0.978148<44.5116 370.742 633.758 812.28>
LayerCount: 2
Fore
SplineSet
686 273 m 0
 686 92 561 -11 431 -11 c 0
 360 -11 265 18 265 162 c 0
 265 189 268 221 276 258 c 2
 303 388 l 1
 355 630 563 744 768 744 c 0
 943 744 1036 656 1053 609 c 1
 1076 714 l 2
 1081 739 1084 763 1084 786 c 0
 1084 923 985 1001 809 1001 c 0
 681 1001 539 943 387 834 c 1
 357 944 l 1
 520 1077 683 1149 842 1149 c 0
 1107 1149 1249 1037 1249 830 c 0
 1249 794 1245 755 1236 713 c 2
 1084 0 l 1
 924 0 l 1
 980 263 l 2
 986 291 990 323 990 355 c 0
 990 475 936 604 736 604 c 0
 588 604 490 513 468 407 c 1
 459 369 l 1
 482 389 514 399 556 399 c 0
 645 399 686 355 686 273 c 0
514 272 m 0
 447 272 410 221 410 167 c 0
 410 132 429 104 466 104 c 0
 570 104 580 191 580 217 c 0
 580 252 557 272 514 272 c 0
EndSplineSet
EndChar

StartChar: uni0E26
Encoding: 3622 3622 161
Width: 1350
Flags: W
HStem: -10 122<234.935 376.908> 280 119<248.161 397.683> 1002 148<801.324 1145.69>
VStem: 121 109<113.424 259.941> 1226 168<559.703 919.592>
DStem2: 258.583 -380 418.356 -380 0.207912 0.978148<766.755 985.522> 992 -380 1152 -380 0.207912 0.978148<33.2659 1170.98>
LayerCount: 2
Fore
SplineSet
121 143 m 0
 121 256 204 399 340 399 c 0
 377 399 403 389 418 370 c 1
 425 404 l 2
 448 513 511 603 611 672 c 1
 586 731 529 771 439 793 c 1
 593 1031 787 1150 1020 1150 c 0
 1266 1150 1394 1039 1394 825 c 0
 1394 779 1388 729 1376 674 c 2
 1152 -380 l 1
 992 -380 l 1
 1213 658 l 2
 1221 698 1226 735 1226 769 c 0
 1226 918 1144 1002 989 1002 c 0
 858 1002 736 943 624 826 c 1
 703 801 755 747 778 664 c 1
 671 591 606 505 585 404 c 2
 554 259 l 2
 517 84 414 -10 294 -10 c 0
 183 -10 121 49 121 143 c 0
334 280 m 0
 272 280 230 232 230 180 c 0
 230 143 252 112 286 112 c 0
 387 112 399 200 399 223 c 0
 399 256 379 280 334 280 c 0
EndSplineSet
EndChar

StartChar: uni0E27
Encoding: 3623 3623 162
Width: 1150
Flags: W
HStem: -10 123<729.537 874.651> 281 117<745.314 895.079> 1001 148<567.656 933.984>
VStem: 613 113<114.415 262.541> 1000 165<596.086 940.608>
DStem2: 831.441 -10 992.035 -10 0.207912 0.978148<387.467 843.849>
LayerCount: 2
Fore
SplineSet
613 142 m 0
 613 190 657 398 834 398 c 0
 871 398 897 388 912 369 c 1
 991 738 l 2
 997 768 1000 794 1000 818 c 0
 1000 963 890 1001 759 1001 c 0
 615 1001 479 958 354 866 c 1
 293 927 l 1
 444 1070 622 1149 790 1149 c 0
 1028 1149 1165 1050 1165 853 c 0
 1165 819 1160 782 1152 742 c 2
 1049 258 l 2
 1011 79 922 -10 788 -10 c 0
 677 -10 613 57 613 142 c 0
830 281 m 0
 747 281 726 215 726 177 c 0
 726 142 746 113 782 113 c 0
 881 113 896 199 896 228 c 0
 896 261 875 281 830 281 c 0
EndSplineSet
EndChar

StartChar: uni0E28
Encoding: 3624 3624 163
Width: 1300
Flags: W
HStem: 0 21G<181 428.5 971 1135.24> 344 116<705.917 856.646> 625 121<725.353 873.027> 1001 148<631.65 1003.01>
VStem: 219 150<256.212 704.575> 876 104<478.961 622.049> 1119 167<523.445 891.596>
DStem2: 971 0 1131 0 0.207912 0.978148<33.2659 750.381>
LayerCount: 2
Fore
SplineSet
980 605 m 0
 980 485 889 344 737 344 c 0
 657 344 630 368 615 424 c 1
 540 319 466 177 391 0 c 1
 181 0 l 1
 204 108 l 2
 219 178 223 237 223 294 c 0
 223 347 219 398 219 453 c 0
 219 1010 586 1149 856 1149 c 0
 993 1149 1096 1120 1168 1067 c 1
 1220 1096 1271 1148 1322 1224 c 1
 1540 1224 l 1
 1479 1108 1386 1013 1264 939 c 1
 1279 899 1286 853 1286 801 c 0
 1286 756 1281 706 1269 651 c 2
 1131 0 l 1
 971 0 l 1
 1109 650 l 2
 1115 680 1119 709 1119 737 c 0
 1119 899 1007 1001 830 1001 c 0
 613 1001 443 863 397 646 c 0
 376 546 369 447 369 338 c 0
 369 311 369 284 370 256 c 1
 529 703 749 746 817 746 c 0
 923 746 980 693 980 605 c 0
812 625 m 0
 742 625 704 572 704 520 c 0
 704 483 725 460 771 460 c 0
 855 460 876 531 876 566 c 0
 876 602 853 625 812 625 c 0
EndSplineSet
EndChar

StartChar: uni0E29
Encoding: 3625 3625 164
Width: 1350
Flags: W
HStem: 0 148<486 991> 423 112<971.383 1050.9> 698 67<880.812 986.738> 741 113<349.279 457.311> 1022 127<366.754 515.417>
VStem: 235 111<856.433 1001.56> 516 139<877.135 1019.43> 785 87<541 692.516> 988 73<595.495 697.015> 1325 107<679.348 773>
DStem2: 295 0 454.542 0 0.207912 0.978148<184.477 786.085> 959.542 0 1120 0 0.207912 0.978148<151.306 444.717 537.542 581.122 701.969 1163.54>
AnchorPoint: "AboveBase" 1360 1227 basechar 0
LayerCount: 2
Fore
SplineSet
1061 676 m 0xefc0
 1061 599 1011 561 970 548 c 1
 987 539 1004 535 1025 535 c 0
 1040 535 1057 538 1075 543 c 1
 1202 1138 l 1
 1362 1138 l 1
 1259 654 l 1
 1292 681 1314 721 1325 773 c 1
 1432 773 l 1
 1407 655 1338 562 1225 493 c 1
 1120 0 l 1
 295 0 l 1
 458 769 l 1
 432 743 419 741 371 741 c 0xdfc0
 278 741 235 805 235 888 c 0
 235 983 287 1149 496 1149 c 0
 602 1149 655 1093 655 985 c 0
 655 954 650 919 642 880 c 2
 486 148 l 1
 991 148 l 1
 1052 435 l 1
 1021 424 1017 423 994 423 c 0
 832 423 785 496 785 586 c 0
 785 689 875 765 957 765 c 0
 1023 765 1061 735 1061 676 c 0xefc0
917 588 m 0
 978 588 988 635 988 658 c 0
 988 682 974 698 941 698 c 0xefc0
 898 698 872 665 872 632 c 0
 872 610 886 588 917 588 c 0
449 1022 m 0
 403 1022 346 981 346 919 c 0
 346 883 366 854 402 854 c 0xdfc0
 499 854 516 937 516 970 c 0
 516 1006 493 1022 449 1022 c 0
EndSplineSet
EndChar

StartChar: uni0E2A
Encoding: 3626 3626 165
Width: 1250
Flags: W
HStem: -11 115<378.854 521.76> 272 127<425.365 541.468> 604 140<540.822 862.042> 1001 148<588.429 959.915>
VStem: 230 146<106.284 252.678> 544 106<125.666 269.977> 1049 164<611.688 919.4>
DStem2: 886.662 -11 1046.66 -11 0.207912 0.978148<44.5116 372.834 633.758 814.235>
LayerCount: 2
Fore
SplineSet
650 266 m 0
 650 87 519 -11 396 -11 c 0
 326 -11 230 17 230 162 c 0
 230 190 233 221 241 258 c 2
 268 388 l 1
 317 616 517 744 733 744 c 0
 911 744 1001 656 1018 609 c 1
 1041 714 l 2
 1046 740 1049 765 1049 788 c 0
 1049 923 954 1001 774 1001 c 0
 636 1001 504 943 352 834 c 1
 322 944 l 1
 485 1077 649 1149 807 1149 c 0
 965 1149 1076 1107 1142 1037 c 1
 1213 1081 1266 1138 1303 1209 c 1
 1469 1209 l 1
 1416 1048 1259 952 1200 936 c 1
 1209 906 1213 869 1213 831 c 0
 1213 791 1209 750 1201 713 c 2
 1049 0 l 1
 889 0 l 1
 945 263 l 2
 952 296 955 328 955 357 c 0
 955 511 861 604 701 604 c 0
 553 604 455 513 433 407 c 1
 424 369 l 1
 447 389 479 399 521 399 c 0
 606 399 650 351 650 266 c 0
479 272 m 0
 427 272 376 229 376 170 c 0
 376 134 397 104 431 104 c 0
 531 104 544 190 544 215 c 0
 544 253 517 272 479 272 c 0
EndSplineSet
EndChar

StartChar: uni0E2B
Encoding: 3627 3627 166
Width: 1350
Flags: W
HStem: 0 21G<332 630 1038 1202.26> 748 115<403.921 492.97> 1031 118<419.15 568.093 1118.33 1252.02>
VStem: 296 104<865.503 1011.86> 569 128<886.264 1027.35> 969 121<852.642 1000.41> 1167 163<543.75 687.984> 1259 134<872.114 1014.8>
DStem2: 332 0 491.614 0 0.207912 0.978148<227.43 784.129> 1038 0 1198 0 0.207912 0.978148<33.2659 630.949>
LayerCount: 2
Fore
SplineSet
296 892 m 0xfe
 296 1052 421 1149 540 1149 c 0
 645 1149 697 1101 697 1004 c 0
 697 980 694 954 688 924 c 2
 532 190 l 1
 708 505 963 721 1028 767 c 1
 988 790 969 828 969 882 c 0
 969 973 1018 1144 1215 1144 c 0
 1330 1144 1393 1088 1393 1001 c 0xfd
 1393 935 1355 818 1269 764 c 1
 1306 737 1330 680 1330 633 c 0
 1330 625 1329 617 1328 610 c 2
 1198 0 l 1
 1038 0 l 1
 1164 594 l 2
 1166 602 1167 610 1167 618 c 0
 1167 649 1152 673 1123 690 c 1
 987 603 704 289 556 0 c 1
 332 0 l 1
 495 767 l 1
 473 754 447 748 414 748 c 0
 347 748 296 799 296 892 c 0xfe
503 1031 m 0
 447 1031 400 986 400 930 c 0
 400 893 423 863 455 863 c 0
 554 863 569 945 569 975 c 0
 569 1014 542 1031 503 1031 c 0
1194 1019 m 0
 1138 1019 1090 978 1090 915 c 0
 1090 879 1107 851 1146 851 c 0
 1246 851 1259 940 1259 959 c 0
 1259 990 1240 1019 1194 1019 c 0
EndSplineSet
EndChar

StartChar: uni0E2C
Encoding: 3628 3628 167
Width: 1400
Flags: W
HStem: 0 21G<317 517.543 1030.56 1227.24> 740 117<373.175 478.935> 1025 124<387.503 538.706> 1063 20G<957.39 1018.48> 1167 108<1276.27 1311 1495 1597.09> 1412 107<1283.71 1415.89> 1447 20G<1668 1771>
VStem: 256 114<859.698 1007.66> 541 135<879.561 1023.19> 1175 98<1277.52 1402.02> 1417 99<1286.42 1409.74> 1671 100<1354.94 1467>
DStem2: 317 0 477.098 0 0.207912 0.978148<302.162 786.085> 533 263 507 0 0.46863 0.883395<0 671.137> 1016 1083 934 810 0.122996 -0.992407<260.841 829.297> 1062.74 0 1223 0 0.207912 0.978148<265.809 1193.12>
AnchorPoint: "AboveBase" 1136 1227 basechar 0
LayerCount: 2
Fore
SplineSet
256 878 m 0xcbf0
 256 973 308 1149 518 1149 c 0xebf0
 621 1149 676 1091 676 979 c 0
 676 950 672 917 664 880 c 2
 533 263 l 1
 968 1083 l 1
 1016 1083 l 1
 1118 260 l 1
 1311 1167 l 1
 1223 1167 1175 1209 1175 1290 c 0
 1175 1370 1211 1519 1385 1519 c 0xddf0
 1470 1519 1516 1478 1516 1401 c 0
 1516 1385 1514 1368 1510 1349 c 2
 1495 1281 l 1
 1636 1281 1665 1438 1671 1467 c 1
 1771 1467 l 1
 1748 1360 1717 1282 1660 1234 c 0
 1602 1186 1539 1159 1469 1159 c 1
 1223 0 l 1
 1033 0 l 1
 934 810 l 1
 507 0 l 1
 317 0 l 1
 480 769 l 1
 457 750 427 740 390 740 c 0
 307 740 256 787 256 878 c 0xcbf0
474 1025 m 0
 383 1025 370 950 370 918 c 0
 370 884 387 857 426 857 c 0
 523 857 541 940 541 973 c 0
 541 1006 523 1025 474 1025 c 0
1362 1412 m 0xcdf0
 1291 1412 1273 1356 1273 1327 c 0
 1273 1295 1295 1275 1331 1275 c 0
 1377 1275 1417 1314 1417 1362 c 0
 1417 1394 1395 1412 1362 1412 c 0xcdf0
EndSplineSet
EndChar

StartChar: uni0E2D
Encoding: 3629 3629 168
Width: 1230
Flags: W
HStem: 0 148<414 921> 340 120<484.651 631.61> 628 120<502.988 650.51> 1001 148<598.568 955.652>
VStem: 653 104<481.709 623.599> 1053 169<604.141 913.193>
DStem2: 223 0 382.542 0 0.207912 0.978148<184.477 407.485> 889.542 0 1050 0 0.207912 0.978148<151.306 807.897>
LayerCount: 2
Fore
SplineSet
757 592 m 0
 757 502 712 340 530 340 c 0
 504 340 481 349 461 366 c 1
 414 148 l 1
 921 148 l 1
 1047 738 l 2
 1051 757 1053 775 1053 792 c 0
 1053 920 944 1001 783 1001 c 0
 642 1001 518 957 410 866 c 1
 349 927 l 1
 493 1075 647 1149 810 1149 c 0
 1089 1149 1222 1051 1222 861 c 0
 1222 827 1218 789 1209 749 c 2
 1050 0 l 1
 223 0 l 1
 315 434 l 2
 359 641 454 748 595 748 c 0
 704 748 757 688 757 592 c 0
587 628 m 0
 542 628 483 591 483 522 c 0
 483 487 500 460 540 460 c 0
 644 460 653 554 653 566 c 0
 653 598 630 628 587 628 c 0
EndSplineSet
EndChar

StartChar: uni0E2E
Encoding: 3630 3630 169
Width: 1250
Flags: W
HStem: 0 148<419 928> 343 117<490.174 634.049> 628 120<501.958 654.939> 764 120<576.861 981.584> 1029 120<593.966 987.738>
VStem: 403 155<913.616 988.086> 656 108<481.083 624.294> 1059 169<600.133 883>
DStem2: 228 0 387.542 0 0.207912 0.978148<184.477 414.54> 896.542 0 1057 0 0.207912 0.978148<151.306 808.481>
LayerCount: 2
Fore
SplineSet
403 932 m 0
 403 1070 648 1149 829 1149 c 0
 955 1149 1053 1121 1124 1064 c 1
 1160 1100 1183 1131 1196 1158 c 1
 1309 1116 l 1
 1275 1061 1240 1014 1202 975 c 1
 1219 946 1228 907 1228 859 c 0
 1228 824 1224 784 1214 739 c 2
 1057 0 l 1
 228 0 l 1
 320 434 l 2
 364 639 459 748 600 748 c 0
 707 748 764 700 764 600 c 0
 764 506 719 343 538 343 c 0
 505 343 482 356 467 373 c 1
 419 148 l 1
 928 148 l 1
 1049 715 l 2
 1056 746 1059 772 1059 793 c 0
 1059 814 1056 830 1049 842 c 1
 969 791 868 764 750 764 c 0
 529 764 403 835 403 932 c 0
815 1029 m 0
 715 1029 558 992 558 953 c 0
 558 915 668 884 771 884 c 0
 861 884 948 906 1028 952 c 1
 975 1004 903 1029 815 1029 c 0
590 628 m 0
 500 628 487 561 487 527 c 0
 487 490 508 460 543 460 c 0
 644 460 656 549 656 572 c 0
 656 606 635 628 590 628 c 0
EndSplineSet
EndChar

StartChar: uni0E2F
Encoding: 3631 3631 170
Width: 1150
Flags: W
HStem: 0 21G<865 1029.25> 684 182<447.8 731.548> 684 148<639 848.725> 1034 104<460.759 610.559>
VStem: 322 122<869.058 1017.43> 612 127<887.212 1030.96>
DStem2: 865 0 1025 0 0.207912 0.978148<33.2659 848.455 1019.88 1174.62>
LayerCount: 2
Fore
SplineSet
739 1000 m 0xdc
 739 961 726 868 639 832 c 1xbc
 843 832 1069 962 1109 1149 c 1
 1269 1149 l 1
 1025 0 l 1
 865 0 l 1
 1041 830 l 1
 928 742 775 684 605 684 c 0
 452 684 322 757 322 896 c 0
 322 1040 440 1138 572 1138 c 0
 681 1138 739 1084 739 1000 c 0xdc
547 1034 m 0
 465 1034 444 967 444 934 c 0
 444 897 469 866 499 866 c 0xdc
 598 866 612 952 612 976 c 0
 612 1009 589 1034 547 1034 c 0
EndSplineSet
EndChar

StartChar: uni0E30
Encoding: 3632 3632 171
Width: 1100
Flags: W
HStem: 62 123<480.954 726.672> 393 92<348.447 481.666> 548 123<587.2 829.354> 879 92<453.785 583.626>
VStem: 236 101<248.807 380.738> 339 101<734.751 866.02> 483 95<261.72 390.98> 586 95<747.216 876.258>
LayerCount: 2
Fore
SplineSet
578 367 m 0
 578 283 536 235 480 199 c 1
 507 190 535 185 564 185 c 0
 718 185 858 280 900 479 c 1
 1016 479 l 1
 945 145 688 62 497 62 c 0
 382 62 236 105 236 264 c 0
 236 408 328 485 446 485 c 0
 536 485 578 440 578 367 c 0
427 393 m 0
 355 393 337 335 337 309 c 0
 337 276 364 248 385 248 c 0
 476 248 483 330 483 339 c 0
 483 365 466 393 427 393 c 0
681 851 m 0
 681 768 637 720 584 685 c 1
 611 676 639 671 668 671 c 0
 822 671 961 766 1003 965 c 1
 1119 965 l 1
 1048 631 788 548 600 548 c 0
 485 548 339 591 339 750 c 0
 339 905 448 971 549 971 c 0
 634 971 681 927 681 851 c 0
530 879 m 0
 476 879 440 838 440 789 c 0
 440 758 455 734 488 734 c 0
 580 734 586 816 586 823 c 0
 586 851 563 879 530 879 c 0
EndSplineSet
EndChar

StartChar: uni0E31
Encoding: 3633 3633 172
Width: 0
Flags: W
HStem: 1214 123<-203.046 42.0922> 1545 92<-335.976 -202.467>
VStem: -448 100<1400.79 1533.49> -201 95<1413.83 1544.14> 216 116<1514.21 1631>
AnchorPoint: "AboveMark" 108 1740 basemark 0
AnchorPoint: "AboveBase" 81 1227 mark 0
LayerCount: 2
Fore
SplineSet
-106 1521 m 0
 -106 1419 -168 1374 -204 1351 c 1
 -177 1342 -149 1337 -120 1337 c 0
 34 1337 173 1432 216 1631 c 1
 332 1631 l 1
 275 1363 83 1214 -187 1214 c 0
 -302 1214 -448 1257 -448 1416 c 0
 -448 1551 -367 1637 -238 1637 c 0
 -151 1637 -106 1595 -106 1521 c 0
-258 1545 m 0
 -338 1545 -348 1477 -348 1452 c 0
 -348 1423 -333 1400 -299 1400 c 0
 -213 1400 -201 1475 -201 1496 c 0
 -201 1527 -222 1545 -258 1545 c 0
EndSplineSet
EndChar

StartChar: uni0E32
Encoding: 3634 3634 173
Width: 1150
Flags: W
HStem: 0 21G<796 960.25> 1001 148<585.744 901.35>
VStem: 960 167<689.871 943.898>
DStem2: 796 0 956 0 0.207912 0.978148<33.2659 828.138>
LayerCount: 2
Fore
SplineSet
790 1149 m 0
 1002 1149 1127 1030 1127 849 c 0
 1127 819 1123 787 1116 753 c 2
 956 0 l 1
 796 0 l 1
 951 729 l 2
 957 759 960 787 960 813 c 0
 960 932 892 1001 759 1001 c 0
 629 1001 513 935 431 816 c 1
 316 837 l 1
 430 1043 588 1149 790 1149 c 0
EndSplineSet
EndChar

StartChar: uni0E34
Encoding: 3636 3636 175
Width: 0
Flags: W
HStem: 1322 91<-598 -413.422> 1528 116<-506.214 -160.83>
AnchorPoint: "AboveMark" 98 1740 basemark 0
AnchorPoint: "AboveBase" 81 1227 mark 0
LayerCount: 2
Fore
SplineSet
-843 1322 m 1
 -742 1490 -542 1644 -309 1644 c 0
 -151 1644 -73 1595 -5 1515 c 0
 53 1447 82 1361 82 1257 c 0
 82 1247 82 1237 81 1227 c 1
 -231 1298 -755 1322 -843 1322 c 1
-76 1359 m 1
 -112 1462 -175 1528 -317 1528 c 0
 -430 1528 -524 1490 -598 1413 c 1
 -463 1413 -116 1370 -76 1359 c 1
EndSplineSet
EndChar

StartChar: uni0E35
Encoding: 3637 3637 176
Width: 0
Flags: W
HStem: 1511 131<-509.648 -149.087>
AnchorPoint: "AboveMark" 108 1740 basemark 0
AnchorPoint: "AboveBase" 81 1227 mark 0
LayerCount: 2
Fore
SplineSet
81 1260 m 1
 81 1228 l 1
 -127 1275 -602 1323 -843 1323 c 1
 -807 1392 -738 1463 -636 1534 c 0
 -534 1606 -424 1642 -309 1642 c 0
 -175 1642 -80 1603 -13 1525 c 1
 32 1735 l 1
 182 1735 l 1
 81 1260 l 1
-88 1370 m 1
 -107 1457 -187 1511 -295 1511 c 0
 -418 1511 -509 1483 -570 1424 c 1
 -426 1424 -181 1394 -88 1370 c 1
EndSplineSet
EndChar

StartChar: uni0E36
Encoding: 3638 3638 177
Width: 0
Flags: W
HStem: 1321 108<80.1719 180.625> 1514 128<-510.16 -150.528> 1568 113<58.2925 193.533>
VStem: 196 114<1442.83 1566.01>
AnchorPoint: "AboveMark" 172 1740 basemark 0
AnchorPoint: "AboveBase" 81 1227 mark 0
LayerCount: 2
Fore
SplineSet
310 1544 m 0xb0
 310 1477 262 1321 79 1321 c 1
 80 1309 81 1289 81 1261 c 2
 81 1228 l 1
 -127 1275 -602 1323 -843 1323 c 1
 -810 1401 -746 1474 -649 1542 c 0
 -553 1610 -443 1642 -309 1642 c 0xd0
 -215 1642 -97 1611 -38 1548 c 1
 -5 1633 61 1681 159 1681 c 0
 253 1681 310 1624 310 1544 c 0xb0
106 1429 m 0
 158 1429 196 1474 196 1511 c 0
 196 1535 181 1568 135 1568 c 0xb0
 69 1568 46 1513 46 1479 c 0
 46 1447 67 1429 106 1429 c 0
-85 1358 m 1
 -100 1460 -182 1514 -326 1514 c 0xd0
 -438 1514 -525 1480 -577 1412 c 1
 -426 1412 -174 1380 -85 1358 c 1
EndSplineSet
EndChar

StartChar: uni0E37
Encoding: 3639 3639 178
Width: 0
Flags: W
HStem: 1322 91<-560 -394.825> 1505 128<-497.997 -216.041>
DStem2: -305.385 1227 -154.907 1227 0.207912 0.978148<404.062 506.094> -76.0665 1227 73.9971 1227 0.207912 0.978148<298.523 505.049>
AnchorPoint: "AboveMark" -6 1740 basemark 0
AnchorPoint: "AboveBase" 81 1227 mark 0
LayerCount: 2
Fore
SplineSet
-824 1322 m 1
 -758 1443 -572 1633 -294 1633 c 0
 -267 1633 -243 1629 -221 1624 c 1
 -200 1722 l 1
 -50 1722 l 1
 -82 1570 l 1
 -66 1570 -46 1553 -14 1519 c 1
 29 1721 l 1
 179 1721 l 1
 86 1284 l 1
 76 1227 l 1
 -164 1282 -684 1322 -824 1322 c 1
-108 1369 m 1
 -124 1429 -179 1505 -329 1505 c 0
 -427 1505 -502 1472 -560 1413 c 1
 -451 1413 -184 1390 -108 1369 c 1
EndSplineSet
EndChar

StartChar: uni0E38
Encoding: 3640 3640 179
Width: 0
Flags: W
HStem: -375 67<-447.088 -366.398> -163 78<-434.189 -329.396>
VStem: -530 81<-306.121 -175.178> -328 115<-302.862 -163.349>
AnchorPoint: "BelowBase" -176 -85 mark 0
LayerCount: 2
Fore
SplineSet
-530 -284 m 0
 -530 -227 -495 -85 -338 -85 c 0
 -256 -85 -213 -130 -213 -219 c 0
 -213 -242 -216 -269 -222 -299 c 2
 -272 -534 l 1
 -403 -534 l 1
 -366 -360 l 1
 -377 -369 -390 -375 -402 -375 c 0
 -490 -375 -530 -344 -530 -284 c 0
-396 -308 m 0
 -338 -308 -328 -234 -328 -210 c 0
 -328 -180 -342 -163 -366 -163 c 0
 -440 -163 -449 -238 -449 -261 c 0
 -449 -293 -431 -308 -396 -308 c 0
EndSplineSet
Substitution2: "Thai Sara U Mai Ek Reordering" uni0E48.low
Substitution2: "Thai Sara U Mai Tho Reordering" uni0E49.low
Substitution2: "Thai Sara U Mai Tri Reordering" uni0E4A.low
Substitution2: "Thai Sara U Mai Chattawa Reordering" uni0E4B.low
Substitution2: "Thai Sara U Thanthakhat Reordering" uni0E4C.low
Substitution2: "Thai Sara U Nikhahit Reordering" uni0E4D
EndChar

StartChar: uni0E39
Encoding: 3641 3641 180
Width: 0
Flags: W
HStem: -534 99<-529 -384> -376 69<-726.032 -645.775> -163 78<-708.918 -606.958>
VStem: -807 79<-306.057 -179.836> -606 116<-297.55 -163.614>
DStem2: -405.043 -534 -272 -534 0.207912 0.978148<101.212 447.773>
AnchorPoint: "BelowBase" -176 -85 mark 0
LayerCount: 2
Fore
SplineSet
-617 -85 m 0
 -515 -85 -490 -140 -490 -211 c 0
 -490 -237 -494 -268 -501 -299 c 2
 -529 -435 l 1
 -384 -435 l 1
 -312 -96 l 1
 -178 -96 l 1
 -272 -534 l 1
 -682 -534 l 1
 -645 -360 l 1
 -664 -376 -686 -376 -715 -376 c 0
 -770 -376 -807 -333 -807 -274 c 0
 -807 -189 -731 -85 -617 -85 c 0
-684 -307 m 0
 -622 -307 -606 -232 -606 -208 c 0
 -606 -179 -620 -163 -645 -163 c 0
 -691 -163 -728 -209 -728 -261 c 0
 -728 -289 -714 -307 -684 -307 c 0
EndSplineSet
Substitution2: "Thai Sara UU Mai Ek Reordering" uni0E48.low
Substitution2: "Thai Sara UU Mai Tho Reordering" uni0E49.low
Substitution2: "Thai Sara UU Mai Tri Reordering" uni0E4A.low
Substitution2: "Thai Sara UU Mai Chattawa Reordering" uni0E4B.low
Substitution2: "Thai Sara UU Thanthakhat Reordering" uni0E4C.low
Substitution2: "Thai Sara UU Nikhahit Reordering" uni0E4D
EndChar

StartChar: uni0E3A
Encoding: 3642 3642 181
Width: 0
Flags: W
HStem: -330 270<-366.116 -209.244>
VStem: -424 275<-269.438 -118.024>
AnchorPoint: "BelowBase" -172 -65 mark 0
LayerCount: 2
Fore
SplineSet
-424 -222 m 0
 -424 -145 -348 -60 -259 -60 c 0
 -193 -60 -149 -112 -149 -171 c 0
 -149 -245 -230 -330 -316 -330 c 0
 -378 -330 -424 -282 -424 -222 c 0
EndSplineSet
Substitution2: "Thai Phinthu Maitaikhu Reordering" uni0E47
Substitution2: "Thai Phinthu Mai Ek Reordering" uni0E48.low
Substitution2: "Thai Phinthu Mai Tho Reordering" uni0E49.low
Substitution2: "Thai Phinthu Mai Tri Reordering" uni0E4A.low
Substitution2: "Thai Phinthu Mai Chattawa Reordering" uni0E4B.low
Substitution2: "Thai Phinthu Thanthakhat Reordering" uni0E4C.low
Substitution2: "Thai Phinthu Nikhahit Reordering" uni0E4D
EndChar

StartChar: uni0E3F
Encoding: 3647 3647 182
Width: 1250
Flags: W
HStem: 0 170<384 541 690 856.805> 719 166<536 694 842 987.673> 1321 168<629 822 969 1084.84>
VStem: 1061 207<360.144 653.805> 1131 215<1056.22 1277.7>
DStem2: 123.73 -133 319.595 -133 0.207912 0.978148<350.492 911.821 1081.47 1527.28> 513 -133 625 -133 0.207912 0.978148<23.2861 135.915 337.092 871.014 1066.11 1486.47 1681.36 1766.54>
LayerCount: 2
Fore
SplineSet
969 1489 m 1xf0
 1242 1485 1346 1388 1346 1237 c 0xe8
 1346 1117 1298 1036 1241 965 c 0
 1182 892 1128 868 1059 827 c 1
 1182 790 1268 705 1268 551 c 0
 1268 297 1049 12 653 2 c 1
 625 -133 l 1
 513 -133 l 1
 541 0 l 1
 152 0 l 1
 468 1489 l 1
 857 1489 l 1
 880 1595 l 1
 992 1595 l 1
 969 1489 l 1xf0
729 885 m 1
 822 1321 l 1
 629 1321 l 1
 536 885 l 1
 729 885 l 1
842 887 m 1
 901 888 958 906 1014 941 c 1
 1103 999 1131 1126 1131 1182 c 0
 1131 1304 1007 1313 933 1319 c 1
 842 887 l 1
577 170 m 1
 694 719 l 1
 501 719 l 1
 384 170 l 1
 577 170 l 1
690 174 m 1
 1000 188 1061 418 1061 546 c 0xf0
 1061 668 943 717 805 717 c 1
 690 174 l 1
EndSplineSet
EndChar

StartChar: uni0E40
Encoding: 3648 3648 183
Width: 700
Flags: W
HStem: -11 108<360.605 505.065> 304 93<406.674 527.413> 1129 20G<406.758 571>
VStem: 210 148<99.5829 276.103> 531 96<120.975 299.483>
DStem2: 164.822 -11 324.229 -11 0.207912 0.978148<421.632 1185.83>
LayerCount: 2
Fore
SplineSet
627 258 m 0
 627 102 535 -11 377 -11 c 0
 266 -11 210 47 210 158 c 0
 210 187 214 221 222 258 c 2
 411 1149 l 1
 571 1149 l 1
 405 369 l 1
 426 388 453 397 487 397 c 0
 579 397 627 351 627 258 c 0
460 304 m 0
 373 304 358 184 358 158 c 0
 358 118 378 97 416 97 c 0
 518 97 531 196 531 235 c 0
 531 282 506 304 460 304 c 0
EndSplineSet
EndChar

StartChar: uni0E41
Encoding: 3649 3649 184
Width: 1320
Flags: W
HStem: -11 108<384.605 527.153 999.605 1143.38> 304 93<429.508 550.644 1044.51 1163.25> 1129 20G<430.758 595 1045.76 1210>
VStem: 234 148<99.5829 275.919> 555 98<120.193 299.504> 849 148<99.5829 275.919> 1169 96<122.062 300.218>
DStem2: 188.822 -11 348.229 -11 0.207912 0.978148<421.632 1185.83> 803.822 -11 963.229 -11 0.207912 0.978148<421.632 1185.83>
LayerCount: 2
Fore
SplineSet
653 255 m 0
 653 164 602 -11 401 -11 c 0
 290 -11 234 47 234 158 c 0
 234 187 238 221 246 258 c 2
 435 1149 l 1
 595 1149 l 1
 429 369 l 1
 450 388 477 397 511 397 c 0
 598 397 653 346 653 255 c 0
484 304 m 0
 403 304 382 195 382 158 c 0
 382 118 402 97 440 97 c 0
 542 97 555 193 555 234 c 0
 555 281 530 304 484 304 c 0
1265 252 m 0
 1265 102 1173 -11 1016 -11 c 0
 905 -11 849 47 849 158 c 0
 849 187 853 221 861 258 c 2
 1050 1149 l 1
 1210 1149 l 1
 1044 369 l 1
 1065 388 1092 397 1126 397 c 0
 1217 397 1265 345 1265 252 c 0
1099 304 m 0
 1018 304 997 195 997 158 c 0
 997 118 1017 97 1055 97 c 0
 1152 97 1169 189 1169 230 c 0
 1169 275 1146 304 1099 304 c 0
EndSplineSet
EndChar

StartChar: uni0E42
Encoding: 3650 3650 185
Width: 1100
Flags: W
HStem: -11 108<754.992 896.057> 304 93<799.508 922.24> 1595 148<1031.25 1352.25> 1696 148<651.843 949.721>
VStem: 605 147<98.7361 275.492> 817 162<1004.12 1339.58> 926 95<124.541 300.697>
DStem2: 558.822 -11 718.229 -11 0.207912 0.978148<421.632 1281.87>
LayerCount: 2
Fore
SplineSet
1021 253 m 0xda
 1021 138 971 -11 771 -11 c 0
 666 -11 605 47 605 163 c 0
 605 191 609 223 616 258 c 2
 801 1130 l 2
 812 1180 817 1217 817 1246 c 0
 817 1322 778 1341 692 1392 c 1
 629 1421 509 1442 330 1455 c 1
 391 1614 557 1844 823 1844 c 0xdc
 965 1844 1051 1743 1242 1743 c 0
 1320 1743 1386 1763 1439 1804 c 1
 1386 1656 l 1
 1320 1622 1249 1595 1178 1595 c 0xec
 1003 1595 922 1696 775 1696 c 0
 698 1696 628 1649 562 1560 c 1
 904 1513 979 1393 979 1261 c 0xdc
 979 1219 971 1175 962 1132 c 2
 799 369 l 1
 820 386 848 397 882 397 c 0
 984 397 1021 336 1021 253 c 0xda
854 304 m 0
 773 304 752 192 752 158 c 0
 752 118 772 97 810 97 c 0
 903 97 926 192 926 236 c 0xca
 926 278 904 304 854 304 c 0
EndSplineSet
EndChar

StartChar: uni0E43
Encoding: 3651 3651 186
Width: 1000
Flags: W
HStem: -11 108<728.097 869.158> 304 93<772.772 895.861> 1266 112<525.568 743.431> 1683 156<876 1015.13>
VStem: 376 137<1391.68 1587.67> 576 150<98.7091 280.007> 794 119<1425.54 1612.64> 899 95<124.992 300.91> 1079 144<1360.79 1624.52>
DStem2: 531.822 -11 691.229 -11 0.207912 0.978148<421.632 1173>
LayerCount: 2
Fore
SplineSet
376 1428 m 0xfe80
 376 1675 642 1839 877 1839 c 0
 1016 1839 1112 1795 1163 1720 c 0
 1204 1658 1223 1600 1223 1548 c 0
 1223 1191 969 1289 888 911 c 2
 772 369 l 1
 786 383 814 397 854 397 c 0
 948 397 994 353 994 261 c 0xfd80
 994 139 944 -11 744 -11 c 0
 630 -11 576 41 576 151 c 0
 576 182 580 218 589 258 c 2
 728 913 l 1
 811 1289 1079 1242 1079 1522 c 0
 1079 1653 931 1683 876 1683 c 1
 900 1646 913 1606 913 1563 c 0
 913 1450 806 1266 594 1266 c 0
 454 1266 376 1315 376 1428 c 0xfe80
827 304 m 0
 742 304 726 191 726 161 c 0
 726 119 747 97 783 97 c 0
 881 97 899 194 899 240 c 0
 899 281 879 304 827 304 c 0
621 1378 m 0
 767 1378 794 1493 794 1539 c 0xfe80
 794 1596 752 1629 666 1629 c 0
 528 1629 513 1507 513 1469 c 0
 513 1410 550 1378 621 1378 c 0
EndSplineSet
EndChar

StartChar: uni0E44
Encoding: 3652 3652 187
Width: 1030
Flags: W
HStem: -11 108<704.283 845.85> 304 93<750.008 871.139> 1326 114<424.208 553.093> 1694 145<772.668 926>
VStem: 245 149<1459.74 1788> 553 149<99.3929 278.931> 856 167<1450.5 1743> 875 96<123.662 300.084>
DStem2: 508.822 -11 668.229 -11 0.207912 0.978148<421.632 1692.33>
LayerCount: 2
Fore
SplineSet
971 256 m 0xfd
 971 145 922 -11 721 -11 c 0
 605 -11 553 45 553 151 c 0
 553 183 557 218 566 258 c 2
 850 1594 l 2
 854 1615 856 1632 856 1646 c 0
 856 1678 846 1694 824 1694 c 0
 792 1694 736 1607 689 1488 c 0
 654 1400 553 1326 450 1326 c 0
 382 1326 335 1351 309 1400 c 0
 283 1448 261 1577 245 1788 c 1
 394 1788 l 1
 406 1573 l 2
 411 1484 436 1440 480 1440 c 0
 587 1440 627 1680 717 1771 c 1
 757 1810 802 1839 877 1839 c 0
 975 1839 1023 1791 1023 1695 c 0xfe
 1023 1670 1020 1641 1013 1608 c 2
 749 369 l 1
 777 391 805 397 831 397 c 0
 924 397 971 349 971 256 c 0xfd
804 304 m 0
 719 304 702 190 702 158 c 0
 702 118 722 97 760 97 c 0
 852 97 875 192 875 232 c 0xfd
 875 277 851 304 804 304 c 0
EndSplineSet
EndChar

StartChar: uni0E45
Encoding: 3653 3653 188
Width: 1000
Flags: W
HStem: 1001 148<527.677 831.118>
VStem: 888 168<689.052 945.152>
DStem2: 642 -380 802 -380 0.207912 0.978148<33.2659 1220.75>
LayerCount: 2
Fore
SplineSet
693 1149 m 0
 886 1149 1056 1090 1056 870 c 0
 1056 835 1052 796 1043 753 c 2
 802 -380 l 1
 642 -380 l 1
 878 729 l 2
 885 761 888 790 888 817 c 0
 888 938 817 1001 673 1001 c 0
 555 1001 467 934 410 811 c 1
 243 837 l 1
 267 895 386 1149 693 1149 c 0
EndSplineSet
EndChar

StartChar: uni0E46
Encoding: 3654 3654 189
Width: 1100
Flags: W
HStem: 512 95<418.342 563.334> 808 92<482 593.026>
VStem: 289 127<609.839 781.411> 596 104<635.637 804.381> 966 158<750.564 972.534>
DStem2: 709 -374 869 -374 0.207912 0.978148<33.2659 1255.96>
LayerCount: 2
Fore
SplineSet
526 808 m 0
 438 808 416 720 416 673 c 0
 416 633 434 607 481 607 c 0
 573 607 596 710 596 743 c 0
 596 786 568 808 526 808 c 0
700 783 m 0
 700 705 651 512 449 512 c 0
 335 512 289 573 289 668 c 0
 289 789 356 1038 642 1155 c 1
 642 1153 688 1117 778 1047 c 1
 945 1155 l 1
 1085 1131 1124 986 1124 873 c 0
 1124 841 1121 812 1116 789 c 2
 869 -374 l 1
 709 -374 l 1
 962 817 l 2
 965 830 966 843 966 856 c 0
 966 910 944 962 908 985 c 1
 744 887 l 1
 605 985 l 1
 574 966 548 935 527 892 c 1
 545 899 562 900 582 900 c 0
 658 900 700 861 700 783 c 0
EndSplineSet
EndChar

StartChar: uni0E47
Encoding: 3655 3655 190
Width: 0
Flags: W
HStem: 1284 146<-565.286 -516.798> 1284 124<-318.627 -156.574> 1372 152<-505.036 -369.368> 1417 43<-184.302 -154> 1583 53<-169.261 -66.7312> 1660 118<-487.266 -61.1751>
VStem: -720 151<1430.75 1587.04> -254 62<1464.89 1565.02> -60 86<1468.65 1581.09> 6 142<1842.51 1894>
AnchorPoint: "AboveBase" -29 1227 mark 0
LayerCount: 2
Fore
SplineSet
-135 1460 m 0x1f80
 -90 1460 -60 1495 -60 1534 c 0
 -60 1564 -82 1583 -117 1583 c 0
 -162 1583 -192 1538 -192 1505 c 0
 -192 1477 -169 1460 -135 1460 c 0x1f80
-275 1660 m 0
 -522 1660 -569 1554 -569 1484 c 0
 -569 1456 -558 1430 -535 1430 c 1x8f40
 -523 1470 -498 1524 -430 1524 c 0x2f40
 -357 1524 -327 1408 -195 1408 c 0
 -180 1408 -166 1411 -154 1417 c 1
 -234 1417 -254 1460 -254 1497 c 0
 -254 1576 -178 1636 -104 1636 c 0
 16 1636 26 1572 26 1514 c 0
 26 1414 -61 1284 -195 1284 c 0x5f80
 -380 1284 -385 1372 -462 1372 c 0x2f80
 -504 1372 -509 1298 -522 1284 c 1
 -663 1284 -720 1365 -720 1457 c 0
 -720 1580 -632 1778 -263 1778 c 0
 -173 1778 -55 1786 6 1894 c 1
 148 1894 l 1x8f40
 128 1804 -5 1700 -103 1675 c 0
 -137 1666 -194 1660 -275 1660 c 0
EndSplineSet
Substitution2: "Thai Mark High Variant" uni0E47.high
Substitution2: "Thai Phinthu Maitaikhu Reordering" uni0E3A
EndChar

StartChar: uni0E48
Encoding: 3656 3656 191
Width: 0
Flags: W
HStem: 1826 280<115 197>
VStem: 55 202
DStem2: 55 1826 197 1826 0.207912 0.978148<29.5235 286.356>
AnchorPoint: "AboveMark" 108 1740 mark 0
LayerCount: 2
Fore
SplineSet
115 2106 m 1
 257 2106 l 1
 197 1826 l 1
 55 1826 l 1
 115 2106 l 1
EndSplineSet
MultipleSubs2: "Thai Tone Nikhahit Attachment" uni0E4D uni0E48
Substitution2: "Thai Tone Low Variant" uni0E48.low
Substitution2: "Thai Sara U Mai Ek Reordering" uni0E38
Substitution2: "Thai Sara UU Mai Ek Reordering" uni0E39
Substitution2: "Thai Phinthu Mai Ek Reordering" uni0E3A
EndChar

StartChar: uni0E49
Encoding: 3657 3657 192
Width: 0
Flags: W
HStem: 1703 80<-212 -140.169> 1882 63<-169.102 -88.2515> 2102 68<-149.885 -23.4553>
VStem: -253 75<1951.98 2074.48> -16 98<1964.68 2099.01>
AnchorPoint: "AboveMark" 84 1740 mark 0
LayerCount: 2
Fore
SplineSet
-253 1989 m 0
 -253 2076 -175 2170 -78 2170 c 0
 27 2170 82 2119 82 2045 c 0
 82 1996 48 1903 -4 1848 c 1
 244 1934 351 2096 383 2156 c 1
 525 2156 l 1
 394 1869 32 1703 -229 1703 c 1
 -212 1783 l 1
 -159 1798 -115 1831 -87 1893 c 1
 -105 1886 -124 1882 -143 1882 c 0
 -208 1882 -253 1925 -253 1989 c 0
-78 2102 m 0
 -116 2102 -178 2063 -178 2008 c 0
 -178 1973 -151 1945 -112 1945 c 0
 -73 1945 -16 1987 -16 2040 c 0
 -16 2077 -47 2102 -78 2102 c 0
EndSplineSet
MultipleSubs2: "Thai Tone Nikhahit Attachment" uni0E4D uni0E49
Substitution2: "Thai Tone Low Variant" uni0E49.low
Substitution2: "Thai Sara U Mai Tho Reordering" uni0E38
Substitution2: "Thai Sara UU Mai Tho Reordering" uni0E39
Substitution2: "Thai Phinthu Mai Tho Reordering" uni0E3A
EndChar

StartChar: uni0E4A
Encoding: 3658 3658 193
Width: 0
Flags: W
HStem: 1668 68<-373 -210.244> 1856 58<-300.49 -199.78>
VStem: -478 161<1736.51 1911.64> -478 127<1837 1952.62> -196 57<1755.34 1851.85> 123 129<1840.9 2008.21>
DStem2: 236 1839 385 1832 0.54588 0.837863<6.62807 393.859>
AnchorPoint: "AboveMark" -88 1740 mark 0
LayerCount: 2
Fore
SplineSet
-271 1736 m 0xec
 -226 1736 -196 1779 -196 1810 c 0
 -196 1835 -215 1856 -243 1856 c 0
 -302 1856 -317 1801 -317 1778 c 0
 -317 1753 -300 1736 -271 1736 c 0xec
-139 1828 m 0
 -139 1779 -176 1668 -321 1668 c 0
 -425 1668 -478 1726 -478 1821 c 0xec
 -478 2021 -287 2120 -189 2154 c 1
 -74 2036 l 1
 93 2154 l 1
 194 2118 252 2013 252 1921 c 0
 252 1889 245 1866 236 1839 c 1
 451 2169 l 1
 586 2169 l 1
 385 1832 l 1
 300 1685 88 1672 30 1672 c 1
 89 1739 123 1817 123 1890 c 0
 123 1948 101 1994 64 2020 c 1
 -103 1902 l 1
 -136 1937 -182 1993 -218 2020 c 1
 -274 1999 -351 1931 -351 1837 c 1xdc
 -351 1837 -320 1914 -228 1914 c 0
 -169 1914 -139 1875 -139 1828 c 0
EndSplineSet
MultipleSubs2: "Thai Tone Nikhahit Attachment" uni0E4D uni0E4A
Substitution2: "Thai Tone Low Variant" uni0E4A.low
Substitution2: "Thai Sara U Mai Tri Reordering" uni0E38
Substitution2: "Thai Sara UU Mai Tri Reordering" uni0E39
Substitution2: "Thai Phinthu Mai Tri Reordering" uni0E3A
EndChar

StartChar: uni0E4B
Encoding: 3659 3659 194
Width: 0
Flags: W
HStem: 1812 142<-175 -63 109 221>
VStem: -205 456
DStem2: -93 1670 49 1670 0.207912 0.978148<29.5235 145.134 319.792 435.611>
AnchorPoint: "AboveMark" -28 1640 mark 0
LayerCount: 2
Fore
SplineSet
221 1812 m 1
 79 1812 l 1
 49 1670 l 1
 -93 1670 l 1
 -63 1812 l 1
 -205 1812 l 1
 -175 1954 l 1
 -33 1954 l 1
 -2 2096 l 1
 140 2096 l 1
 109 1954 l 1
 251 1954 l 1
 221 1812 l 1
EndSplineSet
MultipleSubs2: "Thai Tone Nikhahit Attachment" uni0E4D uni0E4B
Substitution2: "Thai Tone Low Variant" uni0E4B.low
Substitution2: "Thai Sara U Mai Chattawa Reordering" uni0E38
Substitution2: "Thai Sara UU Mai Chattawa Reordering" uni0E39
Substitution2: "Thai Phinthu Mai Chattawa Reordering" uni0E3A
EndChar

StartChar: uni0E4C
Encoding: 3660 3660 195
Width: 0
Flags: W
HStem: 1621 84<-116.278 42.3429>
VStem: -237 112<1714.62 1859.98> 71 105<1730.95 1879.56>
AnchorPoint: "AboveMark" -19 1740 mark 0
LayerCount: 2
Fore
SplineSet
176 1831 m 0
 176 1724 76 1621 -44 1621 c 0
 -163 1621 -237 1682 -237 1769 c 0
 -237 1793 -229 1889 -134 1969 c 1
 -33 2056 218 2023 334 2169 c 1
 489 2169 l 1
 461 2103 294 1978 92 1942 c 1
 148 1931 176 1887 176 1831 c 0
-42 1705 m 0
 10 1705 71 1752 71 1819 c 0
 71 1863 38 1885 -8 1885 c 0
 -93 1885 -125 1810 -125 1777 c 0
 -125 1735 -85 1705 -42 1705 c 0
EndSplineSet
MultipleSubs2: "Thai Tone Nikhahit Attachment" uni0E4D uni0E4C
Substitution2: "Thai Tone Low Variant" uni0E4C.low
Substitution2: "Thai Sara U Thanthakhat Reordering" uni0E38
Substitution2: "Thai Sara UU Thanthakhat Reordering" uni0E39
Substitution2: "Thai Phinthu Thanthakhat Reordering" uni0E3A
EndChar

StartChar: uni0E4D
Encoding: 3661 3661 196
Width: 0
Flags: W
HStem: 1212 138<-74.3025 79.1565> 1521 147<-55.5421 96.288>
VStem: -228 150<1353.46 1500.09> 101 145<1373.29 1517.08>
AnchorPoint: "AboveMark" 108 1740 basemark 0
AnchorPoint: "AboveBase" 121 1227 mark 0
LayerCount: 2
Fore
SplineSet
-228 1378 m 0
 -228 1512 -131 1668 56 1668 c 0
 178 1668 246 1601 246 1498 c 0
 246 1410 189 1212 -41 1212 c 0
 -157 1212 -228 1271 -228 1378 c 0
-8 1350 m 0
 63 1350 101 1411 101 1458 c 0
 101 1498 72 1521 28 1521 c 0
 -46 1521 -78 1457 -78 1412 c 0
 -78 1372 -53 1350 -8 1350 c 0
EndSplineSet
Substitution2: "Thai Mark High Variant" uni0E4D.high
Substitution2: "Thai Sara U Nikhahit Reordering" uni0E38
Substitution2: "Thai Sara UU Nikhahit Reordering" uni0E39
Substitution2: "Thai Phinthu Nikhahit Reordering" uni0E3A
EndChar

StartChar: uni0E4E
Encoding: 3662 3662 197
Width: 0
Flags: W
HStem: 1444 110<-66.4244 172> 1686 112<1.95435 190> 1925 111<7.14565 307.076>
VStem: -202 127<1576.19 1665.31> -125 124<1809.66 1909.91>
AnchorPoint: "AboveBase" -140 1227 mark 0
LayerCount: 2
Fore
SplineSet
-125 1841 m 0xe8
 -125 1919 -55 2036 154 2036 c 0
 210 2036 267 2028 326 2013 c 1
 302 1901 l 1
 242 1917 188 1925 139 1925 c 0
 17 1925 -1 1883 -1 1855 c 0xe8
 -1 1817 47 1798 144 1798 c 2
 214 1798 l 1
 190 1686 l 1
 125 1686 l 2
 -48 1686 -75 1646 -75 1619 c 0
 -75 1580 5 1554 117 1554 c 2
 195 1554 l 1
 172 1444 l 1
 88 1444 l 2
 -138 1444 -202 1534 -202 1595 c 0xf0
 -202 1657 -139 1725 -64 1743 c 1
 -105 1767 -125 1799 -125 1841 c 0xe8
EndSplineSet
EndChar

StartChar: uni0E4F
Encoding: 3663 3663 198
Width: 1250
Flags: W
HStem: -21 121<461.187 826.439> 258 103<591.564 813.116> 658 105<635.926 859.789> 917 123<619.694 989.392>
VStem: 192 113<257.007 608.182> 465 103<385.647 591.866> 882 103<429.386 634.906> 1146 112<410.081 760.64>
LayerCount: 2
Fore
SplineSet
638 100 m 0
 899 100 1146 334 1146 594 c 0
 1146 782 1008 917 812 917 c 0
 549 917 305 680 305 421 c 0
 305 231 446 100 638 100 c 0
757 658 m 0
 649 658 568 570 568 474 c 0
 568 405 618 361 694 361 c 0
 800 361 882 448 882 544 c 0
 882 613 833 658 757 658 c 0
1258 628 m 0
 1258 290 947 -21 612 -21 c 0
 337 -21 192 185 192 392 c 0
 192 461 206 691 438 884 c 1
 561 988 694 1040 837 1040 c 0
 1112 1040 1258 837 1258 628 c 0
985 569 m 0
 985 416 855 258 671 258 c 0
 541 258 465 338 465 451 c 0
 465 605 592 763 778 763 c 0
 908 763 985 684 985 569 c 0
EndSplineSet
EndChar

StartChar: uni0E50
Encoding: 3664 3664 199
Width: 1250
Flags: W
HStem: -10 173<507.355 834.559> 751 173<618.361 943.58>
VStem: 236 176<255.322 552.87> 1042 178<364.802 653.446>
LayerCount: 2
Fore
SplineSet
785 751 m 0
 594 751 412 583 412 393 c 0
 412 253 518 163 660 163 c 0
 856 163 1042 330 1042 516 c 0
 1042 645 948 751 785 751 c 0
1220 555 m 0
 1220 267 936 -10 620 -10 c 0
 394 -10 236 135 236 353 c 0
 236 646 509 924 818 924 c 0
 1058 924 1220 769 1220 555 c 0
EndSplineSet
EndChar

StartChar: uni0E51
Encoding: 3665 3665 200
Width: 1300
Flags: W
HStem: -10 155<410.065 800.758> 203 159<532.9 748.606> 409 76<702.288 755.39> 603 84<707.433 825.228> 765 159<639.068 964.016>
VStem: 320 180<395.095 630.028> 601 99<486.064 595.442> 827 131<493.939 600.901> 1041 175<367.314 687.755>
LayerCount: 2
Fore
SplineSet
320 471 m 0
 320 705 538 924 808 924 c 0
 1127 924 1216 748 1216 575 c 0
 1216 242 962 -10 581 -10 c 0
 418 -10 284 34 209 115 c 1
 325 254 l 1
 391 186 475 145 612 145 c 0
 803 145 1041 284 1041 549 c 0
 1041 692 954 765 786 765 c 0
 629 765 500 632 500 495 c 0
 500 409 560 362 650 362 c 0
 695 362 748 380 756 421 c 1
 744 413 727 409 707 409 c 0
 636 409 601 445 601 506 c 0
 601 620 696 687 799 687 c 0
 908 687 958 621 958 528 c 0
 958 346 799 203 615 203 c 0
 451 203 320 299 320 471 c 0
773 603 m 0
 739 603 700 573 700 532 c 0
 700 505 719 485 750 485 c 0
 788 485 827 520 827 562 c 0
 827 588 806 603 773 603 c 0
EndSplineSet
EndChar

StartChar: uni0E52
Encoding: 3666 3666 201
Width: 1350
Flags: W
HStem: 0 174<521.641 1078> 343 110<700.937 818.008> 571 108<797 825.986>
VStem: 294 193<207.487 615.854> 350 181<384.224 1129.45> 570 129<454.046 565.945> 826 113<460.229 569.936> 1158 177<446.506 721.589>
DStem2: 1041.02 0 1214 0 0.207912 0.978148<177.887 597.392>
LayerCount: 2
Fore
SplineSet
772 571 m 0xe7
 713 571 699 523 699 500 c 0
 699 473 718 453 749 453 c 0
 799 453 826 497 826 525 c 0
 826 549 807 571 772 571 c 0xe7
1132 924 m 1
 1183 914 1335 816 1335 623 c 0
 1335 588 1331 549 1322 506 c 2
 1214 0 l 1
 534 0 l 18
 444 0 400 36 347 92 c 0
 308 133 294 186 294 252 c 0xf7
 294 386 350 572 350 815 c 0
 350 912 341 1019 316 1134 c 1
 510 1134 l 1
 524 1055 531 967 531 869 c 0xef
 531 633 487 383 487 314 c 0xf7
 487 216 560 174 619 174 c 2
 1078 174 l 1
 1149 506 l 2
 1155 536 1158 563 1158 587 c 0
 1158 676 1121 722 1094 744 c 1
 1094 743 1054 720 975 674 c 1
 876 744 l 1
 849 733 823 711 797 679 c 1
 824 679 l 18
 875 679 939 630 939 547 c 0
 939 448 846 343 732 343 c 0
 623 343 570 415 570 509 c 0
 570 548 577 661 694 790 c 0
 732 832 848 906 914 924 c 1
 914 923 946 892 1009 831 c 1
 1132 924 l 1
EndSplineSet
EndChar

StartChar: uni0E53
Encoding: 3667 3667 202
Width: 1400
Flags: W
HStem: -11 103<345.822 462.495> 210 122<365.835 467.292> 753 171<460.554 671.431 1027.5 1224.55>
VStem: 190 172<204.549 639.123> 469 121<97.5385 207.776> 690 130<216 386.093> 1249 174<387.786 732.524>
LayerCount: 2
Fore
SplineSet
415 210 m 0
 397 210 345 195 345 137 c 0
 345 107 363 92 398 92 c 0
 463 92 469 151 469 164 c 0
 469 190 448 210 415 210 c 0
590 199 m 0
 590 123 528 -11 392 -11 c 0
 286 -11 241 15 218 94 c 0
 200 155 190 254 190 354 c 0
 190 428 196 503 208 561 c 0
 252 768 388 924 599 924 c 0
 748 924 835 862 868 768 c 1
 938 856 1035 924 1163 924 c 0
 1334 924 1423 834 1423 655 c 0
 1423 428 1291 138 1229 0 c 1
 1053 0 l 1
 1186 318 1249 475 1249 609 c 0
 1249 698 1214 753 1143 753 c 0
 1048 753 965 664 928 570 c 0
 887 465 845 333 820 216 c 1
 690 216 l 1
 718 351 719 567 719 578 c 0
 719 661 670 753 572 753 c 0
 483 753 409 680 391 597 c 0
 374 520 362 450 362 385 c 0
 362 361 364 337 368 314 c 1
 395 326 425 332 454 332 c 0
 538 332 590 275 590 199 c 0
EndSplineSet
EndChar

StartChar: uni0E54
Encoding: 3668 3668 203
Width: 1550
Flags: W
HStem: -6 164<483.819 825.764> 313 115<1105.5 1203.97> 580 112<1083.42 1217.32> 762 162<595.5 1314.51>
VStem: 216 177<248.97 560.931> 906 160<362.625 559.448> 1221 117<444.237 576.653>
LayerCount: 2
Fore
SplineSet
1338 541 m 0
 1338 432 1229 313 1105 313 c 1
 1175 223 1306 259 1413 145 c 1
 1253 -2 l 1
 1205 49 1161 76 1046 76 c 0
 945 76 675 -6 579 -6 c 0
 362 -6 216 160 216 369 c 0
 216 591 384 924 868 924 c 2
 1114 924 l 2
 1326 924 1470 1037 1546 1262 c 1
 1730 1262 l 1
 1630 931 1403 762 1075 762 c 2
 815 762 l 2
 451 762 393 492 393 392 c 0
 393 258 484 158 624 158 c 0
 685 158 808 182 991 231 c 1
 949 266 906 340 906 417 c 0
 906 515 989 692 1183 692 c 0
 1274 692 1338 626 1338 541 c 0
1159 580 m 0
 1106 580 1066 530 1066 487 c 0
 1066 454 1092 428 1127 428 c 0
 1171 428 1221 470 1221 518 c 0
 1221 553 1196 580 1159 580 c 0
EndSplineSet
EndChar

StartChar: uni0E55
Encoding: 3669 3669 204
Width: 1550
Flags: W
HStem: -6 164<486.546 830.153> 313 115<1105.5 1204.41> 580 112<1082 1216.36> 762 160<597.402 814 928.905 1063.93> 1073 113<946.916 1075.32>
VStem: 217 177<251.003 562.241> 810 117<924.362 1054.23> 906 160<362.625 556.725> 1080 119<940.306 1069.73> 1220 118<444.185 575.869>
LayerCount: 2
Fore
SplineSet
1338 540 m 0xfdc0
 1338 432 1230 313 1105 313 c 1
 1176 222 1304 259 1411 145 c 1
 1253 -2 l 1
 1205 49 1156 76 1046 76 c 0
 945 76 681 -6 579 -6 c 0
 368 -6 217 162 217 373 c 0
 217 643 456 922 814 922 c 1
 812 935 810 948 810 960 c 0xfec0
 810 1075 928 1186 1045 1186 c 0
 1139 1186 1199 1114 1199 1032 c 0
 1199 1000 1189 963 1166 926 c 1
 1351 945 1478 1057 1546 1262 c 1
 1730 1262 l 1
 1630 931 1403 762 1075 762 c 2
 815 762 l 2
 455 762 394 497 394 396 c 0
 394 259 491 158 624 158 c 0
 685 158 808 182 991 231 c 1
 949 266 906 340 906 417 c 0
 906 535 1017 692 1183 692 c 0
 1274 692 1338 624 1338 540 c 0xfdc0
1021 1073 m 0
 977 1073 927 1022 927 982 c 0
 927 949 954 922 989 922 c 0
 1014 922 1080 958 1080 1007 c 0
 1080 1043 1045 1073 1021 1073 c 0
1159 580 m 0
 1106 580 1066 530 1066 487 c 0xfdc0
 1066 454 1092 428 1127 428 c 0
 1169 428 1220 467 1220 515 c 0
 1220 549 1194 580 1159 580 c 0
EndSplineSet
EndChar

StartChar: uni0E56
Encoding: 3670 3670 205
Width: 1300
Flags: W
HStem: -16 155<625.495 924.739> 215 115<601.779 698.651> 481 113<580.484 713.893> 760 168<610.366 1004.84>
VStem: 393 168<239.956 437.155> 717 114<347.257 477.877> 1121 180<338.186 650.985>
LayerCount: 2
Fore
SplineSet
749 139 m 0
 969 139 1121 321 1121 511 c 0
 1121 663 1010 760 815 760 c 0
 702 760 597 741 497 702 c 1
 448 945 375 1131 280 1262 c 1
 528 1262 l 1
 580 1141 607 1015 610 885 c 1
 692 914 772 928 850 928 c 0
 1129 928 1301 780 1301 548 c 0
 1301 254 1058 -16 716 -16 c 0
 513 -16 393 116 393 272 c 0
 393 427 513 594 677 594 c 0
 766 594 831 532 831 446 c 0
 831 345 735 215 601 215 c 1
 612 176 688 139 749 139 c 0
655 481 m 0
 606 481 561 432 561 389 c 0
 561 356 589 330 623 330 c 0
 662 330 717 367 717 419 c 0
 717 454 691 481 655 481 c 0
EndSplineSet
EndChar

StartChar: uni0E57
Encoding: 3671 3671 206
Width: 1540
Flags: W
HStem: -16 112<355.448 490.336> 0 178<1080 1236.7> 248 114<384.313 503.972> 760 164<501.905 624.208 883.052 1013.92>
VStem: 197 155<99.2776 338.988> 507 118<112.891 246.208> 613 174<467 621.364> 1022 176<383.076 754.948>
DStem2: 1225.76 -16 1413.61 -16 0.207912 0.978148<234.174 1171.53>
LayerCount: 2
Fore
SplineSet
625 213 m 0x7d
 625 98 516 -16 390 -16 c 0xbd
 305 -16 197 32 197 242 c 0
 197 295 204 359 220 436 c 0
 289 761 416 924 602 924 c 0
 694 924 749 875 767 776 c 1
 829 875 904 924 995 924 c 0
 1130 924 1198 837 1198 664 c 0
 1198 537 1165 354 1080 178 c 1
 1095 178 l 2
 1210 178 1278 231 1301 338 c 2
 1469 1130 l 1
 1657 1130 l 1
 1488 334 l 2
 1441 111 1297 0 1057 0 c 2
 791 0 l 1
 793 10 l 1
 853 81 958 276 992 436 c 0
 1010 522 1022 596 1022 652 c 0
 1022 720 1005 760 961 760 c 0
 887 760 829 662 787 467 c 1
 613 467 l 1x7b
 628 539 636 598 636 643 c 0
 636 721 613 760 568 760 c 0
 444 760 383 376 383 348 c 1
 405 357 435 362 472 362 c 0
 570 362 625 294 625 213 c 0x7d
446 248 m 0
 403 248 352 211 352 156 c 0
 352 122 374 96 413 96 c 0
 463 96 507 143 507 189 c 0
 507 222 484 248 446 248 c 0
EndSplineSet
EndChar

StartChar: uni0E58
Encoding: 3672 3672 207
Width: 1580
Flags: W
HStem: -12 165<1094.59 1288.9> 0 170<461.501 577.828> 283 166<760.543 852.611> 309 115<1233.79 1356.1> 575 113<1247.57 1385.39>
VStem: 214 179<242.119 566.507> 1116 116<427.762 558.674> 1388 161<360.326 571.432> 1546 184<1153.05 1262>
LayerCount: 2
Fore
SplineSet
1549 470 m 0x9f
 1549 298 1422 -12 1152 -12 c 0x9f
 934 -12 869 283 803 283 c 0
 774 283 750 236 730 141 c 2
 700 0 l 1
 575 0 l 2
 356 0 214 141 214 354 c 0
 214 526 307 886 808 917 c 0
 1124 937 1461 875 1546 1262 c 1
 1730 1262 l 1
 1602 841 1317 789 1144 776 c 0
 813 751 480 832 401 461 c 0
 396 436 393 412 393 389 c 0
 393 259 475 170 568 170 c 1
 598 312 681 449 808 449 c 0x6e80
 913 449 972 369 1024 287 c 1
 1084 203 1084 168 1188 154 c 0
 1191 154 1195 153 1198 153 c 0
 1253 153 1333 214 1357 324 c 1
 1336 314 1306 309 1268 309 c 0
 1173 309 1116 376 1116 460 c 0
 1116 580 1232 688 1350 688 c 0
 1476 688 1549 602 1549 470 c 0x9f
1326 575 m 0
 1269 575 1232 526 1232 482 c 0
 1232 449 1256 424 1294 424 c 0
 1339 424 1388 461 1388 517 c 0
 1388 551 1367 575 1326 575 c 0
EndSplineSet
EndChar

StartChar: uni0E59
Encoding: 3673 3673 208
Width: 1500
Flags: W
HStem: -16 112<355.724 490.164> 0 21G<821.777 999> 248 114<384.019 503.69> 555 166<1215.95 1313.67> 760 164<532.762 690.791 971.398 1134.84>
VStem: 197 155<99.3124 340.506> 507 118<112.68 244.183> 1454 185<980.59 1130>
DStem2: 896 604 737 546 0.168103 -0.985769<-47.3577 583.469>
LayerCount: 2
Fore
SplineSet
197 242 m 0xbf
 197 424 289 924 663 924 c 0
 766 924 835 875 867 776 c 1
 931 875 998 924 1070 924 c 0
 1197 924 1199 721 1257 721 c 0
 1316 721 1382 857 1454 1130 c 1
 1639 1130 l 1
 1578 899 1471 555 1238 555 c 0
 1077 555 1090 760 1036 760 c 0
 1002 760 955 708 896 604 c 1
 999 0 l 1
 825 0 l 1x7f
 737 546 l 1
 701 754 662 760 629 760 c 0
 441 760 383 396 383 348 c 1
 405 357 435 362 472 362 c 0
 570 362 625 294 625 213 c 0
 625 95 514 -16 390 -16 c 0
 305 -16 197 32 197 242 c 0xbf
446 248 m 0
 406 248 352 210 352 158 c 0
 352 123 377 96 413 96 c 0xbf
 465 96 507 147 507 187 c 0
 507 221 481 248 446 248 c 0
EndSplineSet
EndChar

StartChar: uni0E5A
Encoding: 3674 3674 209
Width: 1400
Flags: W
HStem: 0 21G<865 1029.25 1093 1257.25> 655 182<441.548 725.548> 655 148<633 842.725> 1005 104<454.305 604.401>
VStem: 316 121<840.081 987.625> 606 127<857.665 1001.96>
DStem2: 865 0 1025 0 0.207912 0.978148<33.2659 818.841 990.262 1145.01> 1093 0 1253 0 0.207912 0.978148<33.2659 1145.01>
LayerCount: 2
Fore
SplineSet
733 971 m 0xdc
 733 932 720 839 633 803 c 1xbc
 837 803 1063 933 1103 1120 c 1
 1263 1120 l 1
 1025 0 l 1
 865 0 l 1
 1035 801 l 1
 922 713 769 655 599 655 c 0
 446 655 316 728 316 867 c 0
 316 1011 434 1109 566 1109 c 0
 675 1109 733 1055 733 971 c 0xdc
541 1005 m 0
 458 1005 437 937 437 907 c 0
 437 869 462 837 493 837 c 0xdc
 594 837 606 927 606 946 c 0
 606 980 583 1005 541 1005 c 0
1253 0 m 1
 1093 0 l 1
 1331 1120 l 1
 1491 1120 l 1
 1253 0 l 1
EndSplineSet
EndChar

StartChar: uni0E5B
Encoding: 3675 3675 210
Width: 2370
Flags: W
HStem: -10 158<489.217 848.192> 218 108<1964.84 2404> 272 158<642.278 843.084> 340 8<1690 1848> 375 240<1200.91 1314> 462 88<651.141 757.368> 658 75<659.327 761.007> 812 174<595.931 884.998>
VStem: 224 157<255.1 585.874> 762 85<554.832 656.782> 934 168<531.99 763.214>
LayerCount: 2
Fore
SplineSet
934 667 m 0xa7e0
 934 767 843 812 745 812 c 0
 551 812 381 619 381 401 c 0
 381 217 533 148 639 148 c 0
 767 148 910 203 985 282 c 0
 1163 471 1182 615 1282 615 c 0
 1346 615 1359 559 1359 498 c 0
 1359 460 1354 421 1354 393 c 0
 1354 371 1357 357 1368 357 c 0
 1410 357 1454 494 1465 518 c 0
 1487 568 1526 615 1588 615 c 0
 1708 615 1618 348 1690 348 c 0
 1744 348 1769 507 1868 507 c 0
 1946 507 1917 326 2048 326 c 2
 2427 326 l 1
 2404 218 l 1
 2019 218 l 2
 1887 218 1866 340 1848 340 c 0
 1805 340 1725 94 1620 94 c 0
 1533 94 1573 351 1525 351 c 0
 1482 351 1410 88 1311 88 c 0
 1241 88 1225 137 1225 318 c 0
 1225 330 1227 352 1227 364 c 0
 1227 371 1227 375 1225 375 c 0
 1195 375 1174 274 1033 138 c 0
 925 33 790 -10 602 -10 c 0
 390 -10 224 147 224 375 c 0xdbe0
 224 409 228 446 236 483 c 0
 320 882 646 986 788 986 c 0
 1033 986 1102 848 1102 710 c 0
 1102 434 857 272 670 272 c 0
 527 272 479 372 479 438 c 0
 479 587 607 733 717 733 c 0
 801 733 847 686 847 626 c 0
 847 536 758 462 682 462 c 8
 664 462 640 471 640 471 c 1
 645 438 695 430 731 430 c 0
 866 430 934 589 934 667 c 0xa7e0
697 550 m 0x87e0
 736 550 762 584 762 617 c 0
 762 641 747 658 718 658 c 0
 678 658 651 621 651 591 c 0
 651 567 668 550 697 550 c 0x87e0
EndSplineSet
EndChar

StartChar: zerowidthjoiner
Encoding: 8205 8205 212
Width: 0
Flags: W
LayerCount: 2
Back
SplineSet
-22 -275 m 1
 -94 -275 l 1
 201 1114 l 1
 38 978 l 1
 -1 1027 l 1
 206 1196 l 1
 71 1364 l 1
 130 1413 l 1
 264 1242 l 1
 470 1413 l 1
 509 1364 l 1
 302 1196 l 1
 437 1027 l 1
 378 978 l 1
 273 1114 l 1
 -22 -275 l 1
EndSplineSet
EndChar

StartChar: afii299
Encoding: 8206 8206 213
Width: 0
Flags: W
LayerCount: 2
Back
SplineSet
685 1198 m 1
 422 984 l 1
 384 1033 l 1
 548 1163 l 1
 282 1163 l 1
 -23 -275 l 1
 -94 -275 l 1
 226 1234 l 1
 563 1234 l 1
 454 1364 l 1
 513 1413 l 1
 685 1198 l 1
EndSplineSet
EndChar

StartChar: afii300
Encoding: 8207 8207 214
Width: 0
Flags: W
LayerCount: 2
Back
SplineSet
-23 -275 m 1
 -94 -275 l 1
 211 1163 l 1
 -55 1163 l 1
 55 1033 l 1
 -5 984 l 1
 -176 1198 l 1
 86 1413 l 1
 125 1364 l 1
 -40 1234 l 1
 297 1234 l 1
 -23 -275 l 1
EndSplineSet
EndChar

StartChar: uni2010
Encoding: 8208 8208 215
Width: 973
Flags: W
HStem: 580 165<348 938>
VStem: 313 660
LayerCount: 2
Fore
SplineSet
348 745 m 1
 973 745 l 1
 938 580 l 1
 313 580 l 1
 348 745 l 1
EndSplineSet
EndChar

StartChar: endash
Encoding: 8211 8211 216
Width: 1125
Flags: W
HStem: 572 160<152 1244>
LayerCount: 2
Fore
SplineSet
1244 572 m 1
 118 572 l 1
 152 732 l 1
 1278 732 l 1
 1244 572 l 1
EndSplineSet
EndChar

StartChar: emdash
Encoding: 8212 8212 217
Width: 1886
Flags: W
HStem: 572 160<152 1988>
LayerCount: 2
Fore
SplineSet
1988 572 m 1
 118 572 l 5
 152 732 l 5
 2022 732 l 1
 1988 572 l 1
EndSplineSet
EndChar

StartChar: horizontalbar
Encoding: 8213 8213 218
Width: 1862
Flags: W
HStem: 572 160<266 1874>
LayerCount: 2
Fore
SplineSet
1874 572 m 1
 232 572 l 1
 266 732 l 1
 1908 732 l 1
 1874 572 l 1
EndSplineSet
EndChar

StartChar: underscoredbl
Encoding: 8215 8215 219
Width: 1118
Flags: W
HStem: -423 130<-78 1044> -212 130<-33 1089>
LayerCount: 2
Fore
SplineSet
1089 -212 m 1
 -61 -212 l 1
 -33 -82 l 1
 1117 -82 l 1
 1089 -212 l 1
1044 -423 m 1
 -106 -423 l 1
 -78 -293 l 1
 1072 -293 l 1
 1044 -423 l 1
EndSplineSet
EndChar

StartChar: quoteleft
Encoding: 8216 8216 220
Width: 450
Flags: W
HStem: 997 559<409 509>
VStem: 267 280
LayerCount: 2
Fore
SplineSet
547 997 m 1
 409 997 l 1
 267 1556 l 1
 509 1556 l 1
 547 997 l 1
EndSplineSet
EndChar

StartChar: quoteright
Encoding: 8217 8217 221
Width: 580
Flags: W
HStem: 997 559
VStem: 309 518
LayerCount: 2
Fore
SplineSet
827 1556 m 1
 447 997 l 1
 309 997 l 1
 585 1556 l 1
 827 1556 l 1
EndSplineSet
EndChar

StartChar: quotesinglbase
Encoding: 8218 8218 222
Width: 432
Flags: W
HStem: -276 559
VStem: -72 518
LayerCount: 2
Fore
SplineSet
446 283 m 1
 66 -276 l 1
 -72 -276 l 1
 204 283 l 1
 446 283 l 1
EndSplineSet
EndChar

StartChar: quotereversed
Encoding: 8219 8219 223
Width: 432
Flags: W
HStem: 997 559
VStem: 148 518
LayerCount: 2
Fore
SplineSet
666 1556 m 1
 390 997 l 1
 148 997 l 1
 528 1556 l 1
 666 1556 l 1
EndSplineSet
EndChar

StartChar: quotedblleft
Encoding: 8220 8220 224
Width: 850
Flags: W
HStem: 997 559<409 505 803 899>
VStem: 267 670
LayerCount: 2
Fore
SplineSet
937 997 m 1
 803 997 l 1
 661 1556 l 1
 899 1556 l 1
 937 997 l 1
543 997 m 1
 409 997 l 1
 267 1556 l 1
 505 1556 l 1
 543 997 l 1
EndSplineSet
EndChar

StartChar: quotedblright
Encoding: 8221 8221 225
Width: 1000
Flags: W
HStem: 997 559
LayerCount: 2
Fore
SplineSet
1227 1556 m 1
 847 997 l 1
 713 997 l 1
 989 1556 l 1
 1227 1556 l 1
833 1556 m 1
 453 997 l 1
 319 997 l 1
 595 1556 l 1
 833 1556 l 1
EndSplineSet
EndChar

StartChar: quotedblbase
Encoding: 8222 8222 226
Width: 814
Flags: W
HStem: -276 559
LayerCount: 2
Fore
SplineSet
841 283 m 1
 461 -276 l 1
 327 -276 l 1
 603 283 l 1
 841 283 l 1
447 283 m 1
 67 -276 l 1
 -67 -276 l 1
 209 283 l 1
 447 283 l 1
EndSplineSet
EndChar

StartChar: dagger
Encoding: 8224 8224 227
Width: 1118
Flags: W
HStem: 1034 129<382 719 866 1203>
DStem2: 522 135 654 135 0.207912 0.978148<27.4443 925.204 1072.17 1452.74>
LayerCount: 2
Fore
SplineSet
1203 1034 m 1
 841 1039 l 1
 654 135 l 1
 522 135 l 1
 719 1039 l 1
 355 1034 l 1
 382 1163 l 1
 744 1158 l 1
 824 1556 l 1
 956 1556 l 1
 866 1158 l 1
 1230 1163 l 1
 1203 1034 l 1
EndSplineSet
EndChar

StartChar: daggerdbl
Encoding: 8225 8225 228
Width: 1118
Flags: W
HStem: 507 129<270 607 754 1091> 1049 119<384 721 868 1205>
DStem2: 519 124 651 124 0.207912 0.978148<27.4443 397.818 544.78 946.785 1093.75 1464.12>
LayerCount: 2
Fore
SplineSet
1091 507 m 1
 729 512 l 1
 651 124 l 1
 519 124 l 1
 607 512 l 1
 243 507 l 1
 270 636 l 1
 632 631 l 1
 721 1049 l 1
 357 1044 l 1
 384 1173 l 1
 746 1168 l 1
 824 1556 l 1
 956 1556 l 1
 868 1168 l 1
 1232 1173 l 1
 1205 1044 l 1
 843 1049 l 1
 754 631 l 1
 1118 636 l 1
 1091 507 l 1
EndSplineSet
EndChar

StartChar: bullet
Encoding: 8226 8226 229
Width: 950
Flags: W
HStem: 311 702<505.988 714.254>
VStem: 246 720<560.17 757.868>
LayerCount: 2
Fore
SplineSet
966 739 m 0
 966 518 759 311 531 311 c 0
 340 311 246 453 246 585 c 0
 246 804 451 1013 680 1013 c 0
 870 1013 966 873 966 739 c 0
EndSplineSet
EndChar

StartChar: ellipsis
Encoding: 8230 8230 230
Width: 1650
Flags: W
HStem: 0 223<224 381 782 939 1340 1497>
LayerCount: 2
Fore
SplineSet
1497 0 m 1
 1293 0 l 1
 1340 223 l 1
 1544 223 l 1
 1497 0 l 1
939 0 m 1
 735 0 l 1
 782 223 l 1
 986 223 l 1
 939 0 l 1
381 0 m 1
 177 0 l 1
 224 223 l 1
 428 223 l 1
 381 0 l 1
EndSplineSet
EndChar

StartChar: perthousand
Encoding: 8240 8240 231
Width: 2848
Flags: W
HStem: -29 133<1459.09 1690.27 2303.09 2534.27> 0 21G<528 707.721> 634 133<509.405 741.271> 721 133<1574.63 1804.61 2418.63 2648.61> 1384 133<625.492 855.274>
VStem: 311 177<789.437 1164.67> 878 177<986.592 1362.91> 1260 176<125.41 500.591> 1827 177<323.648 699.912> 2104 176<125.41 500.591> 2671 177<323.648 699.912>
DStem2: 528 0 693 0 0.592793 0.805355<97.8109 1848.87>
LayerCount: 2
Fore
SplineSet
777 1517 m 0x2fe0
 1000 1517 1055 1382 1055 1241 c 0
 1055 1123 1011 874 874 742 c 0
 798 670 704 634 590 634 c 0
 405 634 311 727 311 912 c 0
 311 1030 355 1277 492 1408 c 0
 569 1481 663 1517 777 1517 c 0x2fe0
1789 1489 m 1
 693 0 l 1
 528 0 l 1x4fe0
 1624 1489 l 1
 1789 1489 l 1
1727 854 m 0x9fe0
 1949 854 2004 719 2004 578 c 0
 2004 461 1961 210 1823 80 c 1
 1747 7 1653 -29 1539 -29 c 0
 1398 -29 1260 27 1260 248 c 0
 1260 364 1304 613 1441 745 c 0
 1518 818 1613 854 1727 854 c 0x9fe0
488 912 m 0
 488 819 514 767 618 767 c 0x2fe0
 715 767 799 806 858 1076 c 0
 872 1141 878 1196 878 1241 c 0
 878 1331 853 1384 749 1384 c 0
 653 1384 566 1344 508 1075 c 0
 494 1011 488 957 488 912 c 0
1436 248 m 0
 1436 156 1463 104 1567 104 c 0
 1664 104 1748 143 1807 413 c 0
 1821 478 1827 533 1827 578 c 0
 1827 668 1802 721 1698 721 c 0x9fe0
 1602 721 1514 679 1458 412 c 0
 1444 347 1436 293 1436 248 c 0
2571 854 m 0
 2793 854 2848 719 2848 578 c 0
 2848 461 2805 210 2667 80 c 1
 2591 7 2497 -29 2383 -29 c 0
 2242 -29 2104 27 2104 248 c 0
 2104 364 2148 613 2285 745 c 0
 2362 818 2457 854 2571 854 c 0
2280 248 m 0
 2280 156 2307 104 2411 104 c 0
 2508 104 2592 143 2651 413 c 0
 2665 478 2671 533 2671 578 c 0
 2671 668 2646 721 2542 721 c 0
 2446 721 2358 679 2302 412 c 0
 2288 347 2280 293 2280 248 c 0
EndSplineSet
EndChar

StartChar: minute
Encoding: 8242 8242 232
Width: 602
Flags: W
HStem: 870 619
VStem: 322 565
LayerCount: 2
Fore
SplineSet
887 1489 m 1
 458 870 l 1
 322 870 l 1
 647 1489 l 1
 887 1489 l 1
EndSplineSet
EndChar

StartChar: second
Encoding: 8243 8243 233
Width: 972
Flags: W
HStem: 870 619
LayerCount: 2
Fore
SplineSet
883 1489 m 1
 454 870 l 1
 322 870 l 1
 647 1489 l 1
 883 1489 l 1
1277 1489 m 1
 848 870 l 1
 716 870 l 1
 1041 1489 l 1
 1277 1489 l 1
EndSplineSet
EndChar

StartChar: guilsinglleft
Encoding: 8249 8249 234
Width: 784
Flags: W
VStem: 252 622
DStem2: 441 652 252 608 0.692049 -0.72185<0 390.385> 271 697 441 652 0.810998 0.585048<111.543 592.23>
LayerCount: 2
Fore
SplineSet
670 172 m 1
 252 608 l 1
 271 697 l 1
 874 1132 l 1
 831 933 l 1
 441 652 l 1
 712 371 l 1
 670 172 l 1
EndSplineSet
EndChar

StartChar: guilsinglright
Encoding: 8250 8250 235
Width: 784
Flags: W
VStem: 188 621
DStem2: 230 371 188 172 0.809898 0.586571<0 481.496> 392 1132 349 933 0.692014 -0.721885<113.898 504.976>
LayerCount: 2
Fore
SplineSet
790 608 m 1
 188 172 l 1
 230 371 l 1
 621 652 l 1
 349 933 l 1
 392 1132 l 1
 809 697 l 1
 790 608 l 1
EndSplineSet
EndChar

StartChar: uni203E
Encoding: 8254 8254 237
Width: 1118
Flags: W
HStem: 1658 131<332 1470>
LayerCount: 2
Fore
SplineSet
1470 1658 m 1
 304 1658 l 1
 332 1789 l 1
 1498 1789 l 1
 1470 1658 l 1
EndSplineSet
EndChar

StartChar: fraction
Encoding: 8260 8260 238
Width: 886
Flags: W
HStem: 0 21G<-29 150.721>
DStem2: -29 0 136 0 0.592793 0.805355<97.8109 1848.87>
LayerCount: 2
Fore
SplineSet
1232 1489 m 1
 136 0 l 1
 -29 0 l 1
 1067 1489 l 1
 1232 1489 l 1
EndSplineSet
EndChar

StartChar: uni207F
Encoding: 8319 8319 239
Width: 1010
Flags: W
HStem: 1368 151<731.97 953.677>
VStem: 974 178<1022.91 1345.22>
DStem2: 245 566 416 566 0.207912 0.978148<35.5529 782.955 875.975 942.603> 838 566 1010 566 0.207912 0.978148<35.7608 695.848>
LayerCount: 2
Fore
SplineSet
909 1519 m 0
 1103 1519 1152 1397 1152 1286 c 0
 1152 1249 1147 1208 1137 1163 c 2
 1010 566 l 1
 838 566 l 1
 949 1088 l 2
 966 1168 974 1218 974 1250 c 0
 974 1338 926 1368 832 1368 c 0
 778 1368 710 1355 563 1254 c 1
 416 566 l 1
 245 566 l 1
 441 1488 l 1
 612 1488 l 1
 591 1388 l 1
 758 1509 845 1519 909 1519 c 0
EndSplineSet
EndChar

StartChar: dottedcircle
Encoding: 9676 9676 240
Width: 1255
Flags: W
HStem: 7 121<571.445 681.135> 68 121<878.275 988.135> 98 121<324.956 435.309> 234 121<1079.24 1189> 249 121<214.297 324.309> 445 121<135.275 245.676 1200.93 1310.23> 679 121<199.54 308.46 1234.54 1344.21> 868 121<346.275 456.135> 891 121<1173.45 1283.14> 1011 121<565.297 675.154> 1034 121<1014.96 1125.48> 1079 121<805.54 915.215>
VStem: 128 124<452.104 558.862> 192 124<685.922 793.062> 207 124<256.172 362.998> 318 124<105.145 212.469> 339 124<875.616 981.998> 564 124<14.616 120.998 1020.96 1127.69> 798 124<1085.64 1193.06> 871 124<75.616 181.998> 1008 124<1041.15 1148.47> 1072 124<241.275 348.103> 1166 124<898.616 1005> 1190 124<444.934 552.157> 1227 124<685.641 793.062>
LayerCount: 2
Fore
SplineSet
339 914 m 0x0700c0
 339 953 372 989 413 989 c 0
 443 989 463 970 463 942 c 0
 463 903 428 868 387 868 c 0
 358 868 339 886 339 914 c 0x0700c0
558 1057 m 0
 558 1096 591 1132 633 1132 c 0
 662 1132 682 1113 682 1084 c 0
 682 1045 647 1011 607 1011 c 0x064040
 578 1011 558 1029 558 1057 c 0
798 1125 m 0x061060
 798 1159 828 1200 873 1200 c 0
 902 1200 922 1181 922 1153 c 0
 922 1118 892 1079 847 1079 c 0
 819 1079 798 1097 798 1125 c 0x061060
128 492 m 0x060840
 128 529 161 566 202 566 c 0
 231 566 252 547 252 519 c 0
 252 477 216 445 177 445 c 0
 148 445 128 461 128 492 c 0x060840
207 295 m 0x0e0240
 207 334 240 370 282 370 c 0
 311 370 331 349 331 321 c 0
 331 285 297 249 256 249 c 0
 227 249 207 267 207 295 c 0x0e0240
318 143 m 0x260140
 318 181 349 219 393 219 c 0
 413 219 442 210 442 171 c 0
 442 134 408 98 367 98 c 0
 339 98 318 114 318 143 c 0x260140
564 53 m 0
 564 92 598 128 638 128 c 0
 673 128 688 102 688 81 c 0
 688 42 653 7 612 7 c 0x860040
 583 7 564 25 564 53 c 0
871 114 m 0x460050
 871 153 904 189 945 189 c 0
 975 189 995 170 995 142 c 0
 995 103 960 68 919 68 c 0
 890 68 871 86 871 114 c 0x460050
1072 281 m 0x160044
 1072 315 1103 355 1146 355 c 0
 1176 355 1196 336 1196 308 c 0
 1196 267 1160 234 1121 234 c 0
 1092 234 1072 250 1072 281 c 0x160044
1190 484 m 0x060041
 1190 520 1220 559 1265 559 c 0
 1285 559 1314 550 1314 512 c 0
 1314 469 1277 438 1239 438 c 0
 1210 438 1190 456 1190 484 c 0x060041
1227 725 m 0x06004080
 1227 759 1257 800 1302 800 c 0
 1331 800 1351 781 1351 753 c 0
 1351 718 1321 679 1276 679 c 0
 1248 679 1227 697 1227 725 c 0x06004080
1166 937 m 0x068042
 1166 976 1200 1012 1240 1012 c 0
 1275 1012 1290 986 1290 965 c 0
 1290 926 1255 891 1214 891 c 0
 1185 891 1166 909 1166 937 c 0x068042
1008 1079 m 0x061048
 1008 1117 1039 1155 1083 1155 c 0
 1115 1155 1132 1133 1132 1106 c 0
 1132 1066 1094 1034 1057 1034 c 0x062048
 1029 1034 1008 1050 1008 1079 c 0x061048
192 725 m 0x060440
 192 759 222 800 267 800 c 0
 302 800 316 774 316 753 c 0
 316 720 286 679 241 679 c 0
 213 679 192 697 192 725 c 0x060440
EndSplineSet
EndChar

StartChar: uni0E10.descless
Encoding: 63232 63232 241
Width: 1130
Flags: W
HStem: -10 148<580.688 769.35> 290 113<306.576 422.726> 571 126<324.58 473.486> 917 148<1013.59 1189.34> 1001 148<597.863 974.439>
VStem: 198 106<405.82 553.858> 406 165<149.577 379.528> 475 144<423.317 568.603> 871 172<384.742 614.909>
DStem2: 754.571 -10 914.571 -10 0.207912 0.978148<167.074 567.827>
LayerCount: 2
Fore
SplineSet
198 424 m 0xee80
 198 510 249 697 453 697 c 0
 562 697 619 636 619 524 c 0xed80
 619 495 616 463 608 428 c 2
 577 283 l 2
 573 264 571 246 571 231 c 0
 571 170 602 138 666 138 c 0
 746 138 797 188 816 279 c 2
 869 529 l 2
 870 535 871 541 871 546 c 0
 871 630 725 690 242 762 c 1
 380 1020 564 1149 793 1149 c 0xee80
 1003 1149 1052 1065 1187 1065 c 0
 1207 1065 1227 1067 1245 1072 c 1
 1174 924 l 1
 1160 922 1144 917 1129 917 c 0xf680
 989 917 967 1001 763 1001 c 0
 699 1001 589 989 509 872 c 1
 837 802 1043 746 1043 608 c 0
 1043 597 1042 586 1039 574 c 2
 976 279 l 2
 935 86 821 -10 635 -10 c 0
 482 -10 406 56 406 187 c 0
 406 216 410 248 417 283 c 2
 424 317 l 1
 410 303 387 290 355 290 c 0
 255 290 198 334 198 424 c 0xee80
408 571 m 0
 325 571 304 502 304 465 c 0
 304 431 321 403 361 403 c 0
 457 403 475 486 475 516 c 0
 475 552 451 571 408 571 c 0
EndSplineSet
EndChar

StartChar: uni0E48.low
Encoding: 63242 63242 251
Width: 0
Flags: W
HStem: 1306 280<27 110>
VStem: -32 201
DStem2: -32 1306 110 1306 0.207912 0.978148<29.5235 286.148>
AnchorPoint: "AboveBase" 81 1227 mark 0
LayerCount: 2
Fore
SplineSet
27 1586 m 1
 169 1586 l 1
 110 1306 l 1
 -32 1306 l 1
 27 1586 l 1
EndSplineSet
EndChar

StartChar: uni0E49.low
Encoding: 63243 63243 252
Width: 0
Flags: W
HStem: 1428 71<-396.364 -323.108> 1628 82<-388.22 -271.261>
VStem: -493 93<1500 1617.74> -269 111<1508.56 1627.64>
AnchorPoint: "AboveBase" 21 1227 mark 0
LayerCount: 2
Fore
SplineSet
-318 1628 m 0
 -351 1628 -400 1598 -400 1552 c 0
 -400 1523 -378 1499 -345 1499 c 0
 -310 1499 -269 1536 -269 1576 c 0
 -269 1604 -289 1628 -318 1628 c 0
-244 1388 m 1
 20 1480 122 1657 143 1696 c 1
 285 1696 l 1
 178 1460 -103 1261 -469 1243 c 1
 -452 1323 l 1
 -419 1331 -361 1355 -322 1442 c 1
 -341 1433 -362 1428 -384 1428 c 0
 -448 1428 -493 1462 -493 1525 c 0
 -493 1637 -392 1710 -318 1710 c 0
 -183 1710 -158 1634 -158 1584 c 0
 -158 1555 -175 1461 -244 1388 c 1
EndSplineSet
EndChar

StartChar: uni0E4A.low
Encoding: 63244 63244 253
Width: 0
Flags: W
HStem: 1242 88<-395 -252.872> 1411 78<-333.672 -252.849> 1477 21G<-158 -112.453>
VStem: -516 127<1392.27 1528.99> -252 75<1333.16 1410.12> 86 129<1413.99 1579.59>
DStem2: 198 1413 347 1406 0.54588 0.837863<0.0278511 393.859>
AnchorPoint: "AboveBase" 261 1227 mark 0
LayerCount: 2
Fore
SplineSet
-305 1330 m 0xdc
 -263 1330 -252 1368 -252 1381 c 0
 -252 1399 -268 1411 -289 1411 c 0
 -327 1411 -336 1372 -336 1359 c 0
 -336 1342 -323 1330 -305 1330 c 0xdc
54 1728 m 1
 149 1694 215 1592 215 1500 c 0
 215 1465 204 1429 198 1413 c 1
 413 1743 l 1
 547 1743 l 1
 347 1406 l 2
 281 1296 153 1253 -8 1246 c 1
 50 1313 86 1393 86 1467 c 0
 86 1525 63 1569 26 1594 c 1
 -141 1477 l 1xbc
 -175 1512 -220 1567 -255 1594 c 1
 -360 1555 -389 1457 -389 1417 c 0
 -389 1408 -388 1399 -385 1391 c 1
 -381 1454 -325 1489 -267 1489 c 0
 -208 1489 -177 1445 -177 1401 c 0
 -177 1356 -214 1242 -360 1242 c 0
 -430 1242 -516 1273 -516 1399 c 0
 -516 1611 -288 1709 -227 1728 c 1
 -113 1611 l 1
 54 1728 l 1
EndSplineSet
EndChar

StartChar: uni0E4B.low
Encoding: 63245 63245 254
Width: 0
Flags: W
HStem: 1370 142<-147 -35 137 249>
VStem: -177 456
DStem2: -65 1228 77 1228 0.207912 0.978148<29.5235 145.134 319.792 435.611>
AnchorPoint: "AboveBase" 201 1227 mark 0
LayerCount: 2
Fore
SplineSet
249 1370 m 1
 107 1370 l 1
 77 1228 l 1
 -65 1228 l 1
 -35 1370 l 1
 -177 1370 l 1
 -147 1512 l 1
 -5 1512 l 1
 26 1654 l 1
 168 1654 l 1
 137 1512 l 1
 279 1512 l 1
 249 1370 l 1
EndSplineSet
EndChar

StartChar: uni0E4C.low
Encoding: 63246 63246 255
Width: 0
Flags: W
HStem: 1248 84<-293.843 -135.917>
VStem: -412 111<1338.9 1486.62> -106 104<1358.86 1506.72>
AnchorPoint: "AboveBase" -39 1227 mark 0
LayerCount: 2
Fore
SplineSet
-221 1248 m 0
 -330 1248 -412 1297 -412 1398 c 0
 -412 1497 -347 1570 -311 1596 c 0
 -190 1683 44 1656 158 1796 c 1
 313 1796 l 1
 274 1728 127 1608 -84 1569 c 1
 -12 1553 -2 1502 -2 1450 c 0
 -2 1371 -80 1248 -221 1248 c 0
-218 1332 m 0
 -170 1332 -106 1378 -106 1445 c 0
 -106 1485 -132 1512 -185 1512 c 0
 -255 1512 -301 1452 -301 1401 c 0
 -301 1362 -269 1332 -218 1332 c 0
EndSplineSet
EndChar

StartChar: uni0E0D.descless
Encoding: 63247 63247 256
Width: 1745
Flags: W
HStem: -11 116<343.223 484.554> 0 148<1084 1494> 273 124<398.214 506.562> 1001 148<611.11 965.454>
VStem: 202 137<107.79 254.88> 509 113<128.124 269.799> 1046 168<552.148 919.579>
DStem2: 890.662 -11 1050.2 -11 0.207912 0.978148<195.723 793.69> 1460.2 -11 1620.66 -11 0.207912 0.978148<162.552 1175.77>
LayerCount: 2
Fore
SplineSet
622 265 m 0x7e
 622 169 570 -11 360 -11 c 0xbe
 254 -11 202 48 202 157 c 0
 202 187 206 221 214 258 c 2
 245 403 l 2
 267 508 329 598 431 671 c 1
 416 730 359 770 258 792 c 1
 414 1030 608 1149 840 1149 c 0
 1087 1149 1214 1039 1214 825 c 0
 1214 779 1208 729 1196 673 c 2
 1084 148 l 1
 1494 148 l 1
 1705 1139 l 1
 1865 1139 l 1
 1623 0 l 1
 893 0 l 1
 1033 657 l 2
 1042 698 1046 735 1046 769 c 0
 1046 919 962 1001 809 1001 c 0
 663 1001 541 940 443 825 c 1
 519 808 570 754 598 663 c 1
 491 592 426 505 405 403 c 1
 397 369 l 1
 417 387 444 397 479 397 c 0
 579 397 622 348 622 265 c 0x7e
443 273 m 0
 376 273 339 221 339 168 c 0
 339 133 358 105 395 105 c 0
 486 105 509 186 509 215 c 0
 509 251 483 273 443 273 c 0
EndSplineSet
EndChar

StartChar: uniF71B
Encoding: 63259 63259 268
Width: 1000
Flags: W
HStem: 1065 20G<441.742 1061>
DStem2: 228 61 843 61 0.207912 0.978148<127.866 1046.95>
LayerCount: 2
Fore
SplineSet
1061 1085 m 1
 843 61 l 1
 228 61 l 1
 446 1085 l 1
 1061 1085 l 1
EndSplineSet
EndChar

StartChar: uniF71C
Encoding: 63260 63260 269
Width: 700
Flags: W
HStem: -423 269
VStem: 17 436
LayerCount: 2
Fore
SplineSet
17 -423 m 1
 211 -154 l 1
 453 -154 l 1
 155 -423 l 1
 17 -423 l 1
EndSplineSet
EndChar

StartChar: uniF71D
Encoding: 63261 63261 270
Width: 800
Flags: W
HStem: -236 211<177 216 505 566> -127 102<239 505>
VStem: 132 479
DStem2: 132 -236 216 -236 0.207912 0.978148<17.4646 128.865>
LayerCount: 2
Fore
SplineSet
566 -236 m 1xa0
 482 -236 l 1xa0
 505 -127 l 1
 239 -127 l 1x60
 216 -236 l 1
 132 -236 l 1
 177 -25 l 1xa0
 611 -25 l 1x60
 566 -236 l 1xa0
EndSplineSet
EndChar

StartChar: zerowidthnonjoiner
Encoding: 8204 8204 271
Width: 0
Flags: W
LayerCount: 2
Back
SplineSet
310 1289 m 1
 -22 -275 l 1
 -94 -275 l 1
 238 1289 l 1
 310 1289 l 1
EndSplineSet
EndChar

StartChar: ff
Encoding: 64256 64256 274
Width: 1112
Flags: W
HStem: 0 21G<178 361.252 721 904.252> 922 140<245 374 583 917 1126 1275> 1316 172<811.389 923.001 1354.39 1466> 1343 172<671.572 925.604 1214.57 1468.6>
DStem2: 178 0 357 0 0.207912 0.978148<37.2162 942.603 1123 1379.11> 721 0 900 0 0.207912 0.978148<37.2162 942.603 1123 1379.11>
LayerCount: 2
Fore
SplineSet
1320 1343 m 0xd0
 1243 1343 1175 1294 1147 1160 c 2
 1126 1062 l 1
 1305 1062 l 1
 1275 922 l 1
 1096 922 l 1
 900 0 l 1
 721 0 l 1
 917 922 l 1
 553 922 l 1
 357 0 l 1
 178 0 l 1
 374 922 l 1
 215 922 l 1
 245 1062 l 1
 404 1062 l 1
 428 1175 l 2
 486 1447 677 1515 809 1515 c 0xd0
 860 1515 909 1506 956 1488 c 1
 920 1316 l 1xe0
 864 1336 824 1343 777 1343 c 0
 700 1343 632 1294 604 1160 c 2
 583 1062 l 1
 947 1062 l 1
 971 1175 l 2
 1029 1447 1220 1515 1352 1515 c 0xd0
 1403 1515 1452 1506 1499 1488 c 1
 1463 1316 l 1xe0
 1407 1336 1367 1343 1320 1343 c 0xd0
EndSplineSet
LCarets2: 1 0 
Ligature2: "'liga' Standard Ligatures lookup 0" f f
EndChar

StartChar: fi
Encoding: 64257 64257 275
Width: 992
Flags: W
HStem: 0 21G<178 361.252 673 857.256> 922 140<245 374 583 869> 1259 207<985 1121> 1343 172<671.357 925.764>
DStem2: 178 0 357 0 0.207912 0.978148<37.2162 942.603 1123 1379.11> 673 0 853 0 0.207912 0.978148<37.4241 942.603 1324.63 1498.83>
LayerCount: 2
Fore
SplineSet
941 1259 m 1xe0
 985 1466 l 1
 1165 1466 l 1
 1121 1259 l 1
 941 1259 l 1xe0
604 1160 m 2
 583 1062 l 1
 1079 1062 l 1
 853 0 l 1
 673 0 l 1
 869 922 l 1
 553 922 l 1
 357 0 l 1
 178 0 l 1
 374 922 l 1
 215 922 l 1
 245 1062 l 1
 404 1062 l 1
 428 1175 l 2
 486 1447 677 1515 809 1515 c 0
 860 1515 909 1506 956 1488 c 1
 920 1316 l 1
 871 1333 826 1343 786 1343 c 0xd0
 696 1343 632 1292 604 1160 c 2
EndSplineSet
LCarets2: 1 0 
Ligature2: "'liga' Standard Ligatures lookup 0" f i
EndChar

StartChar: fl
Encoding: 64258 64258 276
Width: 994
Flags: W
HStem: 0 21G<178 361.252 670 854.256> 922 140<245 374 583 732> 1343 172<695.653 951.465>
DStem2: 178 0 357 0 0.207912 0.978148<37.2162 942.603 1123 1350.41> 670 0 850 0 0.207912 0.978148<37.4241 1365.85>
LayerCount: 2
Fore
SplineSet
877 1343 m 0
 743 1343 632 1294 604 1160 c 2
 583 1062 l 1
 762 1062 l 1
 732 922 l 1
 553 922 l 1
 357 0 l 1
 178 0 l 1
 374 922 l 1
 215 922 l 1
 245 1062 l 1
 404 1062 l 1
 428 1175 l 2
 486 1447 675 1515 905 1515 c 0
 994 1515 1076 1484 1162 1466 c 1
 850 0 l 1
 670 0 l 1
 954 1336 l 1
 924 1342 908 1343 877 1343 c 0
EndSplineSet
LCarets2: 1 0 
Ligature2: "'liga' Standard Ligatures lookup 0" f l
EndChar

StartChar: ffi
Encoding: 64259 64259 277
Width: 1535
Flags: W
HStem: 0 21G<178 361.252 721 904.252 1216 1400.26> 922 140<245 374 583 917 1126 1412> 1259 207<1528 1664> 1316 172<811.389 923.001 1354.39 1466> 1343 172<671.357 925.764 1214.36 1468.76>
DStem2: 178 0 357 0 0.207912 0.978148<37.2162 942.603 1123 1379.11> 721 0 900 0 0.207912 0.978148<37.2162 942.603 1123 1379.11> 1216 0 1396 0 0.207912 0.978148<37.4241 942.603 1324.63 1498.83>
LayerCount: 2
Fore
SplineSet
1147 1160 m 2xc8
 1126 1062 l 1
 1622 1062 l 1
 1396 0 l 1
 1216 0 l 1
 1412 922 l 1
 1096 922 l 1
 900 0 l 1
 721 0 l 1
 917 922 l 1
 553 922 l 1
 357 0 l 1
 178 0 l 1
 374 922 l 1
 215 922 l 1
 245 1062 l 1
 404 1062 l 1
 428 1175 l 2
 486 1447 677 1515 809 1515 c 0xc8
 860 1515 909 1506 956 1488 c 1
 920 1316 l 1xd0
 871 1333 826 1343 786 1343 c 0
 696 1343 632 1292 604 1160 c 2
 583 1062 l 1
 947 1062 l 1
 971 1175 l 2
 1029 1447 1220 1515 1352 1515 c 0xc8
 1403 1515 1452 1506 1499 1488 c 1
 1463 1316 l 1xd0
 1414 1333 1369 1343 1329 1343 c 0
 1239 1343 1175 1292 1147 1160 c 2xc8
1484 1259 m 1xe0
 1528 1466 l 1
 1708 1466 l 1
 1664 1259 l 1
 1484 1259 l 1xe0
EndSplineSet
LCarets2: 2 0 0 
Ligature2: "'liga' Standard Ligatures lookup 0" ff i
Ligature2: "'liga' Standard Ligatures lookup 0" f f i
EndChar

StartChar: ffl
Encoding: 64260 64260 278
Width: 1537
Flags: W
HStem: 0 21G<178 361.252 721 904.252 1213 1397.26> 922 140<245 374 583 917 1126 1275> 1343 172<671.601 925.856 1245.4 1494.58>
DStem2: 178 0 357 0 0.207912 0.978148<37.2162 942.603 1123 1379.11> 721 0 900 0 0.207912 0.978148<37.2162 942.603 1123 1350.41> 1213 0 1393 0 0.207912 0.978148<37.4241 1365.85>
LayerCount: 2
Fore
SplineSet
1147 1160 m 2
 1126 1062 l 1
 1305 1062 l 1
 1275 922 l 1
 1096 922 l 1
 900 0 l 1
 721 0 l 1
 917 922 l 1
 553 922 l 1
 357 0 l 1
 178 0 l 1
 374 922 l 1
 215 922 l 1
 245 1062 l 1
 404 1062 l 1
 428 1175 l 2
 486 1447 677 1515 809 1515 c 0
 860 1515 909 1506 956 1488 c 1
 920 1316 l 1
 875 1332 829 1343 787 1343 c 0
 704 1343 633 1299 604 1160 c 2
 583 1062 l 1
 947 1062 l 1
 971 1175 l 2
 1029 1447 1218 1515 1448 1515 c 0
 1537 1515 1619 1484 1705 1466 c 1
 1393 0 l 1
 1213 0 l 1
 1497 1336 l 1
 1472 1341 1444 1343 1417 1343 c 0
 1299 1343 1175 1294 1147 1160 c 2
EndSplineSet
LCarets2: 2 0 0 
Ligature2: "'liga' Standard Ligatures lookup 0" ff l
Ligature2: "'liga' Standard Ligatures lookup 0" f f l
EndChar

StartChar: dotlessi
Encoding: 305 305 279
Width: 455
Flags: W
HStem: 0 21G<136 320.256> 1042 20G<357.744 542>
VStem: 136 406
DStem2: 136 0 316 0 0.207912 0.978148<37.4241 1085.78>
LayerCount: 2
Fore
SplineSet
136 0 m 1
 362 1062 l 1
 542 1062 l 1
 316 0 l 1
 136 0 l 1
EndSplineSet
EndChar

StartChar: dotlessj
Encoding: 567 567 280
Width: 455
Flags: W
HStem: -428 161<-153.834 49.3813> 1042 20G<355.753 540>
DStem2: 43.5038 -428 223.354 -428 0.207912 0.978148<187.745 1523.24>
LayerCount: 2
Fore
SplineSet
-182 -412 m 1
 -149 -259 l 1
 -115 -264 -87 -267 -64 -267 c 0
 48 -267 91 -199 123 -54 c 1
 360 1062 l 1
 540 1062 l 1
 302 -58 l 2
 231 -390 62 -428 -52 -428 c 0
 -92 -428 -135 -423 -182 -412 c 1
EndSplineSet
EndChar
